SplineFontDB: 3.0
FontName: Crimson-SemiboldItalic
FullName: Crimson Semibold Italic
FamilyName: Crimson
Weight: Semibold
Copyright: Copyright (c) 2010, Sebastian Kosch (sebastian@aldusleaf.org),\nwith Reserved Font Name "Crimson".\nThis Font Software is licensed under the SIL Open Font License, Version 1.1.\nThis license is available with a FAQ at: http://scripts.sil.org/OFL
UComments: "2011-10-23: Created."
Version: 0.8
ItalicAngle: -11
UnderlinePosition: -100
UnderlineWidth: 50
Ascent: 742
Descent: 282
InvalidEm: 0
LayerCount: 2
Layer: 0 0 "Back" 1
Layer: 1 0 "Fore" 0
XUID: [1021 732 1356305489 14544745]
FSType: 8
OS2Version: 0
OS2_WeightWidthSlopeOnly: 0
OS2_UseTypoMetrics: 1
CreationTime: 1319393633
ModificationTime: 1413032409
PfmFamily: 17
TTFWeight: 600
TTFWidth: 5
LineGap: 256
VLineGap: 0
OS2TypoAscent: 742
OS2TypoAOffset: 0
OS2TypoDescent: -282
OS2TypoDOffset: 0
OS2TypoLinegap: 256
OS2WinAscent: 948
OS2WinAOffset: 0
OS2WinDescent: 332
OS2WinDOffset: 0
HheadAscent: 742
HheadAOffset: 0
HheadDescent: -282
HheadDOffset: 0
OS2SubXSize: 665
OS2SubYSize: 614
OS2SubXOff: -16
OS2SubYOff: 76
OS2SupXSize: 665
OS2SupYSize: 614
OS2SupXOff: 76
OS2SupYOff: 358
OS2StrikeYSize: 50
OS2StrikeYPos: 265
OS2CapHeight: 0
OS2XHeight: 0
OS2FamilyClass: 258
OS2Vendor: 'PfEd'
Lookup: 1 0 0 "'ccmp' Turkish i" { "'ccmp' Turkish i-1"  } ['ccmp' ('latn' <'TRK ' > ) ]
Lookup: 1 0 0 "'pnum' Proportional Numbers lookup 12" { "'pnum' Proportional Numbers lookup 12-1" ("prop") } ['pnum' ('DFLT' <'dflt' > 'grek' <'dflt' > 'latn' <'TRK ' 'dflt' > ) ]
Lookup: 258 0 0 "'kern' Horizontal Kerning in Latin lookup 0" { "'kern' Horizontal Kerning in Latin lookup 0 kerning class 1" [153,0,0] } ['kern' ('latn' <'TRK ' 'dflt' > ) ]
MarkAttachClasses: 1
DEI: 91125
KernClass2: 74+ 59 "'kern' Horizontal Kerning in Latin lookup 0 kerning class 1"
 9 ampersand
 2 at
 10 exclamdown
 10 registered
 12 questiondown
 73 A Agrave Aacute Acircumflex Atilde Adieresis Aring Amacron Abreve Aogonek
 1 B

StartChar: exclam
Encoding: 33 33 0
Width: 245
VWidth: 512
Flags: W
HStem: -12 127<42.2443 117.16>
VStem: 21 118<10.3066 93.6426> 89 39<173.589 262.253>
LayerCount: 2
Back
Fore
SplineSet
21 48 m 1xc0
 25 85 56 115 92 115 c 27
 121 115 143 88 139 58 c 1
 135 20 105 -12 69 -12 c 27
 38 -12 17 16 21 48 c 1xc0
198 636 m 1
 223 636 240 613 236 581 c 1
 234 553 165 331 128 196 c 0
 123 179 104 169 95 169 c 1
 90 169 89 179 89 189 c 1xa0
 91 225 117 476 132 576 c 0
 138 606 166 636 198 636 c 1
EndSplineSet
Validated: 33
EndChar

StartChar: quotedbl
Encoding: 34 34 1
Width: 334
VWidth: 512
Flags: W
HStem: 434 264<141 144.818 293 296.818>
VStem: 107 98<562.207 672.501> 259 98<562.207 672.501>
LayerCount: 2
Back
Fore
SplineSet
329 698 m 27
 357 698 368 692 357 633 c 0
 346 577 314 516 295 449 c 0
 292 439 281 434 274 434 c 0
 267 434 258 439 259 447 c 0
 268 537 259 590 259 636 c 1
 262 654 293 698 329 698 c 27
177 698 m 27
 205 698 216 692 205 633 c 0
 194 577 162 516 143 449 c 0
 140 439 129 434 122 434 c 0
 115 434 106 439 107 447 c 0
 116 537 107 590 107 636 c 1
 110 654 141 698 177 698 c 27
EndSplineSet
Validated: 33
EndChar

StartChar: numbersign
Encoding: 35 35 2
Width: 460
VWidth: 0
Flags: W
HStem: 174 58<25.8084 100 173 240 313 386.192> 316 58<73.8084 147 220 287 360 434.192>
LayerCount: 2
Back
Fore
SplineSet
360 374 m 1
 360 374 422 374 436 374 c 0
 441 374 442 373 442 370 c 1
 442 354 428 316 418 316 c 1
 342 316 l 1
 313 232 l 1
 388 232 l 1
 392 232 394 232 394 228 c 1
 394 212 380 174 370 174 c 1
 294 174 l 1
 244 24 l 1
 244 22 237 17 209 17 c 0
 199 17 187 19 186 21 c 1
 187 25 212 98 212 99 c 0
 212 101 240 174 240 174 c 1
 154 174 l 1
 104 24 l 1
 104 22 97 17 69 17 c 0
 59 17 47 19 46 21 c 1
 47 25 72 98 72 99 c 0
 72 101 100 174 100 174 c 1
 24 174 l 1
 20 174 18 174 18 178 c 1
 18 194 32 232 42 232 c 1
 118 232 l 1
 147 316 l 1
 72 316 l 1
 68 316 66 316 66 320 c 1
 66 336 80 374 90 374 c 1
 166 374 l 1
 216 524 l 1
 216 526 226 531 254 531 c 0
 264 531 273 528 274 526 c 1
 273 522 248 450 248 449 c 0
 248 447 220 374 220 374 c 1
 306 374 l 1
 356 524 l 1
 356 526 366 531 394 531 c 0
 404 531 413 528 414 526 c 1
 413 522 388 450 388 449 c 0
 388 447 360 374 360 374 c 1
287 316 m 1
 202 316 l 1
 173 232 l 1
 258 232 l 1
 287 316 l 1
EndSplineSet
Validated: 1
EndChar

StartChar: dollar
Encoding: 36 36 3
Width: 470
UnlinkRmOvrlpSave: 1
Flags: W
HStem: -9 40<161.046 252.1> 602 41<239.156 327.004>
VStem: 30 38<94.394 182.312> 399 33<464.212 545.774>
LayerCount: 2
Back
Fore
SplineSet
136 -58 m 17
 128 -58 103 -53 105 -46 c 9
 348 683 l 17
 356 683 381 680 379 673 c 9
 136 -58 l 17
313 643 m 0
 363 643 414 626 451 618 c 1
 447 572 442 528 432 470 c 1
 429 464 427 464 423 464 c 0
 417 464 399 464 399 472 c 0
 401 516 377 602 305 602 c 0
 255 602 211 576 199 512 c 0
 187 448 240 404 291 366 c 0
 352 320 429 274 409 169 c 0
 389 63 280 -9 182 -9 c 0
 127 -9 67 5 24 15 c 1
 21 53 25 138 30 172 c 1
 33 178 48 183 54 183 c 0
 62 183 67 179 68 175 c 1
 68 129 90 31 186 31 c 0
 236 31 291 61 305 132 c 0
 319 204 253 246 215 274 c 0
 141 326 78 373 97 471 c 0
 116 570 221 643 313 643 c 0
EndSplineSet
Validated: 37
EndChar

StartChar: percent
Encoding: 37 37 4
Width: 662
VWidth: 512
Flags: W
HStem: -4 29<420.031 482.245> 286 28<456.697 516.511> 340 29<169.031 231.245> 630 28<205.697 265.511>
VStem: 71 77<384.486 543.854> 285 78<453.874 614.956> 322 77<40.486 199.854> 536 78<109.874 270.956>
LayerCount: 2
Back
Fore
SplineSet
492 286 m 1xfb
 433 286 396 185 399 109 c 1
 400 75 412 25 447 25 c 1
 506 25 538 128 536 202 c 1
 535 236 525 286 492 286 c 1xfb
500 314 m 1
 568 314 611 272 614 198 c 1
 617 102 528 -4 436 -4 c 1
 368 -4 324 44 322 110 c 1
 319 206 406 314 500 314 c 1
241 630 m 1
 182 630 145 529 148 453 c 1
 149 419 161 369 196 369 c 1
 255 369 287 472 285 546 c 1xfd
 284 580 274 630 241 630 c 1
249 658 m 1
 317 658 360 616 363 542 c 1
 366 446 277 340 185 340 c 1
 117 340 73 388 71 454 c 1
 68 550 155 658 249 658 c 1
618 634 m 1
 618 634 96 -7 96 -7 c 1
 94 -9 69 -10 62 -4 c 1
 58 -3 56 0 56 5 c 9
 56 5 578 648 578 648 c 1
 580 650 599 649 604 643 c 1
 610 642 616 640 618 634 c 1
EndSplineSet
Validated: 33
EndChar

StartChar: ampersand
Encoding: 38 38 5
Width: 795
UnlinkRmOvrlpSave: 1
Flags: W
HStem: -5 41<330.937 495.765> 488 48<328.358 457>
VStem: -8 56<93.5 177.84> 131 105<135.639 324.465> 400 120<381.103 482.701> 440 36<129.797 183.945> 606 63<139.791 235.846> 733 59<437.479 517.222>
LayerCount: 2
Back
Fore
SplineSet
434 536 m 27xf7
 480 536 520 500 520 454 c 27
 520 294 237 241 178 227 c 0
 109 210 48 196 48 154 c 3
 48 136 58 130 68 120 c 0
 79 110 88 100 88 84 c 3
 88 53 66 36 39 36 c 27
 27 36 18 37 10 41 c 1
 -2 57 -8 85 -8 102 c 0
 -8 169 34 221 110 245 c 0
 187 269 400 306 400 436 c 3xfb
 400 468 384 488 356 488 c 3
 288 488 236 375 236 252 c 3
 236 115 306 36 418 36 c 3
 510 36 606 99 606 192 c 0
 606 209 598 230 592 236 c 1
 540 218 476 191 476 147 c 3
 476 135 477 130 479 122 c 1
 475 120 463 124 457 130 c 1
 450 137 440 154 440 180 c 3
 440 240 482 264 562 306 c 0
 642 346 737 410 733 544 c 1
 742 545 752 540 756 537 c 1
 774 516 792 480 792 436 c 3
 792 354 732 296 662 262 c 1
 666 254 669 240 669 225 c 0
 669 97 530 -5 386 -5 c 0
 256 -5 131 63 131 219 c 3
 131 367 263 536 434 536 c 27xf7
EndSplineSet
Validated: 37
EndChar

StartChar: quotesingle
Encoding: 39 39 6
Width: 182
VWidth: 512
Flags: W
HStem: 434 264<141 144.818>
VStem: 107 98<562.207 672.501>
LayerCount: 2
Back
Fore
SplineSet
177 698 m 27
 205 698 216 692 205 633 c 0
 194 577 162 516 143 449 c 0
 140 439 129 434 122 434 c 0
 115 434 106 439 107 447 c 0
 116 537 107 590 107 636 c 1
 110 654 141 698 177 698 c 27
EndSplineSet
Validated: 33
EndChar

StartChar: parenleft
Encoding: 40 40 7
Width: 268
VWidth: 0
Flags: W
VStem: 43 264
LayerCount: 2
Back
Fore
SplineSet
299 748 m 1
 305 746 307 739 307 735 c 1
 239 664 86 418 108 164 c 0
 120 23 154 -54 210 -109 c 1
 210 -112 211 -119 205 -121 c 1
 141 -99 58 4 43 177 c 0
 17 474 211 676 299 748 c 1
EndSplineSet
Validated: 33
EndChar

StartChar: parenright
Encoding: 41 41 8
Width: 267
VWidth: 0
Flags: W
VStem: -22 264
LayerCount: 2
Back
Fore
SplineSet
-14 -121 m 1
 -20 -119 -23 -112 -22 -108 c 1
 46 -37 199 209 177 463 c 0
 165 604 131 681 75 736 c 1
 75 739 75 746 81 748 c 1
 146 726 227 623 242 450 c 0
 268 153 74 -49 -14 -121 c 1
EndSplineSet
Validated: 33
EndChar

StartChar: asterisk
Encoding: 42 42 9
Width: 412
Flags: W
HStem: 430 74<76.0956 168.013> 464 51<252.932 275.92> 472 24<186.45 228.828> 644 20G<208.5 235.5>
VStem: 162 70<306.58 383.121> 229 48<465 469 496.005 514.875>
LayerCount: 2
Back
Fore
SplineSet
262 515 m 0x58
 287 515 330 634 384 634 c 0
 398 634 409 625 409 606 c 0
 409 546 277 524 277 492 c 0x54
 277 465 400 480 400 422 c 0
 400 400 378 380 358 380 c 0
 315 380 285 464 260 464 c 0
 237 464 250 397 232 340 c 0
 223 310 204 300 190 300 c 0
 176 300 162 313 162 330 c 0x58
 162 370 229 438 229 464 c 0x54
 229 469 227 472 220 472 c 0x34
 199 472 137 430 99 430 c 0
 82 430 68 441 68 457 c 0
 68 470 76 504 130 504 c 0x94
 159 504 188 496 208 496 c 0x34
 230 496 232 503 232 510 c 0
 232 534 180 577 180 620 c 0
 180 645 198 664 219 664 c 0
 252 664 252 622 252 582 c 0
 252 576 248 515 262 515 c 0x58
EndSplineSet
Validated: 33
EndChar

StartChar: plus
Encoding: 43 43 10
Width: 462
Flags: W
HStem: 215 47<23.4644 196 256 427.407>
LayerCount: 2
Back
Fore
SplineSet
26 215 m 2
 23 215 21 218 21 223 c 0
 21 236 25 249 35 262 c 1
 204 262 l 1
 238 435 l 2
 240 448 278 451 282 451 c 0
 290 451 293 447 292 443 c 2
 256 262 l 1
 426 262 l 2
 428 262 429 259 429 254 c 0
 429 241 427 227 416 215 c 1
 248 215 l 1
 214 39 l 2
 212 29 190 23 174 23 c 0
 164 23 160 27 160 31 c 2
 196 215 l 1
 26 215 l 2
EndSplineSet
Validated: 1
EndChar

StartChar: comma
Encoding: 44 44 11
Width: 208
VWidth: 512
Flags: W
HStem: -131 263
VStem: 12 106<8.73322 113.904>
LayerCount: 2
Back
Fore
SplineSet
-32 -112 m 1
 -23 -106 38 -54 38 -9 c 0
 38 20 12 23 12 62 c 0
 12 110 51 132 84 132 c 0
 94 132 112 125 116 119 c 1
 118 114 118 105 118 98 c 0
 118 60 109 12 88 -24 c 0
 60 -72 27 -101 -18 -131 c 1
 -24 -130 -32 -121 -32 -112 c 1
EndSplineSet
Validated: 1
EndChar

StartChar: hyphen
Encoding: 45 45 12
Width: 366
VWidth: 512
Flags: W
VStem: 50 256<208.329 264>
LayerCount: 2
Back
Fore
SplineSet
72 264 m 2
 300 276 l 2
 305 276 306 269 306 264 c 0
 306 251 291 208 281 207 c 10
 55 196 l 2
 52 196 50 203 50 211 c 0
 50 222 61 263 72 264 c 2
EndSplineSet
Validated: 1
EndChar

StartChar: period
Encoding: 46 46 13
Width: 212
VWidth: 512
Flags: W
HStem: -12 127<30.5189 102.434>
VStem: 7 118<11.5924 91.2228>
LayerCount: 2
Back
Fore
SplineSet
7 46 m 0
 11 83 45 115 79 115 c 1
 109 115 128 90 125 58 c 0
 121 21 89 -12 55 -12 c 1
 24 -12 3 14 7 46 c 0
EndSplineSet
Validated: 33
EndChar

StartChar: slash
Encoding: 47 47 14
Width: 393
VWidth: 0
Flags: W
LayerCount: 2
Back
Fore
SplineSet
458 755 m 1
 34 -12 l 2
 31 -17 7 -34 -16 -34 c 0
 -20 -34 -27 -30 -28 -28 c 9
 397 739 l 2
 402 747 428 761 446 761 c 0
 452 761 456 758 458 755 c 1
EndSplineSet
Validated: 1
EndChar

StartChar: zero
Encoding: 48 48 15
Width: 468
Flags: W
HStem: -4 36<209.967 280.003> 605 36<313.123 382.98>
LayerCount: 2
Back
Fore
SplineSet
188.521484375 236 m 0
 173.521484375 128 191.521484375 32 241.521484375 32 c 0
 313.521484375 32 388.521484375 204 404.521484375 394 c 0
 420.521484375 488 407.521484375 605 351.521484375 605 c 0
 281.521484375 605 204.521484375 438 188.521484375 236 c 0
85.521484375 307 m 0
 121.521484375 491 240.521484375 641 358.521484375 641 c 0
 488.521484375 641 539.521484375 498 505.521484375 326 c 0
 471.521484375 154 357.521484375 -4 231.521484375 -4 c 0
 112.521484375 -4 51.521484375 135 85.521484375 307 c 0
EndSplineSet
Validated: 33
Substitution2: "'pnum' Proportional Numbers lookup 12-1" zero.prop
EndChar

StartChar: one
Encoding: 49 49 16
Width: 468
Flags: W
HStem: -3 29<125.475 190.168 314.39 366.328> 622 20G<399.766 418.266>
VStem: 124.266 299
LayerCount: 2
Back
Fore
SplineSet
214.265625 506 m 1
 207.265625 510 205.265625 521 205.265625 528 c 0
 205.265625 530 205.265625 533 208.265625 535 c 1
 306.265625 585 386.265625 626 413.265625 642 c 1
 415.265625 642 l 2
 421.265625 642 424.265625 623 423.265625 614 c 1
 423.265625 614 401.265625 570 385.265625 484 c 2
 319.265625 135 l 2
 313.265625 102 308.265625 73 309.265625 46 c 0
 310.265625 35 360.265625 26 367.265625 26 c 0
 370.265625 26 368.265625 15 367.265625 8 c 0
 366.265625 3 365.265625 -1 364.265625 -3 c 1
 327.265625 -1 267.265625 2 230.265625 2 c 0
 193.265625 2 162.265625 -1 124.265625 -3 c 1
 120.265625 2 125.265625 26 130.265625 26 c 0
 141.265625 26 192.265625 35 197.265625 46 c 0
 206.265625 66 209.265625 84 213.265625 103 c 2
 278.265625 439 l 2
 290.265625 499 296.265625 530 277.265625 530 c 0
 270.265625 530 232.265625 515 214.265625 506 c 1
EndSplineSet
Validated: 33
Substitution2: "'pnum' Proportional Numbers lookup 12-1" one.prop
EndChar

StartChar: two
Encoding: 50 50 17
Width: 468
Flags: W
HStem: 0 92<163.188 391.592> 567 75<272.709 356.298>
VStem: 381.188 116<407.992 542.716>
LayerCount: 2
Back
Fore
SplineSet
497.188476562 501 m 0
 497.188476562 413 444.188476562 348 370.188476562 278 c 0
 282.188476562 195 161.188476562 92 163.188476562 92 c 9
 334.188476562 92 l 2
 388.188476562 92 413.188476562 125 429.188476562 162 c 0
 431.188476562 167 436.188476562 170 443.188476562 170 c 0
 449.188476562 170 458.188476562 166 460.188476562 164 c 1
 436.188476562 114 390.188476562 18 382.188476562 0 c 9
 382.188476562 0 57.1884765625 0 50.1884765625 0 c 1
 47.1884765625 1 43.1884765625 9 43.1884765625 18 c 1
 98.1884765625 68 226.188476562 202 284.188476562 270 c 0
 349.188476562 346 381.188476562 412 381.188476562 477 c 0
 381.188476562 531 351.188476562 567 299.188476562 567 c 0
 233.188476562 567 180.188476562 506 169.188476562 492 c 1
 161.188476562 492 152.188476562 504 152.188476562 510 c 1
 163.188476562 535 255.188476562 642 352.188476562 642 c 0
 425.188476562 642 497.188476562 589 497.188476562 501 c 0
EndSplineSet
Validated: 33
Substitution2: "'pnum' Proportional Numbers lookup 12-1" two.prop
EndChar

StartChar: three
Encoding: 51 51 18
Width: 468
Flags: W
HStem: -5 39<175.576 279.39> 316 32<204.505 259.703> 576 66<275.991 381.004>
VStem: 354.504 108<149.226 294.317> 376.504 94<454.406 555.399>
LayerCount: 2
Back
Fore
SplineSet
357.50390625 642 m 0xe8
 404.50390625 642 470.50390625 611 470.50390625 524 c 0xe8
 470.50390625 448 395.50390625 396 350.50390625 376 c 1
 406.50390625 369 462.50390625 307 462.50390625 240 c 0
 462.50390625 86 289.50390625 -5 189.50390625 -5 c 0
 131.50390625 -5 92.50390625 8 69.50390625 24 c 1
 65.50390625 29 60.50390625 43 60.50390625 54 c 0
 60.50390625 96 88.50390625 116 110.50390625 116 c 0
 144.50390625 116 150.50390625 86 162.50390625 68 c 0
 176.50390625 46 201.50390625 34 226.50390625 34 c 0
 283.50390625 34 354.50390625 105 354.50390625 218 c 0xf0
 354.50390625 285 324.50390625 324 260.50390625 324 c 0
 243.50390625 324 220.50390625 319 208.50390625 316 c 1
 205.50390625 321 204.50390625 327 204.50390625 332 c 0
 204.50390625 336 206.50390625 345 208.50390625 348 c 1
 280.50390625 359 376.50390625 412 376.50390625 494 c 0
 376.50390625 552 342.50390625 576 300.50390625 576 c 0
 242.50390625 576 196.50390625 517 186.50390625 509 c 1
 179.50390625 509 173.50390625 523 174.50390625 532 c 1
 208.50390625 580 281.50390625 642 357.50390625 642 c 0xe8
EndSplineSet
Validated: 1
Substitution2: "'pnum' Proportional Numbers lookup 12-1" three.prop
EndChar

StartChar: four
Encoding: 52 52 19
Width: 468
Flags: W
HStem: -6 21G<317.566 346.566> 174 62<138.566 318.566 431.566 490.499> 623 20G<486.066 494.066>
LayerCount: 2
Back
Fore
SplineSet
489.56640625 643 m 0
 498.56640625 643 508.56640625 629 506.56640625 621 c 2
 431.56640625 236 l 25
 486.56640625 236 l 18
 492.56640625 236 494.56640625 222 492.56640625 208 c 0
 491.56640625 194 484.56640625 180 480.56640625 174 c 1
 419.56640625 174 l 25
 385.56640625 0 l 1
 385.56640625 0 364.56640625 -6 328.56640625 -6 c 0
 306.56640625 -6 284.56640625 -3 285.56640625 4 c 2
 318.56640625 174 l 25
 60.56640625 174 l 1
 54.56640625 178 52.56640625 190 53.56640625 196 c 1
 458.56640625 622 l 2
 466.56640625 631 482.56640625 643 489.56640625 643 c 0
380.56640625 494 m 25
 138.56640625 236 l 25
 330.56640625 236 l 25
 380.56640625 494 l 25
EndSplineSet
Validated: 33
Substitution2: "'pnum' Proportional Numbers lookup 12-1" four.prop
EndChar

StartChar: five
Encoding: 53 53 20
Width: 468
Flags: W
HStem: -5 39<177.21 278.237> 332 74<211.215 317.132> 540 92<245.857 445.964>
VStem: 356.139 106<154.499 292.263>
LayerCount: 2
Back
Fore
SplineSet
462.138671875 247 m 0
 462.138671875 93 292.138671875 -5 191.138671875 -5 c 0
 133.138671875 -5 94.138671875 8 71.138671875 24 c 1
 67.138671875 29 62.138671875 43 62.138671875 54 c 0
 62.138671875 96 90.138671875 116 112.138671875 116 c 0
 146.138671875 116 152.138671875 86 164.138671875 68 c 0
 178.138671875 46 203.138671875 34 228.138671875 34 c 0
 285.138671875 34 356.138671875 105 356.138671875 218 c 0
 356.138671875 273 330.138671875 332 242.138671875 332 c 3
 222.138671875 332 187.138671875 325 168.138671875 319 c 1
 165.138671875 321 158.138671875 328 154.138671875 333 c 1
 194.138671875 467 222.138671875 589 234.138671875 632 c 1
 312.138671875 633 436.138671875 635 478.138671875 645 c 1
 484.138671875 641 488.138671875 635 488.138671875 631 c 1
 488.138671875 613 458.138671875 564 448.138671875 550 c 1
 403.138671875 540 268.138671875 542 252.138671875 540 c 1
 248.138671875 530 224.138671875 434 210.138671875 384 c 1
 234.138671875 397 287.138671875 406 305.138671875 406 c 0
 393.138671875 406 462.138671875 336 462.138671875 247 c 0
EndSplineSet
Validated: 1
Substitution2: "'pnum' Proportional Numbers lookup 12-1" five.prop
EndChar

StartChar: six
Encoding: 54 54 21
Width: 468
VWidth: 0
Flags: W
HStem: -6 34<213.098 286.021> 328 50<275.606 381.406> 618 24<485.834 506.705>
VStem: 78.9062 106<79.9802 292.413> 363.906 106<135.929 305.034>
LayerCount: 2
Back
Fore
SplineSet
342.90625 378 m 0
 419.90625 378 469.90625 313 469.90625 229 c 0
 469.90625 106 354.90625 -6 236.90625 -6 c 0
 152.90625 -6 78.90625 63 78.90625 176 c 0
 78.90625 261 116.90625 369 204.90625 466 c 0
 266.90625 536 379.90625 613 501.90625 642 c 1
 507.90625 640 508.90625 624 507.90625 618 c 1
 388.90625 568 289.90625 491 233.90625 363 c 0
 195.90625 279 184.90625 208 184.90625 146 c 0
 184.90625 81 204.90625 28 246.90625 28 c 0
 301.90625 28 363.90625 128 363.90625 226 c 0
 363.90625 282 344.90625 328 289.90625 328 c 0
 273.90625 328 262.90625 323 254.90625 319 c 1
 251.90625 321 248.90625 326 248.90625 332 c 3
 248.90625 344 306.90625 378 342.90625 378 c 0
EndSplineSet
Validated: 1
Substitution2: "'pnum' Proportional Numbers lookup 12-1" six.prop
EndChar

StartChar: seven
Encoding: 55 55 22
Width: 468
Flags: W
HStem: -8 21G<140.339 147.339> 542 93<194.731 464.339>
LayerCount: 2
Back
Fore
SplineSet
107.338867188 14 m 1
 198.338867188 127 403.338867188 446 464.338867188 542 c 1
 241.338867188 542 l 2
 199.338867188 542 173.338867188 496 155.338867188 461 c 0
 153.338867188 458 151.338867188 457 145.338867188 456 c 0
 137.338867188 455 128.338867188 460 124.338867188 463 c 1
 143.338867188 507 189.338867188 602 201.338867188 635 c 1
 478.338867188 635 l 2
 506.338867188 635 545.338867188 638 551.338867188 638 c 0
 557.338867188 638 556.338867188 631 555.338867188 626 c 0
 553.338867188 615 537.338867188 592 517.338867188 562 c 2
 157.338867188 -6 l 1
 154.338867188 -8 149.338867188 -8 145.338867188 -8 c 0
 135.338867188 -8 104.338867188 0 107.338867188 14 c 1
EndSplineSet
Validated: 33
Substitution2: "'pnum' Proportional Numbers lookup 12-1" seven.prop
EndChar

StartChar: eight
Encoding: 56 56 23
Width: 468
Flags: W
HStem: -8 36<202.567 298.059> 608 34<307.224 383.135>
LayerCount: 2
Back
Fore
SplineSet
358.5859375 642 m 0
 440.5859375 642 516.5859375 597 496.5859375 492 c 0
 482.5859375 422 415.5859375 376 362.5859375 350 c 1
 358.5859375 348 359.5859375 346 361.5859375 344 c 0
 415.5859375 301 467.5859375 234 453.5859375 164 c 0
 431.5859375 56 325.5859375 -8 230.5859375 -8 c 0
 128.5859375 -8 58.5859375 64 77.5859375 161 c 0
 94.5859375 249 181.5859375 290 227.5859375 314 c 0
 230.5859375 316 231.5859375 319 229.5859375 320 c 0
 195.5859375 348 152.5859375 408 166.5859375 482 c 0
 183.5859375 567 266.5859375 642 358.5859375 642 c 0
347.5859375 608 m 0
 307.5859375 608 268.5859375 564 261.5859375 500 c 0
 255.5859375 440 296.5859375 400 328.5859375 374 c 0
 330.5859375 373 331.5859375 372 333.5859375 372 c 0
 335.5859375 372 336.5859375 372 338.5859375 374 c 0
 372.5859375 406 399.5859375 448 405.5859375 502 c 0
 411.5859375 548 395.5859375 608 347.5859375 608 c 0
244.5859375 28 m 0
 297.5859375 28 338.5859375 73 348.5859375 129 c 0
 363.5859375 215 271.5859375 282 261.5859375 290 c 0
 259.5859375 291 258.5859375 291 256.5859375 291 c 0
 255.5859375 291 254.5859375 291 253.5859375 290 c 0
 214.5859375 256 190.5859375 216 180.5859375 154 c 0
 166.5859375 74 199.5859375 28 244.5859375 28 c 0
EndSplineSet
Validated: 33
Substitution2: "'pnum' Proportional Numbers lookup 12-1" eight.prop
EndChar

StartChar: nine
Encoding: 57 57 24
Width: 468
VWidth: 0
Flags: W
HStem: -6 24<84.5586 105.43> 260 50<209.857 316.405> 608 34<305.27 378.166>
VStem: 122.357 105<332.209 500.484> 406.357 106<344.481 557.561>
LayerCount: 2
Back
Fore
SplineSet
248.357421875 260 m 0
 171.357421875 260 122.357421875 324 122.357421875 408 c 0
 122.357421875 531 236.357421875 642 354.357421875 642 c 0
 438.357421875 642 512.357421875 574 512.357421875 461 c 0
 512.357421875 376 475.357421875 268 387.357421875 171 c 0
 325.357421875 101 211.357421875 23 89.357421875 -6 c 1
 83.357421875 -4 82.357421875 12 83.357421875 18 c 1
 202.357421875 68 301.357421875 146 357.357421875 274 c 0
 395.357421875 358 406.357421875 428 406.357421875 490 c 0
 406.357421875 555 386.357421875 608 344.357421875 608 c 0
 289.357421875 608 227.357421875 508 227.357421875 410 c 0
 227.357421875 354 246.357421875 310 301.357421875 310 c 0
 317.357421875 310 329.357421875 314 337.357421875 318 c 1
 340.357421875 316 342.357421875 311 342.357421875 305 c 3
 342.357421875 293 284.357421875 260 248.357421875 260 c 0
EndSplineSet
Validated: 1
Substitution2: "'pnum' Proportional Numbers lookup 12-1" nine.prop
EndChar

StartChar: colon
Encoding: 58 58 25
Width: 240
VWidth: 512
Flags: W
HStem: -12 129<41.5189 114.133> 312 129<104.519 176.014>
VStem: 18 120<11.9506 93.6884> 81 120<336.59 418.327>
LayerCount: 2
Back
Fore
SplineSet
81 372 m 0xd0
 85 410 119 441 153 441 c 1
 183 441 205 416 201 384 c 0
 197 346 163 312 129 312 c 1
 98 312 77 340 81 372 c 0xd0
18 47 m 0xe0
 22 85 56 117 90 117 c 1
 120 117 142 91 138 59 c 0
 134 21 100 -12 66 -12 c 1
 34 -12 14 15 18 47 c 0xe0
EndSplineSet
Validated: 33
EndChar

StartChar: semicolon
Encoding: 59 59 26
Width: 237
VWidth: 512
Flags: W
HStem: 312 129<107.519 179.014>
VStem: 26 106<6.81522 113.904> 84 120<336.59 418.327>
LayerCount: 2
Back
Fore
SplineSet
-19 -112 m 1xc0
 -10 -106 51 -54 51 -9 c 0
 51 20 26 23 26 62 c 0
 26 110 64 132 97 132 c 0
 107 132 126 125 130 119 c 1
 132 114 132 105 132 98 c 0
 132 60 122 12 101 -24 c 0
 73 -72 41 -101 -4 -131 c 1
 -10 -130 -19 -121 -19 -112 c 1xc0
204 384 m 0xa0
 200 346 166 312 132 312 c 1xc0
 100 312 80 340 84 372 c 0
 88 410 122 441 156 441 c 1
 186 441 208 416 204 384 c 0xa0
EndSplineSet
Validated: 33
EndChar

StartChar: less
Encoding: 60 60 27
Width: 454
VWidth: 512
Flags: W
LayerCount: 2
Back
Fore
SplineSet
94 209 m 1
 364 46 l 1
 364 46 365 44 365 40 c 0
 365 30 346 -14 340 -14 c 0
 339 -14 338 -14 336 -13 c 2
 24 177 l 2
 15 183 12 196 14 210 c 0
 15 222 22 234 36 241 c 2
 419 428 l 2
 421 429 422 430 423 430 c 0
 426 430 429 416 429 390 c 0
 429 382 426 370 424 369 c 1
 94 209 l 1
EndSplineSet
Validated: 33
EndChar

StartChar: equal
Encoding: 61 61 28
Width: 551
VWidth: 512
Flags: W
HStem: 140 54<47.75 462.844> 282 54<75.8738 480.337>
LayerCount: 2
Back
Fore
SplineSet
47 140 m 1
 45 140 42 142 42 148 c 0
 42 156 51 188 61 194 c 1
 464 194 l 2
 468 194 469 192 469 188 c 0
 469 179 464 160 454 144 c 1
 452 141 456 146 450 140 c 1
 47 140 l 1
74 282 m 1
 72 282 70 282 70 288 c 0
 70 295 78 330 88 336 c 1
 492 336 l 2
 496 336 496 332 496 328 c 0
 496 319 491 300 481 284 c 1
 479 281 483 288 477 282 c 1
 74 282 l 1
EndSplineSet
Validated: 1
EndChar

StartChar: greater
Encoding: 62 62 29
Width: 455
VWidth: 512
Flags: W
LayerCount: 2
Back
Fore
SplineSet
339 209 m 1
 70 369 l 1
 70 369 68 372 69 376 c 0
 76 398 91 430 95 430 c 0
 96 430 97 429 99 428 c 2
 408 241 l 2
 416 237 421 229 420 219 c 0
 418 209 415 187 396 177 c 2
 11 -13 l 2
 9 -14 7 -15 5 -15 c 0
 -1 -15 0 21 0 39 c 0
 0 44 5 46 5 46 c 1
 339 209 l 1
EndSplineSet
Validated: 33
EndChar

StartChar: question
Encoding: 63 63 30
Width: 345
VWidth: 512
Flags: W
HStem: -12 127<62.0423 133.92> 578 61<201.142 278.497>
VStem: 39 118<11.5924 92.3273> 71 81<240.459 306.939> 288 62<477.001 569.454>
LayerCount: 2
Back
Fore
SplineSet
39 46 m 0xe8
 43 84 76 115 110 115 c 1
 140 115 161 90 157 58 c 0
 153 21 120 -12 86 -12 c 1
 55 -12 35 14 39 46 c 0xe8
189 206 m 1
 189 201 182 191 177 188 c 1
 153 188 71 236 71 292 c 3xd8
 71 346 110 371 136 389 c 0
 173 414 210 432 249 462 c 0
 269 477 288 497 288 528 c 3
 288 560 271 578 243 578 c 0
 206 578 191 529 157 529 c 0xe8
 119 529 110 570 118 598 c 1
 126 613 161 639 203 639 c 0
 282 639 350 569 350 501 c 0
 350 453 338 416 284 378 c 0
 264 362 227 345 188 318 c 0
 165 302 152 286 152 264 c 3xd8
 152 235 179 212 189 206 c 1
EndSplineSet
Validated: 33
EndChar

StartChar: at
Encoding: 64 64 31
Width: 760
VWidth: 512
Flags: W
HStem: -12 62<457.5 557.047> -6 73<240.5 328.508> 391 50<385.12 494> 538 41<343.409 544.656>
VStem: 29 48<28.52 268.609> 180 100<74.7891 226.448> 672 54<175.191 410.193>
LayerCount: 2
Back
Fore
SplineSet
504 118 m 2x7e
 494 70 506 50 532 50 c 3
 592 50 672 163 672 284 c 0
 672 436 599 538 440 538 c 3
 286 538 77 381 77 141 c 0
 77 66 104 -13 168 -69 c 0
 184 -82 202 -92 210 -96 c 1
 204 -101 193 -104 177 -104 c 0
 161 -104 128 -85 110 -68 c 0
 60 -19 29 54 29 136 c 0
 29 388 244 579 452 579 c 3
 637 579 726 445 726 298 c 0
 726 84 555 -12 482 -12 c 0xbe
 433 -12 406 18 406 58 c 0
 406 64 407 74 409 88 c 0
 411 102 413 104 414 110 c 1
 393 74 329 -6 270 -6 c 1
 211 -6 180 53 180 122 c 1
 180 284 344 441 476 441 c 0
 512 441 546 433 566 426 c 1
 566 426 504 118 504 118 c 2x7e
427 391 m 1
 355 391 280 267 280 151 c 0
 280 96 295 67 323 67 c 1x7e
 365 67 425 179 445 277 c 2
 445 277 465 378 465 378 c 1
 457 387 441 391 427 391 c 1
EndSplineSet
Validated: 33
EndChar

StartChar: A
Encoding: 65 65 32
Width: 601
Flags: W
HStem: -4 34<-57.1202 -0.419678 82.692 136.891 322.13 382.424 514.183 559.783> 238 45<197 357.999> 642 20G<384.5 392>
LayerCount: 2
Back
Fore
SplineSet
63 136 m 2
 348 629 l 2
 356 643 380 662 389 662 c 0
 395 662 398 660 400 658 c 1
 490 137 l 1
 496 103 499 80 501 68 c 0
 507 36 555 30 562 30 c 1
 565 22 560 0 557 -4 c 1
 520 -2 486 3 445 3 c 0
 402 3 358 -2 320 -4 c 1
 316 1 321 28 327 30 c 1
 341 30 371 35 383 45 c 0
 388 49 391 54 392 60 c 0
 396 80 367 234 367 234 c 1
 367 234 365 238 362 238 c 0
 332 240 294 238 271 238 c 0
 233 238 211 238 173 236 c 0
 171 236 166 233 166 232 c 1
 166 232 128 168 108 130 c 0
 92 100 80 70 78 60 c 0
 73 35 132 30 139 30 c 1
 142 25 138 1 134 -4 c 1
 100 -1 81 3 40 3 c 0
 -3 3 -22 -1 -60 -4 c 1
 -62 0 -60 19 -55 28 c 1
 -44 28 -3 40 9 54 c 0
 31 81 45 104 63 136 c 2
321 506 m 1
 197 290 l 1
 197 290 197 286 199 286 c 0
 220 284 256 283 277 283 c 0
 306 283 325 284 354 286 c 0
 356 286 358 291 358 291 c 1
 321 506 l 1
EndSplineSet
Validated: 33
EndChar

StartChar: B
Encoding: 66 66 33
Width: 578
Flags: W
HStem: -3 38<-1.39966 68.5293 185.388 319.747> 333 38<240 359.101> 622 38<118.109 175.674 290.297 396.188>
LayerCount: 2
Back
Fore
SplineSet
240 371 m 1
 311 371 l 2
 367 371 410 421 423 487 c 0
 441 579 405 622 339 622 c 0
 323 622 296 621 290 611 c 0
 283 599 279 573 273 543 c 2
 240 371 l 1
232 333 m 1
 189 114 l 2
 187 104 180 60 185 50 c 0
 193 36 219 35 248 35 c 0
 304 35 376 64 398 176 c 0
 413 251 400 333 284 333 c 2
 232 333 l 1
380 660 m 0
 466 660 560 621 538 506 c 0
 522 428 445 380 414 368 c 0
 409 366 408 363 410 362 c 1
 455 358 541 298 521 196 c 0
 509 134 461 72 405 38 c 0
 347 2 278 -3 208 -3 c 0
 188 -3 11 -3 -7 -3 c 1
 -10 3 -5 24 -0 30 c 1
 12 30 59 34 65 46 c 0
 75 64 80 94 87 130 c 2
 164 528 l 2
 171 564 178 594 175 612 c 0
 173 624 128 628 116 628 c 1
 113 634 116 655 122 661 c 1
 162 659 205 657 243 657 c 0
 281 657 326 660 380 660 c 0
EndSplineSet
Validated: 33
EndChar

StartChar: C
Encoding: 67 67 34
Width: 645
Flags: W
HStem: -8 40<283.564 446.493> 628 39<354.798 515.442>
VStem: 55 120<161.251 402.008> 588 32<483.003 550.737>
LayerCount: 2
Back
Fore
SplineSet
439 628 m 0
 295 628 175 489 175 275 c 0
 175 169 221 32 361 32 c 0
 413 32 458 52 490 79 c 0
 530 112 562 169 571 188 c 1
 585 188 597 182 600 178 c 1
 597 162 544 44 530 34 c 1
 475 4 419 -8 333 -8 c 0
 155 -8 55 129 55 270 c 0
 55 521 262 669 454 667 c 0
 513 666 581 651 632 639 c 1
 631 615 622 515 620 494 c 0
 619 487 611 483 604 483 c 1
 600 483 592 483 588 489 c 1
 590 549 540 628 439 628 c 0
EndSplineSet
Validated: 33
EndChar

StartChar: D
Encoding: 68 68 35
Width: 701
Flags: W
HStem: -3 38<-1.39966 68.5293 185.206 357.083> 622 37<118.109 175.674 291.303 439.566>
LayerCount: 2
Back
Fore
SplineSet
273 543 m 2
 193 130 l 2
 191 120 181 67 185 54 c 0
 189 42 219 35 248 35 c 0
 396 35 505 119 543 314 c 0
 584 525 495 622 349 622 c 0
 333 622 297 620 291 610 c 0
 283 596 279 572 273 543 c 2
382 659 m 0
 597 659 703 521 665 326 c 0
 626 124 480 -3 244 -3 c 1
 224 -3 11 -3 -7 -3 c 1
 -10 3 -5 24 -0 30 c 1
 12 30 59 34 65 46 c 0
 75 64 80 94 87 130 c 2
 164 528 l 2
 171 564 178 594 175 612 c 0
 173 624 128 628 116 628 c 1
 113 634 116 655 122 661 c 1
 162 659 205 657 243 657 c 0
 281 657 334 659 382 659 c 0
EndSplineSet
Validated: 33
EndChar

StartChar: E
Encoding: 69 69 36
Width: 565
Flags: W
HStem: -1 41<185.293 391.733> -1 31<-3.89062 65.6883> 311 42<238.91 378.511> 620 44<336.357 485.921> 620 36<291.302 448.804> 628 33<118.953 174.999>
VStem: 396 29<232.106 273.831> 513 33<517.256 584.258>
LayerCount: 2
Back
Fore
SplineSet
244 656 m 0x2b
 307 656 468 664 546 664 c 1
 543 614 546 567 546 522 c 1
 543 519 532 517 525 517 c 0
 518 517 513 519 513 524 c 0
 506 592 480 620 427 620 c 2
 427 620 348 620 348 620 c 1
 332 620 297 619 291 609 c 0
 283 595 280 571 274 543 c 2
 274 543 238 362 238 362 c 2
 237 356 257 353 277 353 c 2
 277 353 326 353 326 353 c 2
 398 353 404 362 432 424 c 0
 434 429 439 432 446 432 c 0
 453 432 459 429 461 426 c 1
 461 426 425 236 425 236 c 1
 423 234 415 232 408 232 c 0
 401 232 396 235 396 240 c 0
 394 292 387 299 379 304 c 0
 369 310 331 311 296 311 c 0
 270 311 228 310 226 300 c 2
 226 300 193 128 193 128 c 2
 191 118 181 66 185 54 c 0
 191 42 213 40 245 40 c 1
 245 40 298 40 298 40 c 2xb3
 333 40 378 49 406 68 c 0
 428 84 454 117 479 166 c 0
 481 170 487 172 494 172 c 0
 503 172 516 169 518 166 c 1
 490 112 450 41 435 -3 c 1
 372 -3 239 -1 114 -1 c 0
 60 -1 18 -3 -6 -3 c 1
 -9 3 -6 24 0 30 c 1
 12 30 60 34 66 46 c 0
 76 64 81 94 88 130 c 2
 88 130 165 528 165 528 c 2
 172 564 178 594 175 612 c 0
 173 624 128 628 116 628 c 1
 113 634 117 655 123 661 c 1x67
 163 659 206 656 244 656 c 0x2b
EndSplineSet
Validated: 33
EndChar

StartChar: F
Encoding: 70 70 37
Width: 517
Flags: W
HStem: -4 33<-3.625 64.689 183.131 247.047> 309 42<237.91 377.511> 620 44<335.357 484.921> 620 36<286.899 447.804> 628 33<118.953 174.999>
VStem: 395 29<230.106 271.831> 512 33<517.256 584.258>
LayerCount: 2
Back
Fore
SplineSet
243 656 m 0xd6
 306 656 467 664 545 664 c 1
 542 614 545 567 545 522 c 1
 542 519 531 517 524 517 c 0
 517 517 512 519 512 524 c 0
 505 592 479 620 426 620 c 2
 426 620 348 620 348 620 c 1xe6
 332 620 296 619 290 609 c 0
 282 595 279 571 273 543 c 2
 273 543 237 360 237 360 c 2
 236 354 256 351 276 351 c 2
 276 351 325 351 325 351 c 2
 397 351 403 360 431 422 c 0
 433 427 438 430 445 430 c 0
 452 430 458 427 460 424 c 1
 460 424 424 234 424 234 c 1
 422 232 414 230 407 230 c 0
 400 230 395 233 395 238 c 0
 393 290 386 297 378 302 c 0
 368 308 330 309 295 309 c 0
 269 309 227 308 225 298 c 2
 225 298 193 130 193 130 c 2
 186 94 180 64 183 46 c 0
 185 34 238 29 250 29 c 1
 253 23 249 2 243 -4 c 1
 207 -1 153 2 115 2 c 0
 74 2 30 -2 -7 -4 c 1
 -10 2 -5 23 -0 29 c 1
 12 29 59 34 65 46 c 0
 75 64 80 94 87 130 c 2
 87 130 165 528 165 528 c 2
 172 564 178 594 175 612 c 0
 173 624 128 628 116 628 c 1
 113 634 117 655 123 661 c 1xce
 163 659 205 656 243 656 c 0xd6
EndSplineSet
Validated: 33
EndChar

StartChar: G
Encoding: 71 71 38
Width: 682
Flags: W
HStem: -8 40<282.049 439.375> 270 33<421.969 481.127 602.397 660.799> 628 39<363.748 522.801>
VStem: 55 120<161.251 402.008> 484 81<68 248> 588 32<483.003 556.501>
LayerCount: 2
Back
Fore
SplineSet
454 667 m 0
 513 666 581 651 632 639 c 1
 631 615 622 515 620 494 c 0
 619 487 611 483 604 483 c 1
 600 483 592 483 588 489 c 1
 590 549 549 628 449 628 c 0
 305 628 175 489 175 275 c 0
 175 169 222 32 358 32 c 0
 399 32 426 42 444 54 c 0
 449 57 452 62 454 70 c 0
 458 91 472 162 476 186 c 1
 481 211 486 229 484 248 c 0
 482 266 431 270 420 270 c 1
 416 272 420 298 426 303 c 1
 468 301 513 297 555 297 c 0
 593 297 626 301 664 303 c 1
 666 294 661 272 657 270 c 1
 648 270 610 264 602 255 c 0
 595 245 587 220 582 196 c 1
 578 178 568 118 564 101 c 1
 561 86 565 76 565 68 c 0
 564 59 552 49 536 41 c 0
 488 17 434 -8 330 -8 c 0
 156 -8 55 129 55 270 c 0
 55 521 262 669 454 667 c 0
EndSplineSet
Validated: 33
EndChar

StartChar: H
Encoding: 72 72 39
Width: 696
Flags: W
HStem: -4 33<-3.625 64.689 183.124 238.891 358.969 428.688 546.125 602.047> 320 45<240 486> 629 33<118.953 174.875 293.311 362.031 482.109 537.876 656.311 725.188>
LayerCount: 2
Back
Fore
SplineSet
243 656 m 0
 280 656 326 659 364 662 c 1
 368 656 364 635 358 629 c 1
 346 629 299 624 293 612 c 0
 283 594 277 564 270 528 c 2
 239 368 l 1
 239 366 240 365 240 365 c 1
 280 364 322 362 369 362 c 0
 408 362 457 364 495 365 c 1
 495 365 498 367 498 369 c 1
 528 528 l 2
 535 564 541 594 538 612 c 0
 536 624 492 629 480 629 c 1
 477 635 480 656 486 662 c 1
 523 659 569 656 607 656 c 0
 645 656 690 659 728 662 c 1
 732 656 727 635 721 629 c 1
 709 629 662 624 656 612 c 0
 646 594 641 564 634 528 c 2
 557 130 l 2
 550 94 543 64 546 46 c 0
 548 34 593 29 605 29 c 1
 608 23 604 2 598 -4 c 1
 562 -1 516 2 478 2 c 0
 440 2 395 -1 357 -4 c 1
 353 2 357 23 363 29 c 1
 375 29 423 34 429 46 c 0
 439 64 444 94 451 130 c 2
 487 314 l 1
 487 316 486 318 486 318 c 1
 447 319 403 320 361 320 c 0
 245 320 234 318 230 316 c 1
 229 315 228 313 228 313 c 1
 193 130 l 2
 186 94 180 64 183 46 c 0
 185 34 229 29 241 29 c 1
 244 23 241 2 235 -4 c 1
 199 -1 153 2 115 2 c 0
 78 2 31 -1 -7 -4 c 1
 -10 2 -5 23 -0 29 c 1
 12 29 59 34 65 46 c 0
 75 64 80 94 87 130 c 2
 165 528 l 2
 172 564 178 594 175 612 c 0
 173 624 128 629 116 629 c 1
 113 635 117 656 123 662 c 1
 160 659 205 656 243 656 c 0
EndSplineSet
Validated: 33
EndChar

StartChar: I
Encoding: 73 73 40
Width: 333
Flags: W
HStem: -4 33<-3.625 64.689 183.124 238.891> 629 33<118.953 174.875 293.311 362.031>
LayerCount: 2
Back
Fore
SplineSet
243 656 m 0
 280 656 326 659 364 662 c 1
 368 656 364 635 358 629 c 1
 346 629 299 624 293 612 c 0
 283 594 277 564 270 528 c 2
 193 130 l 2
 186 94 180 64 183 46 c 0
 185 34 229 29 241 29 c 1
 244 23 241 2 235 -4 c 1
 199 -1 153 2 115 2 c 0
 78 2 31 -1 -7 -4 c 1
 -10 2 -5 23 -0 29 c 1
 12 29 59 34 65 46 c 0
 75 64 80 94 87 130 c 2
 165 528 l 2
 172 564 178 594 175 612 c 0
 173 624 128 629 116 629 c 1
 113 635 117 656 123 662 c 1
 160 659 205 656 243 656 c 0
EndSplineSet
Validated: 33
EndChar

StartChar: J
Encoding: 74 74 41
Width: 317
Flags: W
HStem: -226 22<-108 -88.4419> 628 32<110.751 162.537 289.934 350.008>
LayerCount: 2
Back
Fore
SplineSet
234 654 m 0
 274 654 314 657 352 660 c 1
 354 657 352 635 347 628 c 1
 337 628 292 620 286 608 c 0
 274 584 266 550 260 514 c 2
 187 130 l 2
 140 -116 -32 -217 -102 -226 c 1
 -106 -223 -109 -215 -109 -210 c 0
 -109 -208 -108 -204 -108 -204 c 1
 0 -158 48 -57 82 122 c 2
 156 512 l 2
 163 551 168 578 166 606 c 0
 165 621 119 628 107 628 c 1
 105 632 110 655 114 660 c 1
 152 657 193 654 234 654 c 0
EndSplineSet
Validated: 33
EndChar

StartChar: K
Encoding: 75 75 42
Width: 650
Flags: W
HStem: -4 33<-3.625 64.689 183.124 238.891 560.52 612.922> 629 33<118.953 174.875 292.312 362.031 472.037 516.496 619.979 692.127>
LayerCount: 2
Back
Fore
SplineSet
501 106 m 0
 549 37 588 30 616 28 c 1
 620 22 612 0 611 -2 c 1
 567 -3 541 -3 513 1 c 0
 457 3 425 22 391 72 c 0
 372 100 302 209 244 303 c 0
 242 306 239 306 236 306 c 0
 232 306 228 304 226 302 c 1
 193 130 l 2
 186 94 180 64 183 46 c 0
 185 34 229 29 241 29 c 1
 244 23 241 2 235 -4 c 1
 199 -1 153 2 115 2 c 0
 78 2 31 -1 -7 -4 c 1
 -10 2 -5 23 -0 29 c 1
 12 29 59 34 65 46 c 0
 75 64 80 94 87 130 c 2
 164 528 l 2
 171 564 178 594 175 612 c 0
 173 624 128 629 116 629 c 1
 113 635 117 656 123 662 c 1
 160 659 205 656 243 656 c 0
 280 656 326 659 364 662 c 1
 368 656 364 635 358 629 c 1
 346 629 298 624 292 612 c 0
 282 594 277 564 270 528 c 2
 233 338 l 1
 268 362 316 402 352 434 c 0
 430 503 446 515 499 573 c 0
 509 583 515 597 517 605 c 0
 521 628 479 629 469 629 c 1
 467 636 470 653 475 662 c 1
 509 660 553 656 587 656 c 0
 628 656 660 659 696 662 c 1
 697 656 694 633 688 630 c 1
 679 629 621 625 582 589 c 1
 533 542 432 453 341 371 c 0
 334 365 334 360 337 355 c 0
 398 256 446 182 501 106 c 0
EndSplineSet
Validated: 33
EndChar

StartChar: L
Encoding: 76 76 43
Width: 538
Flags: W
HStem: -1 40<184.293 389.585> -1 31<-3.625 64.689> 629 33<118.109 174.875 292.311 361.188>
LayerCount: 2
Back
Fore
SplineSet
192 130 m 2x60
 190 120 180 66 184 54 c 0
 190 42 212 39 244 39 c 1
 244 39 302 39 302 39 c 2xa0
 337 39 377 47 405 68 c 0
 431 87 453 117 478 166 c 0
 480 170 486 172 493 172 c 0
 502 172 515 169 517 166 c 1
 489 112 449 41 434 -3 c 1
 370 -3 240 -1 115 -1 c 0
 60 -1 18 -3 -7 -3 c 1
 -10 3 -5 24 -0 30 c 1
 12 30 59 34 65 46 c 0
 75 64 80 94 87 130 c 2
 87 130 164 528 164 528 c 2
 171 564 178 594 175 612 c 0
 173 624 128 629 116 629 c 1
 113 635 116 656 122 662 c 1
 159 659 205 656 243 656 c 0
 281 656 326 659 364 662 c 1
 368 656 363 635 357 629 c 1
 345 629 298 624 292 612 c 0
 282 594 277 564 270 528 c 2
 270 528 192 130 192 130 c 2x60
EndSplineSet
Validated: 33
EndChar

StartChar: M
Encoding: 77 77 44
Width: 855
Flags: W
HStem: -4 34<-23.1858 50.776 129.959 194.75 522.438 590.415 713.001 769.727> 629 33<135.077 186.607 809.445 871.123>
LayerCount: 2
Back
Fore
SplineSet
235 656 m 0
 267 656 292 660 322 662 c 1
 332 598 384 366 418 192 c 1
 418 191 420 190 421 190 c 0
 422 190 425 193 426 195 c 2
 426 195 588 484 620 544 c 1
 644 588 678 660 678 660 c 1
 696 658 746 656 764 656 c 0
 796 656 841 660 872 662 c 1
 874 658 872 632 869 628 c 1
 859 628 818 622 809 614 c 1
 801 606 795 594 792 574 c 1
 786 539 730 210 720 146 c 1
 714 107 709 72 713 47 c 0
 715 33 764 30 771 30 c 1
 773 21 771 2 767 -4 c 1
 730 -2 691 3 650 3 c 0
 607 3 562 -2 519 -4 c 1
 517 -1 521 22 525 30 c 1
 536 30 579 34 591 44 c 0
 597 50 604 71 606 83 c 0
 608 95 613 126 616 142 c 2
 681 531 l 2
 682 535 685 554 678 554 c 0
 676 554 675 552 672 547 c 2
 394 44 l 2
 389 35 362 -1 348 -2 c 0
 345 -2 343 -1 340 0 c 1
 230 554 l 1
 184 341 150 188 131 104 c 0
 128 88 125 62 125 54 c 0
 127 36 190 30 197 30 c 1
 199 24 196 2 192 -4 c 1
 155 -2 128 3 87 3 c 0
 44 3 16 -2 -27 -4 c 1
 -29 0 -26 19 -21 28 c 1
 -10 28 48 36 61 56 c 0
 69 68 82 107 86 125 c 0
 128 303 181 544 188 576 c 0
 190 586 192 599 190 608 c 1
 187 620 145 629 131 629 c 1
 128 633 136 660 138 662 c 1
 180 660 192 656 235 656 c 0
EndSplineSet
Validated: 33
EndChar

StartChar: N
Encoding: 78 78 45
Width: 724
Flags: W
HStem: -5 21G<537 542.5> -4 33<-10.6848 61.2905 147.954 207.609> 630 33<113.358 171.954 550.56 613.42 691.896 769.149>
LayerCount: 2
Back
Fore
SplineSet
217 658 m 0x60
 247 658 282 660 304 662 c 1
 330 583 468 361 547 207 c 1
 549 211 552 232 554 239 c 1
 554 239 607 510 607 510 c 1
 614 547 622 593 617 609 c 0
 613 623 561 630 548 630 c 1
 546 634 549 655 553 663 c 1
 593 661 620 656 662 656 c 0
 704 656 733 661 773 663 c 1
 775 657 773 640 765 630 c 1
 756 630 696 624 686 608 c 0
 677 594 665 549 658 512 c 2
 658 512 586 139 586 139 c 2
 575 81 570 51 562 -1 c 1
 559 -4 544 -5 541 -5 c 0xa0
 533 -5 523 4 516 18 c 2
 516 18 226 544 226 544 c 1
 226 544 147 136 147 136 c 2
 140 100 136 68 140 53 c 0
 144 39 199 30 210 30 c 1
 214 22 208 2 205 -4 c 1
 168 -2 135 3 94 3 c 0
 51 3 28 -2 -15 -4 c 1
 -17 3 -12 23 -8 29 c 1
 3 29 59 37 69 52 c 0
 79 67 89 99 96 137 c 1
 108 203 160 466 173 531 c 1
 182 577 181 593 175 610 c 0
 170 622 123 630 112 630 c 1
 108 636 112 658 117 663 c 1
 152 661 180 658 217 658 c 0x60
EndSplineSet
Validated: 33
EndChar

StartChar: O
Encoding: 79 79 46
Width: 707
Flags: W
HStem: -10 40<253.487 400.389> 626 40<335.872 471.667>
VStem: 55 119<153.852 402.8> 556 119<248.095 501.839>
LayerCount: 2
Back
Fore
SplineSet
404 626 m 1
 272 626 174 444 174 256 c 0
 174 141 211 30 327 30 c 1
 471 30 556 230 556 402 c 0
 556 508 520 626 404 626 c 1
420 666 m 0
 581 666 675 530 675 386 c 0
 675 141 486 -10 307 -10 c 0
 156 -10 55 117 55 269 c 0
 55 509 246 666 420 666 c 0
EndSplineSet
Validated: 1
EndChar

StartChar: P
Encoding: 80 80 47
Width: 533
Flags: W
HStem: -4 33<-3.625 64.689 183.124 238.891> 282 36<263.355 348.196> 622 38<118.953 175.754 291.296 396.528>
LayerCount: 2
Back
Fore
SplineSet
549 490 m 0
 537 362 420 282 312 282 c 0
 285 282 269 290 264 296 c 0
 261 299 257 309 257 314 c 0
 257 318 260 322 262 322 c 1
 272 319 280 318 294 318 c 0
 354 318 427 388 433 472 c 0
 441 544 421 622 339 622 c 0
 323 622 297 621 291 611 c 0
 284 599 279 573 273 543 c 2
 193 130 l 2
 186 94 180 64 183 46 c 0
 185 34 229 29 241 29 c 1
 244 23 241 2 235 -4 c 1
 199 -1 153 2 115 2 c 0
 78 2 31 -1 -7 -4 c 1
 -10 2 -5 23 -0 29 c 1
 12 29 59 34 65 46 c 0
 75 64 80 94 87 130 c 2
 165 528 l 2
 172 564 178 594 175 612 c 0
 173 624 128 628 116 628 c 1
 113 634 117 655 123 661 c 1
 163 659 206 657 244 657 c 0
 281 657 328 660 383 660 c 0
 483 660 559 584 549 490 c 0
EndSplineSet
Validated: 33
EndChar

StartChar: Q
Encoding: 81 81 48
Width: 701
Flags: W
HStem: -138 61<497.763 601.125> 627 40<331.839 470.067>
LayerCount: 2
Back
Fore
SplineSet
425 667 m 0
 589 667 691 524 671 360 c 0
 656 176 525 51 395 7 c 1
 475 -39 501 -77 597 -77 c 0
 627 -77 649 -72 656 -70 c 1
 663 -70 671 -74 673 -80 c 1
 639 -100 569 -138 512 -138 c 0
 409 -138 345 -45 228 -4 c 0
 109 38 38 150 54 294 c 0
 72 512 261 667 425 667 c 0
404 627 m 0
 265 627 187 447 174 297 c 0
 159 162 201 30 321 30 c 0
 459 30 539 210 552 360 c 0
 567 495 521 627 404 627 c 0
EndSplineSet
Validated: 33
EndChar

StartChar: R
Encoding: 82 82 49
Width: 613
Flags: W
HStem: -4 33<-3.625 64.689 183.124 238.891 541.75 596.177> 300 35<233 277.976> 622 38<118.953 175.754 291.297 396.929>
LayerCount: 2
Back
Fore
SplineSet
245 657 m 0
 282 657 328 660 383 660 c 0
 483 660 564 591 541 472 c 0
 525 392 433 337 379 320 c 1
 419 227 437 186 481 108 c 0
 519 46 566 29 598 27 c 1
 602 21 595 -2 594 -4 c 1
 550 -5 532 -4 504 0 c 0
 422 2 391 44 375 76 c 0
 370 86 297 238 277 287 c 0
 275 291 267 300 257 300 c 1
 226 300 l 1
 193 130 l 2
 186 94 180 64 183 46 c 0
 185 34 229 29 241 29 c 1
 244 23 241 2 235 -4 c 1
 199 -1 153 2 115 2 c 0
 78 2 31 -1 -7 -4 c 1
 -10 2 -5 23 -0 29 c 1
 12 29 59 34 65 46 c 0
 75 64 80 94 87 130 c 2
 165 528 l 2
 172 564 178 594 175 612 c 0
 173 624 128 628 116 628 c 1
 113 634 117 655 123 661 c 1
 163 659 207 657 245 657 c 0
233 335 m 1
 279 335 l 1
 345 335 408 379 426 455 c 0
 444 535 430 622 340 622 c 0
 324 622 297 621 291 611 c 0
 284 599 279 573 273 543 c 2
 233 335 l 1
EndSplineSet
Validated: 33
EndChar

StartChar: S
Encoding: 83 83 50
Width: 486
Flags: W
HStem: -10 40<138.209 266.14> 630 38<251.287 368.547>
VStem: 33 38<109.953 193.675>
LayerCount: 2
Back
Fore
SplineSet
321 668 m 0
 377 668 416 654 468 642 c 1
 462 598 452 531 444 487 c 1
 441 482 436 480 432 480 c 0
 428 480 411 480 409 488 c 1
 413 556 390 630 312 630 c 0
 253 630 211 589 205 530 c 0
 199 458 264 414 315 372 c 0
 368 329 438 290 426 184 c 0
 416 67 294 -10 193 -10 c 0
 134 -10 79 9 33 25 c 1
 26 74 30 165 33 185 c 1
 37 190 54 195 60 195 c 0
 66 195 70 193 71 188 c 1
 70 139 107 30 200 30 c 0
 252 30 309 63 316 138 c 0
 323 210 261 253 216 290 c 0
 157 339 90 379 100 482 c 0
 110 591 227 668 321 668 c 0
EndSplineSet
Validated: 33
EndChar

StartChar: T
Encoding: 84 84 51
Width: 589
Flags: W
HStem: -4 33<123.969 192.689 310.125 366.891> 618 40<157.838 310 416 559.408>
VStem: 588 34<490.927 581.987>
LayerCount: 2
Back
Fore
SplineSet
366 658 m 1
 538 658 l 1
 579 658 604 673 618 676 c 0
 626 678 628 678 632 676 c 1
 630 646 622 524 622 498 c 1
 619 495 606 490 598 490 c 0
 593 490 588 492 588 496 c 1
 590 564 564 618 518 618 c 2
 416 618 l 1
 321 130 l 2
 314 94 307 64 310 46 c 0
 312 34 357 29 369 29 c 1
 372 23 369 2 363 -4 c 1
 327 -1 282 2 244 2 c 0
 206 2 160 -1 122 -4 c 1
 118 2 122 23 128 29 c 1
 140 29 187 34 193 46 c 0
 203 64 209 94 216 130 c 2
 310 618 l 1
 207 618 l 2
 161 618 113 564 89 496 c 0
 87 492 82 490 77 490 c 0
 69 490 58 495 56 498 c 1
 66 524 106 646 115 676 c 1
 120 678 125 678 131 676 c 0
 145 673 161 658 202 658 c 1
 366 658 l 1
EndSplineSet
Validated: 33
EndChar

StartChar: U
Encoding: 85 85 52
Width: 689
Flags: W
HStem: -6 65<250.181 398.522> 629 33<102.109 157.876 276.311 345.031 530.77 588.676 670.748 744.953>
LayerCount: 2
Back
Fore
SplineSet
226 656 m 0
 263 656 309 659 347 662 c 1
 351 656 347 635 341 629 c 1
 329 629 282 624 276 612 c 0
 266 594 260 564 253 528 c 2
 212 313 l 2
 198 240 194 186 209 140 c 0
 228 74 283 59 331 59 c 0
 416 59 507 118 542 292 c 1
 585 512 l 2
 593 552 597 590 592 608 c 0
 588 622 542 630 528 630 c 1
 525 637 530 656 534 662 c 1
 574 659 600 656 642 656 c 0
 684 656 707 660 748 662 c 1
 750 656 748 639 742 630 c 1
 730 630 676 624 666 608 c 0
 655 590 644 553 636 513 c 2
 591 281 l 2
 551 79 425 -6 285 -6 c 0
 211 -6 150 21 117 74 c 0
 88 120 81 186 99 276 c 2
 148 528 l 2
 155 564 161 594 158 612 c 0
 156 624 112 629 100 629 c 1
 97 635 100 656 106 662 c 1
 142 659 188 656 226 656 c 0
EndSplineSet
Validated: 33
EndChar

StartChar: V
Encoding: 86 86 53
Width: 615
Flags: W
HStem: -6 21G<235 244> 629 33<65.7508 110.076 251.484 308.87 493.969 547.681 634.307 696.434>
LayerCount: 2
Back
Fore
SplineSet
188 656 m 0
 228 656 274 659 312 662 c 1
 314 656 310 633 305 629 c 1
 295 629 248 625 243 599 c 0
 240 586 243 558 248 526 c 0
 268 415 313 160 314 160 c 1
 315 160 512 508 520 522 c 1
 533 546 549 578 553 598 c 0
 557 623 504 629 492 629 c 1
 488 633 492 656 498 662 c 1
 536 659 564 656 602 656 c 0
 644 656 662 660 700 662 c 1
 702 656 697 633 693 629 c 1
 683 629 644 625 627 607 c 0
 611 590 586 551 566 515 c 1
 509 415 340 123 286 31 c 1
 273 9 250 -6 238 -6 c 0
 232 -6 232 2 230 8 c 1
 216 97 155 416 139 512 c 1
 133 546 126 578 118 601 c 0
 112 622 74 629 62 629 c 1
 60 633 65 658 69 662 c 1
 108 659 147 656 188 656 c 0
EndSplineSet
Validated: 33
EndChar

StartChar: W
Encoding: 87 87 54
Width: 862
Flags: W
HStem: -6 21G<202 211 531 540> 629 33<67.7695 113.482 252.36 306.87 735.812 789.542 876.637 939.434>
LayerCount: 2
Back
Fore
SplineSet
188 656 m 0
 228 656 272 659 310 662 c 1
 312 656 308 633 303 629 c 1
 293 629 245 624 242 593 c 0
 241 588 242 563 245 534 c 0
 256 430 274 272 280 198 c 1
 280 198 474 595 492 627 c 1
 502 646 520 662 530 662 c 0
 534 662 536 657 538 646 c 1
 553 551 593 279 605 180 c 1
 605 180 758 506 766 522 c 1
 777 547 791 578 795 598 c 0
 799 623 745 629 733 629 c 1
 729 633 734 656 740 662 c 1
 778 659 806 656 844 656 c 0
 886 656 905 660 943 662 c 1
 945 656 940 633 936 629 c 1
 926 629 887 623 869 607 c 0
 853 591 836 566 818 528 c 1
 771 434 626 128 578 36 c 1
 568 14 546 -6 534 -6 c 0
 528 -6 525 2 523 8 c 1
 512 102 468 366 456 463 c 1
 456 463 284 110 247 38 c 1
 240 24 217 -6 205 -6 c 0
 199 -6 196 2 194 8 c 1
 135 521 l 2
 132 556 131 572 121 602 c 0
 114 622 77 629 65 629 c 1
 62 633 67 658 71 662 c 1
 109 659 147 656 188 656 c 0
EndSplineSet
Validated: 33
EndChar

StartChar: X
Encoding: 88 88 55
Width: 639
Flags: W
HStem: -4 33<-54.2492 17.9703 113.664 174.583 327.355 380.558 535.941 592.075> 629 33<97.9229 149.423 299.473 355.084 478.936 533.198 633.883 697.499>
LayerCount: 2
Back
Fore
SplineSet
231 656 m 0
 277 656 321 660 359 662 c 1
 360 656 356 629 351 629 c 1
 338 629 297 622 293 602 c 0
 291 595 293 585 297 576 c 2
 370 403 l 1
 432 471 512 558 532 588 c 0
 534 592 538 597 538 601 c 0
 540 613 519 628 477 628 c 1
 473 628 477 656 482 662 c 1
 517 658 559 656 593 656 c 0
 641 656 675 659 701 662 c 1
 703 656 699 631 693 628 c 1
 686 628 633 626 591 582 c 2
 385 365 l 1
 411 301 505 79 511 71 c 1
 527 39 573 29 595 29 c 1
 597 22 593 1 589 -4 c 1
 552 -2 506 2 468 2 c 0
 416 2 377 -2 325 -4 c 1
 321 1 327 29 332 29 c 0
 342 29 387 40 391 58 c 0
 392 61 391 66 390 69 c 2
 299 286 l 1
 255 236 145 112 118 74 c 0
 114 68 109 62 108 58 c 0
 105 43 136 29 176 29 c 1
 179 23 176 3 172 -4 c 1
 140 -2 93 2 59 2 c 0
 11 2 -20 -2 -58 -4 c 1
 -60 2 -55 24 -51 29 c 1
 -44 29 19 32 55 72 c 2
 281 327 l 1
 192 542 l 2
 180 574 167 601 150 614 c 0
 138 624 106 629 95 629 c 1
 90 629 96 657 102 662 c 1
 147 660 185 656 231 656 c 0
EndSplineSet
Validated: 33
EndChar

StartChar: Y
Encoding: 89 89 56
Width: 566
Flags: W
HStem: -4 33<108.969 177.689 296.124 351.891> 629 33<66.8125 108.681 258.386 316.906 443.109 499.5 579.424 645.423>
LayerCount: 2
Back
Fore
SplineSet
201 130 m 2
 229 276 l 1
 230 283 229 291 227 300 c 1
 221 328 150 542 150 542 c 2
 139 574 132 586 117 604 c 0
 105 622 76 629 64 629 c 1
 60 633 65 656 71 662 c 1
 111 659 152 656 194 656 c 0
 236 656 282 659 320 662 c 1
 322 656 319 633 313 629 c 1
 301 629 256 626 251 600 c 0
 249 594 253 586 256 576 c 2
 330 346 l 1
 364 388 461 530 497 585 c 0
 501 591 503 598 504 604 c 0
 506 616 473 628 441 628 c 1
 438 633 442 657 446 662 c 1
 484 659 506 656 545 656 c 0
 589 656 612 660 650 662 c 1
 652 658 646 632 642 628 c 1
 632 628 585 628 561 596 c 1
 549 582 363 330 344 300 c 1
 338 291 337 282 335 274 c 1
 306 130 l 2
 298 94 293 64 296 46 c 0
 298 34 342 29 354 29 c 1
 357 23 354 2 348 -4 c 1
 312 -1 266 2 228 2 c 0
 190 2 145 -1 107 -4 c 1
 103 2 107 23 113 29 c 1
 125 29 172 34 178 46 c 0
 188 64 193 94 201 130 c 2
EndSplineSet
Validated: 33
EndChar

StartChar: Z
Encoding: 90 90 57
Width: 606
Flags: W
HStem: 0 42<132 427.11> 617 41<214.417 482.003> 646 20G<149 167 580.5 622>
LayerCount: 2
Back
Fore
SplineSet
285 617 m 2xc0
 204 617 162 555 128 483 c 0
 126 480 123 478 116 478 c 0
 107 478 94 481 92 484 c 1
 116 536 139 600 159 666 c 1xa0
 175 662 238 658 257 658 c 2
 257 658 412 658 412 658 c 2
 490 658 541 662 620 668 c 1
 624 667 629 650 627 641 c 1
 624 633 236 161 132 42 c 1
 132 42 355 42 355 42 c 2
 396 42 429 59 455 84 c 0
 480 108 498 136 517 171 c 0
 519 174 524 176 530 176 c 0
 539 176 552 172 554 168 c 1
 522 102 494 46 476 0 c 1
 476 0 2 0 2 0 c 1
 -9 0 -19 13 -15 18 c 2
 -15 18 485 618 485 618 c 1
 485 618 285 617 285 617 c 2xc0
EndSplineSet
Validated: 1
EndChar

StartChar: bracketleft
Encoding: 91 91 58
Width: 263
Flags: W
HStem: 701 48<214.703 322.226>
VStem: 6 338
LayerCount: 2
Back
Fore
SplineSet
167 734 m 2
 168 737 173 749 183 749 c 0
 247 749 314 755 340 757 c 1
 342 755 344 754 344 748 c 0
 344 732 328 719 323 717 c 1
 307 710 258 702 224 701 c 0
 219 701 218 696 217 694 c 1
 70 -52 l 1
 70 -54 70 -59 75 -60 c 0
 103 -64 147 -75 168 -88 c 0
 173 -91 183 -101 183 -109 c 0
 183 -119 177 -124 175 -126 c 1
 141 -120 63 -104 13 -104 c 0
 9 -104 5 -100 6 -94 c 1
 33 45 167 734 167 734 c 2
EndSplineSet
Validated: 1
EndChar

StartChar: backslash
Encoding: 92 92 59
Width: 378
Flags: W
VStem: 119 178
LayerCount: 2
Back
Fore
SplineSet
297 -4 m 2
 300 -20 278 -40 267 -40 c 0
 263 -40 259 -40 255 -37 c 1
 203 269 119 755 119 755 c 1
 121 758 127 762 133 762 c 0
 154 762 170 735 172 725 c 2
 297 -4 l 2
EndSplineSet
Validated: 33
EndChar

StartChar: bracketright
Encoding: 93 93 60
Width: 256
Flags: W
HStem: -92 40<39.0625 62.2129> 696 52<123.002 201.279>
VStem: -59 330
LayerCount: 2
Back
Fore
SplineSet
104 757 m 1
 122 755 193 748 260 748 c 0
 270 748 271 741 271 735 c 0
 271 729 188 312 188 310 c 2
 188 310 110 -92 106 -92 c 1
 74 -96 46 -112 18 -118 c 1
 -21 -118 -59 -120 -59 -116 c 1
 -59 -110 -53 -104 -48 -98 c 0
 -36 -84 -10 -72 6 -66 c 1
 20 -61 38 -54 58 -52 c 1
 61 -52 136 324 136 324 c 1
 136 326 207 696 204 696 c 1
 192 698 170 706 154 712 c 1
 124 715 101 726 101 730 c 1
 100 735 95 730 95 742 c 0
 95 750 101 757 104 757 c 1
EndSplineSet
Validated: 33
EndChar

StartChar: asciicircum
Encoding: 94 94 61
Width: 313
Flags: W
HStem: 472 218
VStem: 17 283
LayerCount: 2
Back
Fore
SplineSet
17 499 m 1
 25 513 108 566 178 677 c 0
 184 687 183 690 190 690 c 0
 212 690 201 669 241 588 c 0
 257 558 299 505 300 500 c 1
 298 494 289 472 282 472 c 0
 264 472 201 545 175 590 c 1
 125 533 37 472 24 472 c 0
 17 472 17 488 17 499 c 1
EndSplineSet
Validated: 1
EndChar

StartChar: underscore
Encoding: 95 95 62
Width: 478
Flags: W
HStem: -44 59<-27.2422 384>
LayerCount: 2
Back
Fore
SplineSet
-36 -36 m 1
 -36 -34 -23 15 -12 15 c 2
 404 15 l 2
 407 15 408 13 408 9 c 0
 408 4 402 -14 391 -38 c 0
 388 -44 384 -44 384 -44 c 1
 -31 -44 l 1
 -31 -44 -37 -44 -36 -36 c 1
EndSplineSet
Validated: 1
EndChar

StartChar: grave
Encoding: 96 96 63
Width: 169
Flags: W
HStem: 524 162
VStem: 21 135
LayerCount: 2
Back
Fore
SplineSet
21 656 m 0
 21 666 32 686 66 686 c 0
 80 686 92 683 96 678 c 0
 122 636 156 545 156 541 c 1
 156 535 147 524 140 524 c 0
 131 524 21 615 21 656 c 0
EndSplineSet
Validated: 1
EndChar

StartChar: a
Encoding: 97 97 64
Width: 469
Flags: W
HStem: -7 70<87.5656 179.105> 394 48<224.538 330>
VStem: 15 100<74.2328 223.75> 240 98<52 112.719>
LayerCount: 2
Back
Fore
SplineSet
312 442 m 0
 348 442 384 433 404 426 c 1
 342 119 l 2
 341 115 338 91 338 86 c 0
 338 77 340 63 350 63 c 0
 372 63 418 119 421 123 c 1
 426 123 433 106 433 100 c 1
 419 74 338 -7 288 -7 c 0
 260 -7 240 15 240 52 c 0
 240 58 242 74 244 88 c 0
 246 101 248 107 249 113 c 1
 229 77 161 -6 102 -6 c 0
 47 -6 15 45 15 114 c 0
 15 290 188 442 312 442 c 0
260 394 m 0
 188 394 115 268 115 152 c 0
 115 97 130 67 158 67 c 0
 200 67 260 180 280 278 c 2
 301 381 l 1
 293 390 274 394 260 394 c 0
EndSplineSet
Validated: 1
EndChar

StartChar: b
Encoding: 98 98 65
Width: 447
Flags: W
HStem: -6 39<113.126 214.738> 370 72<272.922 357.5> 632 25<72.6956 126.3> 670 20G<221 234.5>
VStem: 132 105<552.531 675> 311 102<213.438 367.313>
LayerCount: 2
Back
Fore
SplineSet
278 370 m 0
 234 370 157 261 138 162 c 0
 124 94 132 33 174 33 c 0
 248 33 311 214 311 302 c 0
 311 333 308 370 278 370 c 0
166 310 m 1
 215 390 292 442 332 442 c 0
 383 442 413 401 413 330 c 0
 413 146 254 -6 144 -6 c 0
 84 -6 39 37 39 109 c 0
 39 121 43 147 45 160 c 2
 124 560 l 2
 128 578 132 601 132 612 c 0
 132 631 88 632 72 632 c 1
 69 636 72 653 76 657 c 1
 131 662 210 682 232 690 c 1
 237 687 237 678 237 672 c 0
 237 664 229 620 224 596 c 2
 166 310 l 1
EndSplineSet
Validated: 33
EndChar

StartChar: c
Encoding: 99 99 66
Width: 369
Flags: W
HStem: -6 71<103.5 202.939> 396 46<193.337 289>
VStem: 20 102<83.8377 245.554>
LayerCount: 2
Back
Fore
SplineSet
271 442 m 0
 307 442 333 428 346 418 c 1
 350 412 358 397 358 380 c 0
 358 354 339 327 313 327 c 0
 293 327 278 340 270 356 c 0
 260 372 248 396 222 396 c 0
 176 396 122 286 122 166 c 0
 122 114 136 65 188 65 c 0
 233 65 286 128 289 131 c 1
 295 131 302 114 302 108 c 1
 289 87 206 -6 136 -6 c 0
 71 -6 20 42 20 136 c 0
 20 294 159 442 271 442 c 0
EndSplineSet
Validated: 1
EndChar

StartChar: d
Encoding: 100 100 67
Width: 469
Flags: W
HStem: -6 73<72.5 159.52 277 361> 394 48<224.723 289.507> 632 25<284.696 341.211> 670 20G<433 446.5>
VStem: 15 100<75.0665 220.816> 345 105<550.109 675>
LayerCount: 2
Back
Fore
SplineSet
292 347 m 1
 294 373 284 394 262 394 c 0
 188 394 115 267 115 151 c 0
 115 99 128 67 158 67 c 0
 200 67 264 190 280 278 c 1
 280 278 292 341 292 347 c 1
336 560 m 1
 339 578 345 601 345 612 c 0
 345 631 300 632 284 632 c 1
 281 636 284 653 288 657 c 1
 343 662 422 682 444 690 c 1
 449 687 450 678 450 672 c 0
 450 664 442 620 437 596 c 2
 342 119 l 2
 341 115 338 91 338 86 c 0
 338 77 340 64 350 64 c 0
 372 64 418 119 421 123 c 1
 426 123 433 106 433 100 c 1
 419 74 338 -7 288 -7 c 0
 266 -7 252 8 246 31 c 0
 243 39 242 56 244 78 c 0
 246 92 247 105 249 113 c 1
 231 79 162 -6 102 -6 c 0
 43 -6 15 53 15 116 c 0
 15 278 171 432 298 442 c 0
 314 442 308 442 314 442 c 1
 336 560 l 1
EndSplineSet
Validated: 33
EndChar

StartChar: e
Encoding: 101 101 68
Width: 379
Flags: W
HStem: -6 71<96.5 196.705> 190 32<126 167.895> 403 39<198.726 297.5>
VStem: 20 101<83.8092 189.208> 264 96<303.926 400.293>
LayerCount: 2
Back
Fore
SplineSet
272 442 m 0
 323 442 360 415 360 365 c 0
 360 265 185 190 123 190 c 1
 122 187 121 167 121 162 c 0
 121 113 136 65 186 65 c 0
 231 65 285 129 288 132 c 1
 294 132 302 113 302 107 c 1
 289 85 195 -6 132 -6 c 0
 61 -6 20 47 20 140 c 0
 20 288 157 442 272 442 c 0
126 222 m 1
 165 222 264 290 264 364 c 0
 264 386 250 403 230 403 c 0
 172 403 131 273 126 222 c 1
EndSplineSet
Validated: 1
EndChar

StartChar: f
Encoding: 102 102 69
Width: 304
Flags: W
HStem: -226 44<-84 -3.88742> 377 42<44.2066 111 213 317> 646 44<271.017 352>
LayerCount: 2
Back
Fore
SplineSet
336 690 m 0
 368 690 391 678 400 668 c 1
 402 663 404 656 404 648 c 0
 403 624 391 600 370 600 c 0
 353 600 341 609 330 623 c 0
 322 633 313 646 297 646 c 0
 262 646 244 578 213 419 c 1
 313 419 l 2
 317 419 318 411 318 406 c 0
 318 396 313 385 308 377 c 1
 205 377 l 1
 205 377 172 176 148 50 c 0
 116 -114 12 -226 -68 -226 c 0
 -100 -226 -123 -214 -132 -204 c 1
 -134 -197 -136 -189 -136 -180 c 0
 -135 -157 -122 -135 -102 -135 c 0
 -85 -135 -73 -144 -62 -158 c 0
 -54 -168 -45 -182 -29 -182 c 0
 10 -182 22 -113 53 46 c 1
 111 377 l 1
 36 377 l 2
 35 377 34 378 34 380 c 0
 34 390 58 419 81 419 c 2
 118 419 l 1
 150 583 262 690 336 690 c 0
EndSplineSet
Validated: 1
EndChar

StartChar: g
Encoding: 103 103 70
Width: 427
VWidth: 512
Flags: W
HStem: -230 43<82.3789 235.584> 387 52<348.634 427.213> 411 36<181.772 252.578>
VStem: -53 95<-152.737 -65.8459> 36 128<46 105> 40 94<190.619 344.755> 276 93<226.642 387.463> 276 84<-130.505 -5>
LayerCount: 2
Back
Fore
SplineSet
276 -116 m 0x91
 276 -64 180 -28 122 -10 c 1
 84 -28 42 -53 42 -97 c 0
 42 -159 101 -187 170 -187 c 0
 221 -187 276 -159 276 -116 c 0x91
223 411 m 0xa6
 167 412 136 330 134 262 c 0
 133 214 147 166 187 165 c 0
 238 164 275 237 276 298 c 0
 277 346 262 410 223 411 c 0xa6
348 388 m 1
 350 382 369 349 369 310 c 0
 369 210 288 158 254 142 c 0
 222 126 164 116 164 94 c 0xca
 164 62 360 49 360 -59 c 0
 360 -154 258 -230 114 -230 c 0
 14 -230 -53 -185 -53 -122 c 0xd1
 -53 -52 33 -17 87 5 c 1
 87 5 60 19 56 23 c 1
 46 31 36 37 36 55 c 0xc8
 36 80 118 123 158 133 c 1
 111 141 40 179 40 258 c 0
 40 364 130 447 226 447 c 1xa4
 264 447 291 436 316 424 c 0
 328 418 377 437 390 439 c 1
 403 435 436 415 436 403 c 0
 436 396 430 387 422 387 c 0xc4
 408 387 361 388 348 388 c 1
EndSplineSet
Validated: 33
EndChar

StartChar: h
Encoding: 104 104 71
Width: 487
Flags: W
HStem: -7 70<296 383> 350 92<272 368> 632 25<74.6956 128.3> 670 20G<223 236.5>
VStem: 134 105<580.976 675> 261 99<27.5218 181.258> 308 100<224.164 397.83>
LayerCount: 2
Back
Fore
SplineSet
226 596 m 1xfa
 226 596 173 326 172 322 c 1
 170 316 161 261 160 256 c 1
 182 302 286 442 344 442 c 1
 392 442 408 414 408 366 c 0xfa
 408 332 396 278 390 246 c 2
 390 246 364 119 364 119 c 2
 363 115 360 91 360 86 c 0
 360 77 362 63 372 63 c 0
 394 63 439 119 442 123 c 1
 447 123 454 106 454 100 c 1
 440 74 360 -7 310 -7 c 0
 282 -7 261 14 261 54 c 0xfc
 261 65 265 97 269 111 c 1
 269 111 298 253 298 253 c 2
 300 263 308 308 308 318 c 0
 308 334 304 350 290 350 c 0
 258 350 159 227 133 105 c 1
 130 89 115 23 110 0 c 1
 100 -3 74 -5 64 -5 c 0
 54 -5 30 -3 18 0 c 1
 21 16 126 557 126 560 c 1
 130 578 134 601 134 612 c 0
 134 631 90 632 74 632 c 1
 71 636 74 653 78 657 c 1
 133 662 212 682 234 690 c 1
 239 687 239 678 239 672 c 0
 239 664 230 616 226 596 c 1xfa
EndSplineSet
Validated: 1
EndChar

StartChar: i
Encoding: 105 105 72
Width: 286
VWidth: 512
Flags: W
HStem: -7 70<90.5 177> 372 70<89 173> 543 124<143.5 215.942>
VStem: 56 99<27.5218 177.461> 112 98<257.539 406.201> 124 112<562.815 647.781>
LayerCount: 2
Back
Fore
SplineSet
108 316 m 2xf0
 109 321 112 343 112 348 c 0
 112 357 110 372 100 372 c 0
 78 372 32 316 29 312 c 1
 24 312 17 329 17 335 c 1
 31 361 108 442 158 442 c 0
 188 442 210 418 210 380 c 0xe8
 210 369 205 340 202 324 c 1
 202 324 158 119 158 119 c 2
 156 112 155 91 155 86 c 0
 155 77 156 63 166 63 c 0
 188 63 234 119 237 123 c 1
 242 123 249 106 249 100 c 1
 235 74 154 -7 104 -7 c 0
 77 -7 56 14 56 54 c 0
 56 65 61 97 64 111 c 1
 64 111 108 316 108 316 c 2xf0
190 667 m 0
 218 667 236 644 236 616 c 0
 236 578 206 543 170 543 c 0
 142 543 124 568 124 596 c 0xe4
 124 633 154 667 190 667 c 0
EndSplineSet
Validated: 1
Substitution2: "'ccmp' Turkish i-1" i.TRK
EndChar

StartChar: j
Encoding: 106 106 73
Width: 268
VWidth: 512
Flags: W
HStem: -226 21G<-80 -62> 372 70<97 181> 544 124<164.141 237.5>
VStem: 120 98<284.52 406.201> 145 112<563.322 648.778>
LayerCount: 2
Back
Fore
SplineSet
116 316 m 2xf0
 117 321 120 343 120 348 c 0
 120 357 118 372 108 372 c 0
 86 372 41 316 38 312 c 1
 33 312 26 329 26 335 c 1
 40 361 116 442 166 442 c 0
 196 442 218 418 218 380 c 0
 218 369 214 340 211 324 c 1
 211 324 172 120 164 82 c 1
 152 22 128 -44 86 -100 c 0
 44 -156 -46 -215 -78 -226 c 1
 -82 -224 -87 -213 -87 -205 c 1
 -1 -145 40 -69 66 61 c 1
 66 61 116 316 116 316 c 2xf0
210 668 m 0
 238 668 257 644 257 616 c 0
 257 578 227 544 191 544 c 0
 163 544 145 568 145 596 c 0xe8
 145 633 174 668 210 668 c 0
EndSplineSet
Validated: 1
EndChar

StartChar: k
Encoding: 107 107 74
Width: 481
VWidth: 512
Flags: W
HStem: -4 70<279.324 377.362> 381 61<274.081 374> 632 25<74.6956 131.211> 670 20G<223 236.5>
VStem: 135 105<550.289 675> 325 104<312.568 379.932>
LayerCount: 2
Back
Fore
SplineSet
350 442 m 1
 398 442 429 414 429 372 c 0
 429 294 330 242 237 220 c 1
 289 130 326 66 368 66 c 0
 388 66 426 110 436 122 c 1
 442 122 448 105 448 100 c 1
 439 80 363 -4 311 -4 c 0
 233 -4 182 128 150 200 c 1
 142 162 111 0 111 0 c 1
 101 -3 77 -6 66 -6 c 0
 55 -6 30 -3 18 0 c 1
 21 16 126 557 126 560 c 1
 130 578 135 601 135 612 c 0
 135 631 90 632 74 632 c 1
 71 636 74 653 78 657 c 1
 133 662 212 682 234 690 c 1
 239 687 240 678 240 672 c 0
 240 664 231 616 227 596 c 2
 176 332 l 1
 184 347 265 442 350 442 c 1
294 381 m 1
 236 381 164 281 158 239 c 1
 222 239 325 280 325 348 c 1
 325 362 320 381 294 381 c 1
EndSplineSet
Validated: 1
EndChar

StartChar: l
Encoding: 108 108 75
Width: 262
Flags: W
HStem: -7 70<68 155> 632 25<76.6956 133.211> 670 20G<225 238.5>
VStem: 33 99<27.5218 179.891> 138 105<552.133 675>
LayerCount: 2
Back
Fore
SplineSet
128 560 m 2
 132 578 138 601 138 612 c 0
 138 631 92 632 76 632 c 1
 73 636 76 653 80 657 c 1
 135 662 214 682 236 690 c 1
 241 687 243 678 243 672 c 0
 243 664 235 620 230 596 c 2
 136 119 l 2
 135 114 132 91 132 86 c 0
 132 77 134 63 144 63 c 0
 166 63 211 119 214 123 c 1
 219 123 226 106 226 100 c 1
 212 74 132 -7 82 -7 c 0
 54 -7 33 14 33 54 c 0
 33 65 38 97 41 111 c 1
 128 560 l 2
EndSplineSet
Validated: 1
EndChar

StartChar: m
Encoding: 109 109 76
Width: 736
Flags: W
HStem: -4 21G<86 98 310 322 544.5 583> 350 92<295.039 374.28 524.22 599.269> 372 70<93 149.988>
VStem: 112 98<242.854 406.201> 332 98<234.045 376> 510 99<27.5218 177.901> 558 100<239.328 397.484>
LayerCount: 2
Back
Fore
SplineSet
518 111 m 1xdc
 523 133 548 253 548 253 c 2
 550 263 558 308 558 318 c 0
 558 336 554 350 540 350 c 0
 506 350 410 226 386 112 c 1
 386 112 363 0 363 0 c 1
 351 -2 328 -4 316 -4 c 0
 304 -4 283 -2 270 0 c 1
 270 0 324 263 324 263 c 2
 327 277 332 310 332 320 c 0
 332 338 326 350 314 350 c 0xda
 277 350 184 218 160 106 c 2
 160 106 138 0 138 0 c 1
 126 -2 104 -5 92 -5 c 0
 80 -5 58 -2 45 0 c 1
 45 0 108 316 108 316 c 2
 109 321 112 343 112 348 c 0
 112 357 110 372 100 372 c 0
 78 372 32 316 29 312 c 1
 24 312 17 329 17 335 c 1
 31 361 108 442 158 442 c 0xba
 188 442 210 418 210 380 c 0
 210 369 205 340 202 324 c 0
 198 300 191 274 187 256 c 1
 220 322 309 442 360 442 c 0
 417 442 430 401 430 351 c 0
 430 331 425 294 420 274 c 1
 456 339 542 442 590 442 c 0
 641 442 658 415 658 366 c 0xda
 658 330 646 276 640 246 c 1
 638 234 614 133 612 119 c 1
 610 109 609 91 609 86 c 0xdc
 609 77 610 64 620 64 c 0
 642 64 688 119 691 123 c 1
 696 123 703 106 703 100 c 1
 689 74 608 -7 558 -7 c 0xda
 531 -7 510 14 510 54 c 0
 510 65 515 97 518 111 c 1xdc
EndSplineSet
Validated: 1
EndChar

StartChar: n
Encoding: 110 110 77
Width: 518
Flags: W
HStem: -7 70<326.5 413> 350 92<303.594 379.269> 372 70<89 173>
VStem: 112 98<243.584 406.201> 292 99<27.5218 184.352> 338 100<224.164 397.484>
LayerCount: 2
Back
Fore
SplineSet
202 324 m 1xb4
 201 318 188 260 188 260 c 1
 210 306 312 442 370 442 c 1
 421 442 438 415 438 366 c 0xd4
 438 334 426 276 420 246 c 2
 420 246 394 119 394 119 c 2
 392 112 391 91 391 86 c 0
 391 77 392 63 402 63 c 0
 424 63 470 119 473 123 c 1
 478 123 485 106 485 100 c 1
 471 74 390 -7 340 -7 c 0
 313 -7 292 14 292 54 c 0xd8
 292 65 297 97 300 111 c 1
 300 111 328 253 328 253 c 2
 330 263 338 308 338 318 c 0
 338 336 334 350 320 350 c 0xd4
 287 350 186 232 160 106 c 1
 156 82 143 24 138 0 c 1
 126 -2 104 -5 92 -5 c 0
 80 -5 58 -2 45 0 c 1
 45 0 108 316 108 316 c 2
 109 321 112 343 112 348 c 0
 112 357 110 372 100 372 c 0
 78 372 32 316 29 312 c 1
 24 312 17 329 17 335 c 1
 31 361 108 442 158 442 c 0
 188 442 210 418 210 380 c 0
 210 369 206 340 202 324 c 1xb4
EndSplineSet
Validated: 1
EndChar

StartChar: o
Encoding: 111 111 78
Width: 435
Flags: W
HStem: -6 36<141.252 211.095> 406 36<206.044 276.837>
VStem: 20 102<50.5312 248.426> 294 102<185.783 386.741>
LayerCount: 2
Back
Fore
SplineSet
250 406 m 0
 170 406 122 247 122 142 c 0
 122 90 132 30 167 30 c 0
 246 30 294 190 294 292 c 0
 294 348 285 406 250 406 c 0
262 442 m 0
 344 442 396 394 396 292 c 0
 396 150 268 -6 150 -6 c 0
 68 -6 20 49 20 140 c 0
 20 282 144 442 262 442 c 0
EndSplineSet
Validated: 1
EndChar

StartChar: p
Encoding: 112 112 79
Width: 474
Flags: W
HStem: -227 30<-52.4178 -12.2751> -218 28<113.804 160.581> -5 40<163.524 238.553> 372 70<280.055 379>
VStem: 338 102<209.866 364.499>
LayerCount: 2
Back
Fore
SplineSet
292 372 m 0x38
 260 372 216 342 192 312 c 1
 190 298 158 140 158 140 c 2
 145 72 165 35 193 35 c 0
 271 35 338 199 338 301 c 0
 338 345 324 372 292 372 c 0x38
347 442 m 0
 411 442 440 391 440 321 c 0
 440 159 290 -5 168 -5 c 0
 156 -5 140 -3 132 4 c 1
 132 4 102 -136 102 -136 c 2
 100 -145 99 -154 99 -164 c 0
 99 -169 103 -183 113 -186 c 0
 130 -190 157 -190 160 -190 c 0
 164 -191 162 -217 157 -219 c 1
 144 -219 133 -218 122 -218 c 0x78
 71 -218 7 -220 -51 -227 c 1
 -56 -226 -54 -200 -49 -197 c 1xb8
 -31 -197 -18 -191 -9 -180 c 0
 -2 -171 2 -161 7 -138 c 2
 7 -138 84 241 84 241 c 1
 84 241 36 193 36 193 c 1
 32 198 29 210 29 216 c 0
 29 224 34 231 38 234 c 2
 38 234 93 290 93 290 c 1
 93 290 121 438 121 438 c 1
 132 441 160 443 171 443 c 0
 182 443 206 441 216 436 c 1
 212 418 203 368 201 360 c 1
 229 388 296 442 347 442 c 0
EndSplineSet
Validated: 33
EndChar

StartChar: q
Encoding: 113 113 80
Width: 440
Flags: W
HStem: -228 21G<125 144.5> -218 20<129 276 312.73 340.44> -6 73<71 160.489> 394 48<220.23 329.5>
VStem: 15 100<76.0785 219.018>
LayerCount: 2
Back
Fore
SplineSet
337 -220 m 1x78
 323 -220 289 -218 276 -218 c 0x78
 218 -218 163 -224 126 -228 c 1xb8
 124 -226 123 -198 129 -198 c 0
 158 -195 189 -184 194 -158 c 2
 194 -158 244 107 244 107 c 1
 223 71 159 -6 101 -6 c 0
 41 -6 15 57 15 115 c 0
 15 275 172 442 312 442 c 0
 347 442 378 436 400 424 c 1
 400 424 342 122 342 122 c 2
 341 118 294 -142 294 -142 c 2
 293 -150 292 -156 292 -162 c 0
 292 -177 296 -191 340 -191 c 0
 344 -191 342 -217 337 -220 c 1x78
292 341 m 1
 296 361 289 394 262 394 c 0
 188 394 115 269 115 154 c 0
 115 99 131 67 158 67 c 0
 201 67 262 183 280 276 c 1
 282 290 290 327 292 341 c 1
EndSplineSet
Validated: 33
EndChar

StartChar: r
Encoding: 114 114 81
Width: 393
Flags: W
HStem: -4 21G<89 100.5> 356 86<296.01 344.466> 372 70<87 171>
VStem: 111 98<237.283 405.805>
LayerCount: 2
Back
Fore
SplineSet
341 442 m 1xd0
 367 442 380 435 393 425 c 1
 399 417 406 403 406 389 c 0
 406 352 383 331 358 331 c 0
 344 331 330 340 320 348 c 0
 313 353 309 356 297 356 c 0xd0
 265 356 185 222 161 106 c 2
 161 106 140 0 140 0 c 1
 130 -2 106 -4 95 -4 c 0
 83 -4 59 -2 47 0 c 1
 47 0 106 316 106 316 c 2
 107 321 111 343 111 348 c 0
 111 357 108 372 98 372 c 0
 76 372 31 316 28 312 c 1
 23 312 16 329 16 335 c 1
 30 361 106 442 156 442 c 0xb0
 186 442 209 418 209 380 c 0
 209 369 204 340 201 324 c 0
 197 302 190 266 186 250 c 1
 212 330 291 442 341 442 c 1xd0
EndSplineSet
Validated: 1
EndChar

StartChar: s
Encoding: 115 115 82
Width: 343
Flags: W
HStem: -6 36<106.196 182.411> 407 36<143.39 212.171>
VStem: 56 75<307.704 377.867> 194 77<56.7101 130.301>
LayerCount: 2
Back
Fore
SplineSet
210 443 m 1
 256 443 286 432 308 414 c 1
 315 406 319 386 319 378 c 1
 319 356 303 332 277 332 c 1
 255 332 237 355 224 373 c 0
 212 391 202 407 176 407 c 1
 148 407 131 380 131 356 c 0
 131 318 179 282 213 246 c 0
 241 216 271 183 271 127 c 0
 271 45 198 -6 108 -6 c 1
 72 -6 35 4 11 24 c 1
 5 32 0 48 0 58 c 1
 0 86 18 108 42 108 c 1
 64 108 77 87 94 63 c 0
 108 43 122 30 148 30 c 1
 179 30 194 60 194 80 c 0
 194 120 149 153 117 189 c 0
 87 223 56 253 56 311 c 0
 56 379 120 443 210 443 c 1
EndSplineSet
Validated: 1
EndChar

StartChar: t
Encoding: 116 116 83
Width: 303
Flags: W
HStem: -7 70<83.5 171> 377 42<46.2066 108 210 295.023>
VStem: 48 99<27.877 182.578>
LayerCount: 2
Back
Fore
SplineSet
116 419 m 1
 130 488 l 1
 141 502 209 554 217 554 c 0
 223 554 230 551 234 548 c 1
 210 419 l 1
 292 419 l 2
 296 419 296 411 296 406 c 0
 296 396 291 385 286 377 c 1
 202 377 l 1
 152 119 l 2
 150 111 147 91 147 86 c 0
 147 77 150 63 160 63 c 0
 182 63 227 119 230 123 c 1
 235 123 242 106 242 100 c 1
 228 74 147 -7 97 -7 c 0
 70 -7 48 14 48 54 c 0
 48 65 52 94 56 111 c 2
 108 377 l 1
 38 377 l 2
 37 377 36 378 36 380 c 0
 36 390 60 419 83 419 c 2
 116 419 l 1
EndSplineSet
Validated: 1
EndChar

StartChar: u
Encoding: 117 117 84
Width: 512
Flags: W
HStem: -7 92<116.273 188.99> -7 70<318.5 405> 372 70<85 169>
VStem: 60 100<37.4777 196.722> 108 98<250.875 406.201> 283 99<27.877 193.891>
LayerCount: 2
Back
Fore
SplineSet
290 106 m 0x74
 295 134 300 154 305 176 c 1
 273 108 171 -7 117 -7 c 1
 72 -7 60 22 60 72 c 0xb4
 60 102 71 158 77 186 c 1
 81 206 101 296 104 316 c 2
 105 321 108 343 108 348 c 0
 108 357 106 372 96 372 c 0
 74 372 28 316 25 312 c 1
 20 312 13 329 13 335 c 1
 27 361 104 442 154 442 c 0
 184 442 206 418 206 380 c 0xac
 206 369 201 340 198 324 c 1
 197 318 170 182 170 182 c 2
 168 172 160 127 160 117 c 0
 160 101 164 85 178 85 c 0xb4
 210 85 312 222 336 346 c 1
 340 368 350 413 354 435 c 1
 364 438 387 440 397 440 c 0
 407 440 434 438 446 435 c 1
 446 435 386 119 386 119 c 2
 384 111 382 91 382 86 c 0
 382 77 384 63 394 63 c 0
 416 63 461 119 464 123 c 1
 469 123 476 106 476 100 c 1
 462 74 382 -7 332 -7 c 0
 305 -7 283 14 283 54 c 0
 283 62 286 84 290 106 c 0x74
EndSplineSet
Validated: 1
EndChar

StartChar: v
Encoding: 118 118 85
Width: 452
VWidth: 512
Flags: W
HStem: -6 21G<115 155> 368 74<80 170>
VStem: 100 98<88.7952 367.989> 344 89<280.042 400.399>
LayerCount: 2
Back
Fore
SplineSet
211 88 m 1
 263 130 293 166 319 218 c 0
 339 257 344 298 344 320 c 0
 344 343 331 372 310 390 c 1
 313 417 342 442 366 442 c 0
 404 442 433 413 433 356 c 0
 433 230 188 -6 122 -6 c 1
 108 23 100 143 100 219 c 2
 100 344 l 2
 100 353 99 368 89 368 c 0
 71 368 28 316 25 312 c 1
 20 312 13 329 13 335 c 1
 27 361 104 442 154 442 c 0
 186 442 198 417 198 387 c 2
 198 387 198 350 198 344 c 1
 198 258 l 2
 198 182 205 104 211 88 c 1
EndSplineSet
Validated: 1
EndChar

StartChar: w
Encoding: 119 119 86
Width: 677
VWidth: 512
Flags: W
HStem: -6 22G<116 151.5 360 401> 368 74<80 170>
VStem: 100 98<109.456 367.989> 344 78<272.225 345.827> 568 89<274.761 401.013>
LayerCount: 2
Back
Fore
SplineSet
422 390 m 1
 422 344 427 266 432 206 c 0
 437 154 443 104 450 94 c 1
 490 124 526 164 550 218 c 0
 568 256 568 295 568 318 c 0
 568 343 555 372 534 390 c 1
 537 417 567 442 591 442 c 0
 629 442 657 413 657 356 c 0
 657 230 437 -5 365 -5 c 1
 355 9 343 89 339 126 c 0
 335 156 332 191 332 203 c 1
 282 121 180 8 123 -6 c 1
 109 23 100 143 100 219 c 2
 100 344 l 2
 100 353 99 368 89 368 c 0
 71 368 28 316 25 312 c 1
 20 312 13 329 13 335 c 1
 27 361 104 442 154 442 c 0
 186 442 198 417 198 387 c 2
 198 387 198 350 198 344 c 1
 198 258 l 2
 198 182 205 122 211 106 c 1
 246 138 287 201 305 236 c 0
 324 272 336 307 344 335 c 1
 352 357 404 388 422 390 c 1
EndSplineSet
Validated: 1
EndChar

StartChar: x
Encoding: 120 120 87
Width: 496
VWidth: 512
Flags: W
HStem: -6 70<55 121.457 279.5 366> 368 74<110 196> 376 66<352.299 417.5>
LayerCount: 2
Back
Fore
SplineSet
181 442 m 0xc0
 211 442 230 407 240 371 c 2
 240 371 266 282 266 282 c 1
 266 282 316 373 316 373 c 1
 336 410 368 442 404 442 c 4
 431 442 457 431 469 420 c 1
 473 412 480 394 480 382 c 0
 480 358 465 328 435 328 c 0
 415 328 401 342 394 354 c 0
 388 364 378 376 370 376 c 0xa0
 361 376 350 363 340 346 c 2
 340 346 278 240 278 240 c 1
 278 240 320 104 320 104 c 2
 326 84 337 64 356 64 c 0
 376 64 419 113 426 123 c 1
 431 123 438 106 438 100 c 1
 426 77 345 -6 296 -6 c 0
 263 -6 244 31 232 70 c 1
 232 71 215 129 208 153 c 1
 208 153 158 64 158 64 c 1
 138 27 106 -6 70 -6 c 0
 40 -6 21 6 7 16 c 1
 1 23 -5 37 -5 52 c 0
 -5 76 8 108 38 108 c 0
 58 108 73 94 80 82 c 0
 86 72 96 61 104 61 c 0
 112 61 123 70 135 92 c 2
 135 92 194 195 194 195 c 1
 194 195 154 328 154 328 c 2
 150 343 138 368 118 368 c 0
 102 368 61 323 54 313 c 1
 49 313 42 330 42 336 c 1
 55 360 132 442 181 442 c 0xc0
EndSplineSet
Validated: 1
EndChar

StartChar: y
Encoding: 121 121 88
Width: 473
Flags: W
HStem: -226 73<-71.2369 39.7159> 368 74<67.5 188>
VStem: 144 98<20 281.133> 353 86<241.046 399.034>
LayerCount: 2
Back
Fore
SplineSet
131 442 m 0
 245 442 242 81 242 20 c 1
 278 64 353 185 353 294 c 0
 353 344 333 372 320 388 c 1
 324 418 352 442 378 442 c 0
 417 442 439 402 439 356 c 0
 439 122 105 -226 -30 -226 c 0
 -66 -226 -93 -206 -93 -174 c 0
 -93 -157 -81 -135 -66 -127 c 1
 -51 -136 -7 -153 23 -153 c 0
 85 -153 113 -119 131 -92 c 0
 147 -60 144 13 144 56 c 0
 144 170 128 368 79 368 c 0
 56 368 18 315 15 312 c 1
 9 312 3 331 3 335 c 1
 14 354 84 442 131 442 c 0
EndSplineSet
Validated: 33
EndChar

StartChar: z
Encoding: 122 122 89
Width: 414
Flags: W
HStem: -2 84<221.063 298> 35 83<62.4688 166.93> 323 84<224.839 329.457> 359 84<96.9465 177.39>
LayerCount: 2
Back
Fore
SplineSet
158 443 m 0x10
 194 443 218 432 244 422 c 0
 262 415 284 407 314 407 c 0
 344 407 382 434 394 442 c 1
 408 440 410 426 410 418 c 0
 410 404 116 112 113 108 c 1
 117 110 139 118 157 118 c 0x60
 182 118 206 112 226 102 c 0
 244 94 266 82 284 82 c 0
 312 82 336 131 342 140 c 1
 352 140 356 128 357 120 c 1
 339 82 286 -2 236 -2 c 0x80
 203 -2 175 9 149 20 c 0
 132 27 103 35 72 35 c 0
 46 35 22 11 4 -1 c 1
 -9 0 -11 13 -12 22 c 1
 -12 38 290 334 292 338 c 1
 288 336 263 323 240 323 c 0x60
 215 323 192 330 172 339 c 0
 154 347 131 359 112 359 c 0
 83 359 60 309 54 300 c 1
 46 300 41 312 40 320 c 1
 52 350 108 443 158 443 c 0x10
EndSplineSet
Validated: 1
EndChar

StartChar: braceleft
Encoding: 123 123 90
Width: 228
Flags: W
HStem: 719 20<266.576 280.375>
VStem: 20 262
LayerCount: 2
Back
Fore
SplineSet
127 403 m 0
 132 430 126 453 122 479 c 0
 117 503 113 527 119 557 c 0
 138 655 228 725 272 739 c 1
 278 739 285 727 282 719 c 1
 253 705 195 658 185 604 c 0
 177 566 183 542 189 516 c 0
 194 493 199 468 191 428 c 0
 177 358 115 310 87 302 c 1
 112 294 156 247 142 177 c 0
 134 137 120 111 106 88 c 0
 91 62 76 40 68 2 c 0
 58 -52 96 -100 119 -114 c 1
 119 -122 108 -134 102 -134 c 1
 63 -120 1 -50 20 48 c 0
 26 79 41 105 55 130 c 0
 69 154 83 176 88 202 c 0
 98 255 66 281 32 292 c 1
 31 294 31 298 32 302 c 0
 33 306 34 312 36 314 c 1
 75 325 117 350 127 403 c 0
EndSplineSet
Validated: 33
EndChar

StartChar: bar
Encoding: 124 124 91
Width: 203
Flags: W
HStem: -124 9<1 14>
VStem: 171 53<724.015 768.398>
LayerCount: 2
Back
Fore
SplineSet
171 757 m 1
 179 765 192 770 208 770 c 0
 216 770 225 767 224 761 c 2
 55 -111 l 1
 46 -119 27 -124 14 -124 c 0
 6 -124 0 -119 1 -115 c 2
 1 -115 136 587 171 757 c 1
EndSplineSet
Validated: 1
EndChar

StartChar: braceright
Encoding: 125 125 92
Width: 230
Flags: W
HStem: -134 20<-37.75 -23.5213>
VStem: -38 260
LayerCount: 2
Back
Fore
SplineSet
140 740 m 1
 179 726 241 655 222 557 c 0
 216 527 202 502 188 478 c 0
 174 454 159 429 154 403 c 0
 144 350 176 325 210 314 c 1
 211 312 211 306 210 302 c 0
 209 298 208 294 206 292 c 1
 167 281 125 255 115 202 c 0
 110 176 116 153 120 129 c 0
 125 104 129 78 123 48 c 0
 104 -50 14 -120 -30 -134 c 1
 -37 -134 -41 -122 -38 -114 c 1
 -10 -100 47 -52 57 2 c 0
 64 40 59 62 53 88 c 0
 48 111 43 137 51 177 c 0
 65 247 127 294 155 302 c 1
 130 310 86 358 100 428 c 0
 108 470 123 496 138 520 c 0
 153 545 167 568 174 604 c 0
 184 658 147 705 124 719 c 1
 124 727 134 740 140 740 c 1
EndSplineSet
Validated: 33
EndChar

StartChar: asciitilde
Encoding: 126 126 93
Width: 542
Flags: W
HStem: 248 56<307.65 445.322> 300 56<114.751 251.623>
LayerCount: 2
Back
Fore
SplineSet
194 356 m 0x40
 282 356 315 304 403 304 c 0
 439 304 465 325 496 348 c 1
 498 346 501 342 501 335 c 0
 501 297 430 248 366 248 c 0x80
 278 248 243 300 155 300 c 0
 119 300 93 279 62 256 c 1
 60 258 57 262 57 269 c 0
 57 313 140 356 194 356 c 0x40
EndSplineSet
Validated: 1
EndChar

StartChar: exclamdown
Encoding: 161 161 95
Width: 219
VWidth: 512
Flags: W
HStem: 314 127<96.4431 170.843>
VStem: 74 118<334.764 418.517> 85 39<171.667 255.411>
LayerCount: 2
Back
Fore
SplineSet
192 380 m 1xc0
 188 343 157 314 121 314 c 27
 92 314 70 340 74 370 c 1
 78 408 108 441 144 441 c 27
 175 441 196 412 192 380 c 1xc0
15 -208 m 1
 -10 -208 -27 -184 -23 -152 c 1
 -21 -124 47 98 85 233 c 0
 90 250 109 260 118 260 c 1
 123 260 124 250 124 240 c 1xa0
 122 204 97 -48 81 -148 c 0
 75 -178 47 -208 15 -208 c 1
EndSplineSet
Validated: 33
EndChar

StartChar: cent
Encoding: 162 162 96
Width: 381
Flags: W
HStem: -6 71<106.5 205.939> 396 46<196.337 292>
VStem: 23 102<83.8377 245.554>
LayerCount: 2
Back
Fore
SplineSet
270 474 m 17
 277 474 303 473 302 466 c 9
 126 -45 l 17
 118 -45 93 -43 94 -36 c 9
 270 474 l 17
EndSplineSet
Refer: 66 99 N 1 0 0 1 3 0 2
Validated: 37
EndChar

StartChar: sterling
Encoding: 163 163 97
Width: 463
UnlinkRmOvrlpSave: 1
Flags: W
HStem: -8 86<241.923 322.446> 40 75<80.2196 204> 294 40<69.2031 334.709> 589 49<272.232 375>
LayerCount: 2
Back
Fore
SplineSet
77 334 m 1x30
 98 334 334 334 346 334 c 1
 354 328 337 300 328 294 c 1
 314 294 61 294 55 294 c 1
 51 304 68 329 77 334 c 1x30
201 259 m 0
 186 184 143 131 114 105 c 1
 132 113 152 115 183 115 c 0x70
 225 115 276 78 318 78 c 0
 356 78 378 119 392 138 c 1
 396 139 401 134 403 126 c 0
 405 121 404 116 403 112 c 1
 385 78 331 -8 262 -8 c 0xb0
 200 -8 150 40 92 40 c 0x70
 69 40 31 8 12 -8 c 1xb0
 3 -8 -2 8 0 16 c 1
 18 42 49 68 67 92 c 1
 88 134 102 182 112 234 c 0
 121 281 113 360 122 404 c 0
 152 555 265 638 358 638 c 0
 392 638 407 625 419 607 c 1
 424 584 408 537 376 537 c 0
 335 537 340 589 301 589 c 0
 251 589 228 522 215 454 c 0
 203 388 211 311 201 259 c 0
EndSplineSet
Validated: 37
EndChar

StartChar: currency
Encoding: 164 164 98
Width: 519
Flags: W
HStem: 120 34<205.926 288.911> 462 34<245.683 326.913>
LayerCount: 2
Back
Fore
SplineSet
245 154 m 0
 302 154 350 234 358 318 c 0
 367 399 337 462 289 462 c 0
 232 462 182 380 174 296 c 0
 165 215 197 154 245 154 c 0
400 455 m 1
 466 510 l 2
 468 512 470 512 473 510 c 1
 482 506 494 485 496 466 c 1
 428 410 l 1
 437 386 442 357 438 327 c 0
 434 275 409 229 384 199 c 1
 422 141 l 2
 423 139 424 138 422 135 c 1
 418 125 393 105 374 100 c 1
 336 155 l 1
 304 133 267 120 230 120 c 0
 190 120 156 135 132 160 c 1
 74 110 l 2
 72 108 69 109 67 110 c 1
 58 113 46 135 44 154 c 1
 104 205 l 1
 94 229 90 258 94 288 c 0
 98 341 124 389 154 423 c 1
 116 479 l 2
 115 481 116 483 117 485 c 1
 121 495 146 514 166 520 c 1
 203 465 l 1
 234 485 269 496 304 496 c 0
 344 496 376 481 400 455 c 1
EndSplineSet
Validated: 33
EndChar

StartChar: yen
Encoding: 165 165 99
Width: 614
UnlinkRmOvrlpSave: 1
Flags: W
HStem: -4 32<134.812 200.998 315.001 368.891> 134 41<138.508 428.942> 218 41<154.703 444.942> 605 32<93.125 136.663 279.065 334.906 456.278 511.254 586.377 651.249>
LayerCount: 2
Back
Fore
SplineSet
156 218 m 2
 153 218 152 221 152 225 c 0
 152 234 158 251 166 259 c 1
 444 259 l 2
 446 259 447 256 447 252 c 0
 447 244 444 228 434 218 c 1
 156 218 l 2
140 134 m 2
 137 134 136 138 136 142 c 0
 136 151 142 167 150 175 c 1
 428 175 l 2
 430 175 431 172 431 168 c 0
 431 160 428 144 418 134 c 1
 140 134 l 2
223 126 m 2
 250 265 l 1
 251 272 250 279 248 288 c 1
 242 314 174 522 174 522 c 2
 164 553 157 565 143 582 c 0
 132 599 103 605 92 605 c 1
 88 609 91 631 97 637 c 1
 135 634 176 631 217 631 c 0
 258 631 302 634 338 637 c 1
 340 631 337 609 331 605 c 1
 319 605 277 601 272 577 c 0
 270 571 273 565 276 555 c 2
 347 333 l 1
 379 373 473 509 508 563 c 0
 512 569 514 575 515 581 c 0
 517 593 485 604 454 604 c 1
 451 609 455 631 459 636 c 1
 496 633 517 630 554 630 c 0
 597 630 618 634 655 636 c 1
 657 632 652 608 648 604 c 1
 638 604 591 604 569 574 c 1
 557 560 379 316 361 288 c 1
 355 279 354 272 352 264 c 1
 324 126 l 2
 316 90 312 61 315 44 c 0
 317 32 359 28 371 28 c 1
 374 22 371 2 365 -4 c 1
 330 -1 285 2 249 2 c 0
 213 2 168 -1 132 -4 c 1
 128 2 133 22 139 28 c 1
 151 28 195 32 201 44 c 0
 211 61 215 90 223 126 c 2
EndSplineSet
Validated: 37
EndChar

StartChar: brokenbar
Encoding: 166 166 100
Width: 208
VWidth: 512
Flags: W
HStem: -124 9<3 16> 379 9<101 114>
VStem: 3 222
LayerCount: 2
Back
Fore
SplineSet
172 756 m 1
 180 764 194 768 210 768 c 1
 218 768 226 766 225 760 c 2
 154 392 l 1
 145 384 127 379 114 379 c 1
 106 379 100 384 101 388 c 2
 101 388 140 586 172 756 c 1
75 252 m 1
 83 260 96 265 112 265 c 1
 120 265 129 262 128 256 c 2
 57 -111 l 1
 48 -119 29 -124 16 -124 c 1
 8 -124 2 -119 3 -115 c 2
 3 -115 42 82 75 252 c 1
EndSplineSet
Validated: 1
EndChar

StartChar: section
Encoding: 167 167 101
Width: 417
UnlinkRmOvrlpSave: 1
Flags: W
HStem: -85 50<40.2596 154.629> 603 50<267.477 382.217>
LayerCount: 2
Back
Fore
SplineSet
362 653 m 0
 258 653 171 576 155 496 c 0
 141 426 198 372 234 328 c 0
 275 278 316 215 300 132 c 0
 291 88 273 69 245 35 c 0
 245 35 221 15 209 -3 c 24
 201 -14 203 -22 199 -34 c 17
 239 -8 354 106 368 182 c 0
 386 271 342 330 298 384 c 0
 263 427 205 503 214 549 c 0
 221 587 268 603 297 603 c 0
 311 603 321 598 328 592 c 0
 336 586 344 576 361 576 c 0
 382 576 399 596 403 614 c 0
 404 620 406 632 403 642 c 1
 391 648 375 653 362 653 c 0
178 532 m 0
 149 498 131 480 122 436 c 0
 106 353 148 290 189 240 c 0
 225 196 281 142 267 72 c 0
 251 -8 164 -85 60 -85 c 0
 47 -85 31 -80 20 -74 c 1
 18 -66 18 -54 19 -48 c 0
 23 -30 41 -8 62 -8 c 0
 79 -8 87 -19 95 -26 c 0
 101 -32 111 -35 125 -35 c 0
 154 -35 202 -19 209 19 c 0
 218 65 160 141 125 184 c 0
 82 238 36 297 54 386 c 0
 68 462 184 576 224 602 c 9
 220 590 222 582 214 571 c 24
 202 553 178 532 178 532 c 0
EndSplineSet
Validated: 37
EndChar

StartChar: dieresis
Encoding: 168 168 102
Width: 346
VWidth: 512
Flags: W
HStem: 462 116<92.4922 162.166 271.663 341.166>
VStem: 76 104<479.585 561.912> 255 104<480.047 561.912>
LayerCount: 2
Back
Fore
SplineSet
255 517 m 1
 258 550 285 578 317 578 c 27
 344 578 362 553 359 525 c 1
 356 492 328 462 296 462 c 27
 268 462 252 488 255 517 c 1
76 517 m 1
 79 550 106 578 138 578 c 27
 165 578 183 553 180 525 c 1
 177 492 150 462 118 462 c 27
 90 462 73 488 76 517 c 1
EndSplineSet
Validated: 33
EndChar

StartChar: copyright
Encoding: 169 169 103
Width: 609
Flags: W
HStem: 54 38<206.627 373.325> 179 28<277.431 369.791> 439 30<295.634 389.377> 561 38<258.814 428.342>
VStem: 403 18<250.643 266.458> 412 21<382.86 411.029>
LayerCount: 2
Back
Fore
SplineSet
421 264 m 1xf8
 421 260 402 204 396 202 c 0
 368 191 336 179 299 179 c 0
 222 179 173 236 183 320 c 0
 193 404 263 469 337 469 c 0
 363 469 401 461 427 452 c 1
 427 450 433 394 433 390 c 0
 433 386 423 382 417 382 c 1
 415 382 414 382 412 384 c 1xf4
 410 398 399 439 339 439 c 0
 287 439 250 384 243 328 c 0
 234 256 269 207 317 207 c 0
 343 207 364 215 377 226 c 0
 392 240 401 266 403 268 c 1
 407 268 419 266 421 264 c 1xf8
99 326 m 0
 83 196 167 92 288 92 c 0
 409 92 519 196 535 326 c 0
 551 456 466 561 345 561 c 0
 224 561 115 456 99 326 c 0
62 326 m 0
 81 477 209 599 349 599 c 0
 489 599 589 477 570 326 c 0
 551 175 422 54 282 54 c 0
 142 54 43 175 62 326 c 0
EndSplineSet
Validated: 33
EndChar

StartChar: ordfeminine
Encoding: 170 170 104
Width: 389
VWidth: 512
Flags: W
HStem: 248 50<108.018 176.22> 520 36<209.257 293.5>
VStem: 57 74<300.408 415.867> 225 75<268.289 332.832>
LayerCount: 2
Back
Fore
SplineSet
262 248 m 0
 242 248 225 260 225 286 c 0
 225 290 226 302 228 312 c 0
 230 321 231 324 232 328 c 1
 216 303 166 248 122 248 c 0
 80 248 57 282 57 330 c 0
 57 451 188 556 280 556 c 0
 307 556 334 550 348 545 c 1
 303 338 l 2
 303 335 300 319 300 316 c 0
 300 310 301 300 309 300 c 0
 325 300 360 338 362 341 c 1
 366 339 371 327 370 321 c 1
 360 303 300 248 262 248 c 0
240 520 m 0
 186 520 131 436 131 356 c 0
 131 318 142 298 164 298 c 0
 196 298 241 376 256 443 c 2
 271 510 l 1
 265 516 250 520 240 520 c 0
EndSplineSet
Validated: 1
EndChar

StartChar: guillemotleft
Encoding: 171 171 105
Width: 482
VWidth: 512
Flags: W
LayerCount: 2
Back
Fore
SplineSet
398 92 m 1
 392 82 379 75 373 73 c 1
 356 95 293 168 210 230 c 1
 206 234 203 239 203 245 c 0
 203 253 209 260 215 264 c 1
 339 335 403 393 441 423 c 1
 445 422 458 416 460 406 c 1
 455 397 319 266 299 248 c 1
 313 230 396 99 398 92 c 1
221 92 m 1
 215 82 202 75 196 73 c 1
 179 95 116 168 33 230 c 1
 29 234 26 239 26 245 c 0
 26 253 32 260 38 264 c 1
 162 335 226 393 264 423 c 1
 268 422 281 416 283 406 c 1
 278 397 142 266 122 248 c 1
 136 230 219 99 221 92 c 1
EndSplineSet
Validated: 1
EndChar

StartChar: logicalnot
Encoding: 172 172 106
Width: 527
VWidth: 512
Flags: W
HStem: 316 47<56.1606 414>
LayerCount: 2
Back
Fore
SplineSet
72 363 m 1
 478 363 l 1
 474 339 432 130 432 130 c 1
 430 126 409 116 394 116 c 1
 386 116 377 119 378 124 c 2
 414 316 l 1
 58 316 l 1
 56 316 54 321 54 327 c 0
 54 342 62 357 72 363 c 1
EndSplineSet
Validated: 1
EndChar

StartChar: registered
Encoding: 174 174 107
Width: 609
Flags: W
HStem: 111 38<217.627 384.325> 253 15<195.831 224.603 279.25 303 430.736 449> 379 19<291 308.584> 509 18<228 252.94 306.1 352.493> 618 39<269.814 439.342>
LayerCount: 2
Back
Fore
SplineSet
341 527 m 0
 382 527 423 501 417 453 c 0
 413 421 378 394 355 386 c 1
 375 348 395 316 406 299 c 0
 423 275 439 270 451 269 c 1
 452 266 449 254 449 253 c 1
 430 253 408 254 397 255 c 0
 380 256 368 264 357 282 c 0
 355 286 317 352 307 373 c 0
 306 375 303 379 299 379 c 0
 297 379 291 379 289 379 c 1
 287 364 280 310 280 310 c 1
 278 295 277 283 279 276 c 0
 280 271 298 268 303 268 c 1
 304 265 303 255 301 253 c 1
 285 254 266 256 250 256 c 0
 234 256 212 254 196 253 c 1
 194 255 196 265 198 268 c 1
 203 268 223 271 225 276 c 0
 229 283 229 295 231 310 c 2
 251 471 l 2
 253 486 255 498 253 505 c 0
 252 510 233 512 228 512 c 1
 227 515 228 525 230 527 c 1
 247 526 268 526 284 526 c 0
 300 526 319 527 341 527 c 0
365 447 m 0
 369 482 360 509 326 509 c 0
 319 509 308 509 306 505 c 0
 304 500 303 489 301 476 c 2
 291 398 l 1
 291 398 304 398 308 398 c 0
 337 398 361 415 365 447 c 0
110 384 m 0
 94 254 178 149 299 149 c 0
 420 149 530 254 546 384 c 0
 562 514 477 618 356 618 c 0
 235 618 126 514 110 384 c 0
73 384 m 0
 92 535 220 657 360 657 c 0
 500 657 600 535 581 384 c 0
 562 233 433 111 293 111 c 0
 153 111 54 233 73 384 c 0
EndSplineSet
Validated: 33
EndChar

StartChar: macron
Encoding: 175 175 108
Width: 261
Flags: W
HStem: 552 38<16.403 249.369>
VStem: 15 236<552.288 589.712>
LayerCount: 2
Back
Fore
SplineSet
24 590 m 9
 246 590 l 2
 249 590 251 585 251 581 c 0
 251 573 246 558 240 552 c 1
 20 552 l 2
 17 552 15 558 15 563 c 0
 15 569 20 584 24 590 c 9
EndSplineSet
Validated: 1
EndChar

StartChar: degree
Encoding: 176 176 109
Width: 274
VWidth: 512
Flags: W
HStem: 431 42<137.05 222.054> 600 41<154.783 238.396>
VStem: 90 196
LayerCount: 2
Back
Fore
SplineSet
129 530 m 0
 125 498 146 473 176 473 c 0
 210 473 243 504 247 542 c 0
 251 574 230 600 200 600 c 0
 166 600 133 568 129 530 c 0
90 527 m 0
 96 590 153 641 208 641 c 0
 258 641 292 599 286 546 c 0
 280 484 224 431 168 431 c 0
 117 431 84 474 90 527 c 0
EndSplineSet
Validated: 33
EndChar

StartChar: plusminus
Encoding: 177 177 110
Width: 499
VWidth: 512
Flags: W
HStem: 16 47<5.46436 409.407> 306 47<62.4644 235 295 466.672>
LayerCount: 2
Back
Fore
SplineSet
408 63 m 2
 410 63 411 60 411 55 c 0
 411 42 409 28 398 16 c 1
 8 16 l 2
 5 16 3 19 3 24 c 0
 3 37 7 50 17 63 c 1
 408 63 l 2
64 306 m 2
 61 306 60 309 60 314 c 0
 60 327 64 340 74 353 c 1
 243 353 l 1
 276 526 l 2
 278 539 318 542 322 542 c 0
 330 542 331 538 330 534 c 2
 295 353 l 1
 464 353 l 2
 466 353 468 351 468 346 c 0
 468 333 467 318 456 306 c 1
 287 306 l 1
 252 130 l 2
 250 120 229 114 213 114 c 0
 203 114 200 118 200 122 c 2
 235 306 l 1
 64 306 l 2
EndSplineSet
Validated: 1
EndChar

StartChar: uni00B2
Encoding: 178 178 111
Width: 343
Flags: W
HStem: 254 65<132 274.111> 596 50<170.965 244.136>
VStem: 254 84<491.544 586.008>
LayerCount: 2
Back
Fore
SplineSet
338 558 m 0
 338 503 289 452 246 413 c 0
 204 373 151 333 132 319 c 1
 237 319 l 2
 268 319 283 346 296 370 c 0
 298 373 300 374 304 374 c 0
 307 374 317 371 318 369 c 1
 304 340 269 265 264 254 c 9
 264 254 51 254 49 254 c 1
 47 256 45 267 45 270 c 1
 89 312 147 366 193 417 c 0
 234 463 254 504 254 541 c 0
 254 574 232 596 201 596 c 0
 158 596 132 559 124 550 c 1
 120 550 112 560 113 567 c 1
 124 586 174 646 241 646 c 0
 296 646 338 610 338 558 c 0
EndSplineSet
Validated: 1
EndChar

StartChar: uni00B3
Encoding: 179 179 112
Width: 326
Flags: W
HStem: 246 31<119.26 192.316> 446 22<138.172 172.619> 601 45<168.079 237.861>
VStem: 230 82<329.555 436.542> 243 68<522.22 595.386>
LayerCount: 2
Back
Fore
SplineSet
235 646 m 0xe8
 266 646 311 628 311 574 c 0xe8
 311 524 255 492 229 481 c 1
 260 479 312 454 312 398 c 0
 312 295 188 246 124 246 c 0
 91 246 61 255 49 265 c 1
 47 270 43 281 44 289 c 0
 46 307 63 330 81 330 c 0
 100 330 107 313 115 298 c 0
 124 282 139 277 155 277 c 0
 190 277 230 318 230 379 c 0xf0
 230 417 211 449 173 449 c 0
 165 449 149 448 141 446 c 1
 139 449 138 450 138 454 c 0
 138 457 139 466 140 468 c 1
 180 474 243 502 243 556 c 0
 243 578 230 601 200 601 c 0
 164 601 137 562 131 558 c 1
 127 558 118 568 120 576 c 1
 150 617 190 646 235 646 c 0xe8
EndSplineSet
Validated: 1
EndChar

StartChar: acute
Encoding: 180 180 113
Width: 212
VWidth: 512
Flags: W
HStem: 524 162
VStem: 76 183
LayerCount: 2
Back
Fore
SplineSet
224 686 m 0
 254 686 260 670 259 662 c 0
 255 624 97 524 88 524 c 0
 82 524 76 537 76 542 c 0
 76 550 153 644 183 674 c 0
 193 684 208 686 224 686 c 0
EndSplineSet
Validated: 33
EndChar

StartChar: paragraph
Encoding: 182 182 115
Width: 522
Flags: W
HStem: -86 44<178 258.113> 622 37<337.846 392.901 491.005 554>
VStem: 66 209<355.733 525.498>
LayerCount: 2
Back
Fore
SplineSet
306 659 m 0
 361 659 411 656 447 656 c 0
 485 656 522 659 560 662 c 1
 564 656 560 635 554 629 c 1
 542 629 501 624 495 612 c 0
 485 594 479 565 472 528 c 1
 456 435 422 253 410 190 c 1
 378 26 274 -86 194 -86 c 0
 162 -86 139 -74 130 -64 c 1
 128 -57 126 -49 126 -40 c 0
 127 -17 140 4 160 4 c 0
 177 4 189 -5 200 -19 c 0
 208 -29 217 -42 233 -42 c 0
 272 -42 284 27 315 186 c 1
 383 537 l 2
 389 567 395 600 393 612 c 0
 391 621 382 622 374 622 c 0
 330 622 275 534 275 448 c 0
 275 380 291 343 323 325 c 1
 325 324 330 318 330 316 c 0
 330 291 268 273 237 273 c 0
 115 273 66 369 66 440 c 0
 66 584 221 659 306 659 c 0
EndSplineSet
Validated: 33
EndChar

StartChar: periodcentered
Encoding: 183 183 116
Width: 230
VWidth: 512
Flags: W
HStem: 196 134<76.8779 149.088>
VStem: 51 125<223.468 304.453>
LayerCount: 2
Back
Fore
SplineSet
51 251 m 0
 51 293 89 330 127 330 c 1
 156 330 176 308 176 278 c 0
 176 238 140 196 102 196 c 1
 72 196 51 221 51 251 c 0
EndSplineSet
Validated: 1
EndChar

StartChar: cedilla
Encoding: 184 184 117
Width: 284
VWidth: 512
Flags: W
HStem: -158 24<92.9763 153.547> -63 35<148 163.625>
VStem: 166 44<-120.814 -63.4444>
LayerCount: 2
Back
Fore
SplineSet
146 -4 m 1
 170 -4 l 9
 148 -28 l 25
 168 -28 l 2
 191 -28 210 -46 210 -70 c 0
 210 -114 163 -158 99 -158 c 3
 87 -158 69 -152 63 -148 c 1
 62 -146 61 -142 61 -139 c 0
 61 -123 72 -116 78 -116 c 3
 93 -116 99 -134 121 -134 c 3
 147 -134 166 -118 166 -94 c 0
 166 -73 152 -63 140 -63 c 0
 130 -63 123 -66 113 -70 c 0
 111 -70 102 -63 102 -59 c 0
 102 -55 121 -38 146 -4 c 1
EndSplineSet
Validated: 1
EndChar

StartChar: uni00B9
Encoding: 185 185 118
Width: 260
Flags: W
VStem: 124 98<458.057 563.898>
LayerCount: 2
Back
Fore
SplineSet
124 534 m 1
 125 549 123 562 117 564 c 0
 113 564 101 561 96 559 c 1
 122 573 162 601 164 605 c 1
 166 609 l 1
 204 624 247 641 248 639 c 1
 248 639 244 629 240 610 c 2
 242 610 222 484 222 482 c 1
 217 466 209 440 205 412 c 1
 205 409 208 311 210 311 c 1
 209 302 208 282 210 276 c 0
 213 270 228 267 230 266 c 1
 220 267 190 254 178 254 c 1
 156 254 117 255 94 254 c 1
 82 256 58 264 48 264 c 1
 50 266 73 280 76 283 c 1
 82 289 100 297 105 307 c 1
 108 310 132 424 133 430 c 2
 137 448 138 452 134 458 c 1
 127 458 128 536 124 534 c 1
EndSplineSet
Validated: 33
EndChar

StartChar: ordmasculine
Encoding: 186 186 119
Width: 350
Flags: W
HStem: 249 26<151.844 203.954> 528 26<200.3 253.106>
VStem: 61 76<279.535 434.129> 265 76<370.168 524.603>
LayerCount: 2
Back
Fore
SplineSet
233 528 m 0
 173 528 137 422 137 350 c 0
 137 314 147 275 172 275 c 0
 231 275 265 383 265 452 c 0
 265 491 257 528 233 528 c 0
242 554 m 0
 303 554 341 522 341 452 c 0
 341 356 245 249 158 249 c 0
 97 249 61 286 61 348 c 0
 61 444 155 554 242 554 c 0
EndSplineSet
Validated: 1
EndChar

StartChar: guillemotright
Encoding: 187 187 120
Width: 481
VWidth: 512
Flags: W
LayerCount: 2
Back
Fore
SplineSet
84 404 m 1
 90 414 102 421 108 423 c 1
 125 401 189 328 272 266 c 1
 276 262 278 257 278 251 c 0
 278 243 272 236 266 232 c 1
 142 161 79 103 41 73 c 1
 37 74 23 80 21 90 c 1
 26 99 162 230 182 248 c 1
 168 266 86 397 84 404 c 1
260 404 m 1
 266 414 279 421 285 423 c 1
 302 401 365 328 448 266 c 1
 452 262 455 257 455 251 c 0
 455 243 449 236 443 232 c 1
 319 161 256 103 218 73 c 1
 214 74 200 80 198 90 c 1
 203 99 340 230 360 248 c 1
 346 266 262 397 260 404 c 1
EndSplineSet
Validated: 1
EndChar

StartChar: onequarter
Encoding: 188 188 121
Width: 669
VWidth: 512
Flags: W
HStem: -2 21G<158 172.066 499 517> 108 44<391 493 575 611.829> 254 23<46.7824 98.4394 182.783 229.332>
LayerCount: 2
Back
Fore
SplineSet
609 402 m 0
 615 402 622 392 621 387 c 2
 575 152 l 25
 609 152 l 18
 613 152 613 141 612 132 c 0
 612 124 606 112 604 108 c 1
 566 108 l 25
 546 2 l 1
 546 2 528 -2 506 -2 c 0
 492 -2 472 0 473 4 c 2
 493 108 l 25
 330 108 l 1
 326 110 325 118 326 122 c 1
 589 394 l 2
 595 400 605 402 609 402 c 0
530 298 m 25
 391 152 l 25
 501 152 l 25
 530 298 l 25
94 549 m 1
 90 551 88 562 88 566 c 0
 88 567 89 570 91 571 c 1
 150 600 228 639 245 647 c 1
 247 647 l 2
 250 647 252 636 252 630 c 1
 252 630 238 603 228 550 c 2
 188 343 l 2
 184 323 182 301 182 291 c 0
 182 279 227 277 231 277 c 0
 233 277 232 266 231 262 c 0
 230 259 230 255 229 254 c 1
 207 255 152 257 130 257 c 0
 108 257 69 255 46 254 c 1
 44 257 47 277 50 277 c 0
 57 277 94 281 99 289 c 0
 104 299 106 311 108 323 c 2
 145 510 l 2
 152 546 156 566 146 566 c 0
 137 566 104 553 94 549 c 1
606 630 m 2
 158 -7 l 1
 158 -7 132 -7 132 4 c 0
 132 6 133 8 134 10 c 26
 583 646 l 1
 583 646 607 645 607 634 c 0
 607 632 607 631 606 630 c 2
EndSplineSet
Validated: 33
EndChar

StartChar: onehalf
Encoding: 189 189 122
Width: 718
VWidth: 512
Flags: W
HStem: 0 65<470 612.958> 254 23<46.7824 98.4394 182.783 229.332> 341 50<508.965 582.136>
VStem: 592 84<236.103 331.462>
LayerCount: 2
Back
Fore
SplineSet
676 304 m 0
 676 249 628 197 585 158 c 0
 543 118 489 79 470 65 c 1
 575 65 l 2
 606 65 621 91 634 115 c 0
 636 118 639 120 643 120 c 0
 646 120 656 116 657 114 c 1
 643 85 608 11 603 0 c 9
 603 0 389 0 387 0 c 1
 385 2 383 12 383 15 c 1
 427 57 485 112 531 163 c 0
 572 209 592 249 592 286 c 0
 592 319 570 341 539 341 c 0
 496 341 470 304 462 295 c 1
 458 295 450 306 451 313 c 1
 462 332 512 391 579 391 c 0
 634 391 676 356 676 304 c 0
94 549 m 1
 90 551 88 562 88 566 c 0
 88 567 89 570 91 571 c 1
 150 600 228 639 245 647 c 1
 247 647 l 2
 250 647 252 636 252 630 c 1
 252 630 238 603 228 550 c 2
 188 343 l 2
 184 323 182 301 182 291 c 0
 182 279 227 277 231 277 c 0
 233 277 232 266 231 262 c 0
 230 259 230 255 229 254 c 1
 207 255 152 257 130 257 c 0
 108 257 69 255 46 254 c 1
 44 257 47 277 50 277 c 0
 57 277 94 281 99 289 c 0
 104 299 106 311 108 323 c 2
 145 510 l 2
 152 546 156 566 146 566 c 0
 137 566 104 553 94 549 c 1
606 630 m 2
 158 -7 l 1
 158 -7 132 -7 132 4 c 0
 132 6 133 8 134 10 c 26
 583 646 l 1
 583 646 607 645 607 634 c 0
 607 632 607 631 606 630 c 2
EndSplineSet
Validated: 33
EndChar

StartChar: threequarters
Encoding: 190 190 123
Width: 678
VWidth: 512
Flags: W
HStem: -2 21G<158 172.097 509 527> 108 44<401 503 585 621.829> 246 31<109.26 182.316> 446 22<128.172 162.619> 601 45<158.079 227.861>
VStem: 220 82<329.555 436.542> 233 68<522.22 595.386>
LayerCount: 2
Back
Fore
SplineSet
619 402 m 0xf8
 625 402 632 392 631 387 c 2
 631 387 585 152 585 152 c 25
 585 152 619 152 619 152 c 18
 623 152 623 141 622 132 c 0
 622 124 616 112 614 108 c 1
 614 108 577 108 577 108 c 25
 577 108 556 2 556 2 c 1
 556 2 538 -2 516 -2 c 0
 502 -2 482 0 483 4 c 2
 483 4 503 108 503 108 c 25
 503 108 340 108 340 108 c 1
 336 110 335 118 336 122 c 1
 336 122 599 394 599 394 c 2
 605 400 615 402 619 402 c 0xf8
540 298 m 25
 540 298 401 152 401 152 c 25
 401 152 511 152 511 152 c 25
 511 152 540 298 540 298 c 25
225 646 m 0
 256 646 301 628 301 574 c 0xfa
 301 524 245 492 219 481 c 1
 250 479 302 454 302 398 c 0
 302 295 178 246 114 246 c 0
 81 246 51 255 39 265 c 1
 37 270 33 281 34 289 c 0
 36 307 53 330 71 330 c 0
 90 330 97 313 105 298 c 0
 114 282 129 277 145 277 c 0
 180 277 220 318 220 379 c 0xfc
 220 417 201 449 163 449 c 0
 155 449 139 448 131 446 c 1
 129 449 128 450 128 454 c 0
 128 457 129 466 130 468 c 1
 170 474 233 502 233 556 c 0xfa
 233 578 220 601 190 601 c 0
 154 601 127 562 121 558 c 1
 117 558 108 568 110 576 c 1
 140 617 180 646 225 646 c 0
607 630 m 2
 607 630 158 -7 158 -7 c 1
 158 -7 132 -7 132 4 c 0
 132 6 133 8 134 10 c 26
 134 10 584 646 584 646 c 1
 584 646 608 645 608 634 c 0
 608 632 608 631 607 630 c 2
EndSplineSet
Validated: 33
EndChar

StartChar: questiondown
Encoding: 191 191 124
Width: 337
VWidth: 512
Flags: W
HStem: -208 61<45.2992 122.584> 316 127<190.75 262.149>
VStem: -26 62<-138.987 -46.7028> 166 118<338.102 418.861> 172 81<123.061 189.541>
LayerCount: 2
Back
Fore
SplineSet
284 384 m 0xf0
 280 346 248 316 214 316 c 1
 184 316 162 340 166 372 c 0
 170 409 204 443 238 443 c 1
 269 443 288 416 284 384 c 0xf0
135 224 m 1
 135 229 141 239 146 242 c 1
 170 242 253 194 253 138 c 3
 253 84 214 59 188 41 c 0
 151 15 113 -2 74 -32 c 0
 54 -48 36 -66 36 -98 c 3
 36 -130 52 -147 80 -147 c 0
 117 -147 133 -99 167 -99 c 0
 205 -99 214 -140 206 -168 c 1
 198 -183 163 -208 121 -208 c 0
 42 -208 -26 -139 -26 -71 c 0
 -26 -23 -14 14 40 52 c 0
 60 68 96 85 136 112 c 0
 160 128 172 144 172 166 c 3xe8
 172 195 145 218 135 224 c 1
EndSplineSet
Validated: 33
EndChar

StartChar: AE
Encoding: 198 198 131
Width: 827
VWidth: 512
Flags: W
HStem: -4 32<-60.8906 -7.97725 93.966 143.552 289.514 351.692> -0 43<481.649 674.659> 282 46<265 391.999> 299 46<508.25 639.51> 618 46<368.579 392.75 572.275 725.5> 618 38<369.978 393.99 533.873 689.804>
VStem: 392 90<78.0639 147.766> 662 28<222.024 285.165> 755 32<518.139 578.543>
LayerCount: 2
Back
Fore
SplineSet
485 656 m 1xa780
 548 656 709 664 787 664 c 1
 787 614 786 567 787 523 c 1
 784 520 775 518 768 518 c 0
 762 518 755 521 755 526 c 0
 746 592 714 618 669 618 c 2
 669 618 601 618 601 618 c 2
 571 618 541 618 536 606 c 0
 529 586 527 560 523 526 c 2
 523 526 507 353 507 353 c 2
 507 347 523 345 542 345 c 2
 542 345 583 345 583 345 c 2
 653 345 658 351 684 415 c 0
 686 420 691 422 697 422 c 0
 704 422 711 421 713 418 c 1
 705 386 692 258 690 226 c 1
 688 224 681 222 675 222 c 0
 669 222 662 224 662 229 c 0
 658 281 648 287 640 292 c 0
 630 298 591 299 556 299 c 0
 530 299 502 297 501 287 c 2
 501 287 487 148 487 148 c 2
 487 144 479 76 482 62 c 0
 484 50 502 43 542 43 c 2
 542 43 580 43 580 43 c 2
 615 43 655 50 681 68 c 0
 702 84 723 117 746 166 c 0
 748 170 753 172 760 172 c 0
 769 172 782 169 784 166 c 1
 758 112 727 41 714 -3 c 1
 651 -3 519 0 414 -0 c 0x5b80
 351 -0 294 -3 288 -3 c 1
 285 3 288 28 293 32 c 1
 305 32 354 39 360 50 c 0
 371 69 376 109 381 158 c 1
 383 177 390 256 392 275 c 1
 392 278 390 281 387 281 c 0
 357 283 325 282 313 282 c 1
 294 282 266 282 236 281 c 0
 233 281 231 279 229 277 c 2
 229 277 139 147 129 133 c 1
 103 95 88 67 87 58 c 0
 83 37 136 28 144 28 c 1
 146 24 145 0 141 -4 c 1
 107 -1 79 3 38 3 c 0
 -5 3 -23 -1 -61 -4 c 1
 -63 -2 -65 22 -59 28 c 1
 -48 28 -6 40 8 54 c 0
 34 81 51 104 73 136 c 2
 73 136 387 588 387 588 c 1
 389 590 394 598 394 604 c 0
 394 614 380 624 366 624 c 1
 363 628 366 652 369 658 c 1
 389 656 465 656 485 656 c 1xa780
421 557 m 1
 421 557 265 334 265 334 c 1
 265 334 265 330 267 330 c 0
 285 328 307 328 325 328 c 0x2380
 349 328 369 328 393 330 c 1
 394 330 398 336 398 336 c 1
 398 336 421 549 421 557 c 1
EndSplineSet
Validated: 33
EndChar

StartChar: Eth
Encoding: 208 208 141
Width: 701
Flags: W
HStem: -3 38<-1.39966 68.5293 185.206 357.083> 308 38<61.1963 401.283> 622 37<118.109 175.674 291.303 439.566>
LayerCount: 2
Back
Fore
SplineSet
69 346 m 1
 97 346 386 346 399 346 c 0
 403 346 405 342 404 338 c 0
 403 333 399 315 394 308 c 1
 366 308 76 308 63 308 c 0
 59 308 59 316 60 320 c 0
 61 325 62 339 69 346 c 1
EndSplineSet
Refer: 35 68 N 1 0 0 1 0 0 2
Validated: 5
EndChar

StartChar: multiply
Encoding: 215 215 148
Width: 422
Flags: W
HStem: 214 64<195.484 214>
VStem: 174 64<229.375 260.188>
LayerCount: 2
Back
Fore
SplineSet
32 69 m 0
 26 69 18 94 18 110 c 1
 172 246 l 2
 173 247 174 247 174 248 c 0
 174 250 172 255 171 256 c 2
 72 390 l 1
 72 404 97 425 102 425 c 0
 105 425 104 423 106 421 c 2
 210 280 l 2
 211 279 213 278 214 278 c 2
 216 279 l 26
 374 420 l 2
 376 422 378 423 380 423 c 0
 387 423 394 398 394 380 c 1
 240 244 l 2
 239 243 238 243 238 242 c 3
 238 241 239 241 240 240 c 2
 340 104 l 1
 340 90 322 69 315 69 c 0
 311 69 309 70 308 72 c 2
 205 212 l 2
 204 213 203 214 202 214 c 0
 201 214 199 213 198 212 c 2
 37 72 l 2
 35 70 34 69 32 69 c 0
EndSplineSet
Validated: 1
EndChar

StartChar: Oslash
Encoding: 216 216 149
Width: 707
Flags: W
HStem: -10 40<253.487 400.389> 626 40<335.872 471.667> 648 20G<583.292 603>
VStem: 55 119<153.852 402.8> 556 119<248.095 501.839>
LayerCount: 2
Back
Fore
SplineSet
106 -13 m 17xb8
 98 -10 78 5 83 11 c 9
 83 11 599 668 599 668 c 17
 607 666 628 651 623 645 c 9
 623 645 106 -13 106 -13 c 17xb8
EndSplineSet
Refer: 46 79 N 1 0 0 1 0 0 3
Validated: 37
EndChar

StartChar: Thorn
Encoding: 222 222 155
Width: 531
Flags: W
HStem: -4 33<-3.625 64.689 183.124 238.891> 134 41<230.599 331.442> 470 42<270.233 369.697> 628 33<119.869 174.999 292.578 361.125>
VStem: 175 93<503.125 606.918>
LayerCount: 2
Back
Fore
SplineSet
351 512 m 0
 449 512 537 429 515 314 c 0
 496 217 397 134 285 134 c 0
 258 134 237 146 229 156 c 0
 227 159 226 170 226 176 c 0
 226 180 227 183 229 183 c 1
 240 177 251 175 271 175 c 0
 325 175 385 222 400 300 c 0
 417 389 389 470 319 470 c 0
 303 470 280 467 268 457 c 0
 258 449 252 434 247 408 c 2
 193 130 l 2
 186 94 180 64 183 46 c 0
 185 34 229 29 241 29 c 1
 244 23 241 2 235 -4 c 1
 199 -1 153 2 115 2 c 0
 78 2 31 -1 -7 -4 c 1
 -10 2 -5 23 -0 29 c 1
 12 29 59 34 65 46 c 0
 75 64 80 94 87 130 c 2
 165 528 l 2
 172 564 178 594 175 612 c 0
 173 624 128 628 116 628 c 1
 113 634 117 655 123 661 c 1
 163 659 205 657 243 657 c 0
 280 657 326 660 364 663 c 1
 368 657 364 636 358 630 c 1
 346 630 299 625 293 613 c 0
 284 593 275 555 269 520 c 0
 268 516 268 506 268 504 c 0
 268 502 269 502 271 502 c 0
 290 508 316 512 351 512 c 0
EndSplineSet
Validated: 33
EndChar

StartChar: germandbls
Encoding: 223 223 156
Width: 505
VWidth: 512
Flags: W
HStem: -226 44<-84 -3.6424> -4 32<298.699 366.004> 377 42<44.2066 111> 648 42<281.749 362.361>
VStem: 254 78<306.191 373.281> 380 77<56.1713 136.677> 389 88<492.675 620.983>
LayerCount: 2
Back
Fore
SplineSet
214 419 m 0xfa
 188 275 172 176 148 50 c 0
 116 -114 12 -226 -68 -226 c 0
 -100 -226 -123 -214 -132 -204 c 1
 -134 -197 -136 -188 -136 -179 c 0
 -135 -156 -123 -135 -103 -135 c 0
 -86 -135 -74 -144 -63 -158 c 0
 -55 -168 -46 -182 -30 -182 c 0
 9 -182 22 -113 53 46 c 1
 53 46 111 377 111 377 c 1
 111 377 36 377 36 377 c 2
 35 377 34 378 34 380 c 0
 34 390 58 419 81 419 c 2
 81 419 118 419 118 419 c 1
 150 583 268 690 348 690 c 0
 407 690 477 649 477 571 c 0xfa
 477 476 398 433 368 408 c 0
 348 391 332 373 332 356 c 3
 332 329 361 297 383 269 c 0
 423 219 457 181 457 124 c 1
 457 52 391 -4 312 -4 c 3
 252 -4 232 10 216 22 c 1
 212 28 205 40 205 55 c 0
 206 83 227 98 248 98 c 3
 281 98 283 28 332 28 c 0
 360 28 380 50 380 82 c 0xfc
 380 119 332 171 306 204 c 0
 277 240 254 271 254 317 c 0
 254 365 292 388 335 432 c 0
 357 454 389 494 389 552 c 0
 389 588 367 648 321 648 c 0
 270 648 240 568 214 419 c 0xfa
EndSplineSet
Validated: 1
EndChar

StartChar: ae
Encoding: 230 230 163
Width: 582
VWidth: 512
Flags: W
HStem: -8 62<65 151.529> -6 71<314.5 401.189> 194 34<332 379.462> 404 38<175.087 275 399.506 504>
VStem: 60 84<299.371 363.483> 467 96<305.393 400.994>
LayerCount: 2
Back
Fore
SplineSet
434 403 m 1x3c
 378 403 339 290 332 228 c 1
 371 228 467 290 467 364 c 1
 467 386 455 403 434 403 c 1x3c
225 99 m 1
 223 106 232 194 235 205 c 1
 202 199 165 185 149 176 c 0
 120 160 106 134 104 112 c 1
 100 74 122 54 146 54 c 1xbc
 172 54 220 90 225 99 c 1
254 442 m 1
 296 442 326 415 337 379 c 1
 374 416 426 442 474 442 c 0
 534 442 563 406 563 364 c 1
 563 268 396 199 328 194 c 1
 327 190 325 169 325 160 c 0
 325 110 341 65 390 65 c 1
 434 65 488 128 492 132 c 1
 498 132 505 114 505 107 c 1
 481 71 393 -6 336 -6 c 1x7c
 293 -6 250 20 234 64 c 1
 218 48 120 -8 92 -8 c 1
 38 -8 0 37 5 97 c 0
 9 139 41 175 65 187 c 0
 91 198 182 226 234 242 c 0
 240 244 240 249 242 260 c 2
 242 260 249 314 249 314 c 2
 250 322 250 331 250 337 c 1
 250 369 237 404 206 404 c 0
 174 404 160 374 144 333 c 0
 133 306 117 288 91 288 c 0
 69 288 58 309 60 327 c 0
 62 340 68 353 76 364 c 1
 98 383 183 442 254 442 c 1
EndSplineSet
Validated: 33
EndChar

StartChar: eth
Encoding: 240 240 173
Width: 451
VWidth: 0
UnlinkRmOvrlpSave: 1
Flags: W
HStem: -7 40<142.793 217.644> 404 40<200.56 284.313> 669 22<150.613 163.609>
LayerCount: 2
Back
Fore
SplineSet
164 509 m 17
 160 516 150 536 155 541 c 9
 405 705 l 17
 409 699 420 679 415 674 c 9
 164 509 l 17
144 669 m 1
 145 676 153 691 160 691 c 1
 300 652 444 502 396 256 c 0
 367 108 255 -7 165 -7 c 0
 43 -7 7 100 28 210 c 0
 49 318 153 444 259 444 c 0
 285 444 305 435 313 426 c 1
 314 497 289 593 144 669 c 1
290 217 m 0
 301 272 305 334 301 350 c 0
 292 385 270 404 244 404 c 0
 184 404 147 310 130 217 c 0
 112 119 129 33 173 33 c 0
 232 33 271 119 290 217 c 0
EndSplineSet
Validated: 37
EndChar

StartChar: divide
Encoding: 247 247 180
Width: 523
VWidth: 0
Flags: W
HStem: 2 106<187.907 257.813> 224 49<43.8938 473.703> 388 106<261.477 331.275>
VStem: 176 96<16 96.6131> 249 96<401.916 482.464>
LayerCount: 2
Back
Fore
SplineSet
46 224 m 2xe0
 43 224 41 227 41 232 c 0
 41 244 46 263 54 273 c 1
 54 273 473 273 473 273 c 2
 475 273 476 269 476 264 c 0
 476 251 472 235 464 224 c 1
 464 224 46 224 46 224 c 2xe0
304 494 m 1
 328 494 345 474 345 450 c 1
 345 418 320 388 288 388 c 1
 264 388 249 410 249 434 c 1xe8
 249 466 272 494 304 494 c 1
230 108 m 1
 254 108 272 88 272 64 c 1
 272 32 246 2 214 2 c 1
 190 2 176 24 176 48 c 1xf0
 176 80 198 108 230 108 c 1
EndSplineSet
Validated: 1
EndChar

StartChar: oslash
Encoding: 248 248 181
Width: 435
Flags: W
HStem: -10 21G<70 84.2072> -6 36<141.252 211.095> 406 36<206.044 276.837>
VStem: 20 102<50.5312 248.426> 294 102<185.783 386.741>
LayerCount: 2
Back
Fore
SplineSet
72 -10 m 17xb8
 68 -8 51 -1 54 3 c 9
 54 3 325 447 325 447 c 17
 329 446 346 438 343 434 c 9
 343 434 72 -10 72 -10 c 17xb8
EndSplineSet
Refer: 78 111 N 1 0 0 1 0 0 2
Validated: 5
EndChar

StartChar: thorn
Encoding: 254 254 187
Width: 473
Flags: W
HStem: -227 30<-52.4178 -12.2751> -218 28<113.804 160.581> -5 40<163.524 238.553> 372 70<280.055 379> 632 25<95.6956 152.211> 672 20G<244 257.5>
VStem: 156 105<550.807 675> 338 102<209.866 364.499>
LayerCount: 2
Back
Fore
SplineSet
248 598 m 2xbf
 245 580 203 368 201 360 c 1
 229 388 296 442 347 442 c 0
 411 442 440 391 440 321 c 0
 440 159 290 -5 168 -5 c 0
 156 -5 140 -3 132 4 c 1
 132 4 102 -136 102 -136 c 2
 100 -145 99 -154 99 -164 c 0
 99 -169 103 -183 113 -186 c 0
 130 -190 157 -190 160 -190 c 0
 164 -191 162 -217 157 -219 c 1
 144 -219 133 -218 122 -218 c 0x7f
 71 -218 7 -220 -51 -227 c 1
 -56 -226 -54 -200 -49 -197 c 1
 -31 -197 -18 -191 -9 -180 c 0
 -2 -171 2 -161 7 -138 c 2
 7 -138 84 241 84 241 c 1
 84 241 36 193 36 193 c 1
 32 198 29 210 29 216 c 0
 29 224 34 231 38 234 c 2
 38 234 93 290 93 290 c 1
 93 290 147 560 147 560 c 2
 151 578 156 603 156 614 c 0
 156 633 111 632 95 632 c 1
 92 636 95 653 99 657 c 1
 154 662 233 684 255 692 c 1
 260 689 261 678 261 672 c 0
 261 664 253 622 248 598 c 2xbf
292 372 m 0
 260 372 216 342 192 312 c 1
 190 298 158 140 158 140 c 2
 145 72 165 35 193 35 c 0
 271 35 338 199 338 301 c 0
 338 345 324 372 292 372 c 0
EndSplineSet
Validated: 33
EndChar

StartChar: dagger
Encoding: 8224 8224 190
Width: 369
Flags: W
HStem: 434 86<80.6995 134.875 316.625 368.41> 464 23<140.141 196.931 248.201 311.532> 642 20G<247.5 268>
VStem: 124 14<-14.7717 21.6058>
LayerCount: 2
Back
Fore
SplineSet
184 487 m 8x70
 198 487 204 492 216 505 c 1
 222 538 226 606 212 625 c 1
 216 646 237 662 258 662 c 0
 278 662 297 646 293 625 c 1
 272 606 250 538 244 505 c 1
 251 492 257 487 269 487 c 0x70
 300 487 329 501 350 520 c 1
 370 520 379 498 377 478 c 0
 375 457 354 434 334 434 c 1xb0
 320 453 294 464 264 464 c 24
 248 464 234 448 232 436 c 1
 235 419 241 394 247 365 c 1
 200 227 189 178 138 -3 c 1
 134 -9 133 -15 129 -16 c 1
 126 -15 126 -7 124 -3 c 1
 143 178 151 227 157 365 c 1
 172 390 190 419 200 436 c 1
 202 448 194 464 180 464 c 24x70
 148 464 119 453 98 434 c 1
 78 434 69 453 71 474 c 0
 73 495 95 520 115 520 c 1xb0
 129 501 153 487 184 487 c 8x70
EndSplineSet
Validated: 33
EndChar

StartChar: daggerdbl
Encoding: 8225 8225 191
Width: 385
Flags: W
HStem: 126 86<28.4977 79.9052 261.625 315.936> 159 23<84.8125 148.898 199.499 256.452> 434 86<88.8091 142.375 323.866 376.712> 464 23<147.912 204.37 255.293 319.434> 642 20G<257.5 278>
LayerCount: 2
Back
Fore
SplineSet
239 281 m 1x18
 222 252 206 227 196 210 c 1
 194 198 203 182 217 182 c 24x58
 249 182 277 193 298 212 c 1
 318 212 330 191 326 170 c 0
 322 149 301 126 281 126 c 1x88
 267 145 244 159 213 159 c 0
 201 159 193 154 181 141 c 1
 175 108 169 40 183 21 c 1
 179 0 157 -16 137 -16 c 0
 116 -16 99 0 103 21 c 1
 124 40 147 108 153 141 c 1
 146 154 141 159 128 159 c 16x48
 97 159 67 145 46 126 c 1
 26 126 16 149 20 170 c 0
 24 191 43 212 63 212 c 1x88
 77 193 101 182 132 182 c 24
 146 182 162 198 164 210 c 1
 161 227 153 256 148 281 c 1
 163 295 176 312 184 324 c 1
 180 336 173 349 165 365 c 1
 180 390 198 419 208 436 c 1
 210 448 201 464 187 464 c 24x58
 155 464 127 453 106 434 c 1
 86 434 75 455 79 476 c 0
 83 497 103 520 123 520 c 1x28
 137 501 161 487 192 487 c 8
 204 487 211 492 223 505 c 1
 229 538 234 606 220 625 c 1
 224 646 247 662 268 662 c 0
 288 662 305 646 301 625 c 1
 280 606 257 538 251 505 c 1
 258 492 264 487 276 487 c 0x18
 307 487 337 501 358 520 c 1
 378 520 389 497 385 476 c 0
 381 455 362 434 342 434 c 1x28
 328 453 303 464 272 464 c 24
 258 464 241 448 239 436 c 1
 242 419 249 394 255 365 c 1
 241 351 228 336 220 324 c 1
 222 314 228 297 239 281 c 1x18
EndSplineSet
Validated: 33
EndChar

StartChar: bullet
Encoding: 8226 8226 192
Width: 369
Flags: W
HStem: 139 248<139.006 227.678>
VStem: 68 230
LayerCount: 2
Back
Fore
SplineSet
68 263 m 0
 81 331 144 387 208 387 c 0
 272 387 311 331 298 263 c 0
 285 195 223 139 159 139 c 0
 95 139 55 195 68 263 c 0
EndSplineSet
Validated: 33
EndChar

StartChar: uni2010
Encoding: 8208 8208 193
Width: 366
VWidth: 512
Flags: W
VStem: 50 256<208.329 264>
LayerCount: 2
Back
Fore
SplineSet
72 264 m 2
 300 276 l 2
 305 276 306 269 306 264 c 0
 306 251 291 208 281 207 c 10
 55 196 l 2
 52 196 50 203 50 211 c 0
 50 222 61 263 72 264 c 2
EndSplineSet
Validated: 1
EndChar

StartChar: uni2011
Encoding: 8209 8209 194
Width: 366
VWidth: 512
Flags: W
VStem: 50 256<208.329 264>
LayerCount: 2
Back
Fore
SplineSet
72 264 m 2
 300 276 l 2
 305 276 306 269 306 264 c 0
 306 251 291 208 281 207 c 10
 55 196 l 2
 52 196 50 203 50 211 c 0
 50 222 61 263 72 264 c 2
EndSplineSet
Validated: 1
EndChar

StartChar: figuredash
Encoding: 8210 8210 195
Width: 521
Flags: W
HStem: 197 68<58 448>
LayerCount: 2
Back
Fore
SplineSet
450 265 m 2
 456 265 456 256 456 250 c 0
 456 232 442 203 434 197 c 1
 56 197 l 2
 50 197 50 206 50 212 c 0
 50 230 64 259 72 265 c 1
 450 265 l 2
EndSplineSet
Validated: 1
EndChar

StartChar: endash
Encoding: 8211 8211 196
Width: 545
Flags: W
HStem: 197 68<58 472>
LayerCount: 2
Back
Fore
SplineSet
473 265 m 2
 479 265 480 256 480 250 c 0
 480 232 466 203 458 197 c 1
 56 197 l 2
 50 197 50 206 50 212 c 0
 50 230 64 259 72 265 c 1
 473 265 l 2
EndSplineSet
Validated: 1
EndChar

StartChar: emdash
Encoding: 8212 8212 197
Width: 840
Flags: W
HStem: 197 68<59 767>
LayerCount: 2
Back
Fore
SplineSet
768 265 m 2
 774 265 775 256 775 250 c 0
 775 232 761 203 753 197 c 1
 58 197 l 2
 52 197 51 206 51 212 c 0
 51 230 65 259 73 265 c 1
 768 265 l 2
EndSplineSet
Validated: 1
EndChar

StartChar: afii00208
Encoding: 8213 8213 198
Width: 1069
Flags: W
HStem: 197 68<60 995>
LayerCount: 2
Back
Fore
SplineSet
996 265 m 2
 1002 265 1003 256 1003 250 c 0
 1003 232 989 203 981 197 c 1
 58 197 l 2
 52 197 52 206 52 212 c 0
 52 230 66 259 74 265 c 1
 996 265 l 2
EndSplineSet
Validated: 1
EndChar

StartChar: quoteleft
Encoding: 8216 8216 199
Width: 187
Flags: W
HStem: 478 228
VStem: 102 93<494.468 580.445>
LayerCount: 2
Back
Fore
SplineSet
101 555 m 0
 119 649 225 706 233 706 c 0
 240 706 246 699 248 688 c 1
 185 652 174 615 172 606 c 0
 168 586 176 570 183 558 c 0
 190 546 198 537 195 524 c 0
 190 500 156 478 126 478 c 0
 119 478 109 481 102 485 c 1
 96 498 96 527 101 555 c 0
EndSplineSet
Validated: 33
EndChar

StartChar: quoteright
Encoding: 8217 8217 200
Width: 195
Flags: W
HStem: 479 228
VStem: 138 92<600.51 690.825>
LayerCount: 2
Back
Fore
SplineSet
229 630 m 0
 211 536 108 479 100 479 c 0
 93 479 86 486 84 497 c 1
 147 533 158 571 160 580 c 0
 164 600 156 614 149 626 c 0
 142 638 135 647 138 660 c 0
 143 684 175 707 205 707 c 0
 212 707 223 704 230 700 c 1
 236 687 234 658 229 630 c 0
EndSplineSet
Validated: 33
EndChar

StartChar: quotesinglbase
Encoding: 8218 8218 201
Width: 198
Flags: W
HStem: -102 228
VStem: 12 93<26.6731 108.962>
LayerCount: 2
Back
Fore
SplineSet
105 48 m 0
 87 -46 -18 -102 -26 -102 c 0
 -33 -102 -40 -95 -42 -84 c 1
 21 -48 34 -11 36 -2 c 0
 40 18 31 32 24 44 c 0
 17 56 9 66 12 79 c 0
 17 103 51 126 81 126 c 0
 88 126 98 122 105 118 c 1
 111 105 110 76 105 48 c 0
EndSplineSet
Validated: 33
EndChar

StartChar: quotedblleft
Encoding: 8220 8220 202
Width: 323
Flags: W
HStem: 478 228
VStem: 102 93<494.468 580.445> 237 93<493.628 580.323>
LayerCount: 2
Back
Fore
SplineSet
237 555 m 0
 255 649 360 706 368 706 c 0
 375 706 382 699 384 688 c 1
 321 652 309 615 307 606 c 0
 303 587 309 573 316 562 c 0
 324 550 333 538 330 524 c 0
 325 500 292 478 262 478 c 0
 255 478 244 481 237 485 c 1
 231 498 232 527 237 555 c 0
101 555 m 0
 119 649 225 706 233 706 c 0
 240 706 246 699 248 688 c 1
 185 652 174 615 172 606 c 0
 168 586 175 572 182 560 c 0
 189 548 198 538 195 524 c 0
 190 500 156 478 126 478 c 0
 119 478 109 481 102 485 c 1
 96 498 96 527 101 555 c 0
EndSplineSet
Validated: 33
EndChar

StartChar: quotedblright
Encoding: 8221 8221 203
Width: 332
Flags: W
HStem: 478 228
VStem: 138 92<603.677 690.372> 273 93<603.555 690.372>
LayerCount: 2
Back
Fore
SplineSet
230 629 m 0
 212 535 108 478 100 478 c 0
 93 478 86 485 84 496 c 1
 147 532 159 569 161 578 c 0
 165 597 159 611 152 622 c 0
 144 634 135 646 138 660 c 0
 143 684 175 706 205 706 c 0
 212 706 223 703 230 699 c 1
 236 686 235 657 230 629 c 0
366 629 m 0
 348 535 243 478 235 478 c 0
 228 478 221 485 219 496 c 1
 282 532 294 569 296 578 c 0
 300 598 292 612 285 624 c 0
 278 636 270 646 273 660 c 0
 278 684 311 706 341 706 c 0
 348 706 359 703 366 699 c 1
 372 686 371 657 366 629 c 0
EndSplineSet
Validated: 33
EndChar

StartChar: quotedblbase
Encoding: 8222 8222 204
Width: 334
Flags: W
HStem: -104 228
VStem: 12 92<21.6768 108.372> 147 93<21.5546 108.372>
LayerCount: 2
Back
Fore
SplineSet
105 47 m 0
 87 -47 -18 -104 -26 -104 c 0
 -33 -104 -40 -97 -42 -86 c 1
 21 -50 33 -13 35 -4 c 0
 39 15 33 29 26 40 c 0
 18 52 9 64 12 78 c 0
 17 102 50 124 80 124 c 0
 87 124 97 121 104 117 c 1
 110 104 110 75 105 47 c 0
240 47 m 0
 222 -47 117 -104 109 -104 c 0
 102 -104 96 -97 94 -86 c 1
 157 -50 168 -13 170 -4 c 0
 174 16 167 30 160 42 c 0
 153 54 144 64 147 78 c 0
 152 102 185 124 215 124 c 0
 222 124 233 121 240 117 c 1
 246 104 245 75 240 47 c 0
EndSplineSet
Validated: 33
EndChar

StartChar: onedotenleader
Encoding: 8228 8228 205
Width: 211
Flags: W
HStem: -12 127<30.6392 101.92>
VStem: 8 117<11.5924 91.9544>
LayerCount: 2
Back
Fore
SplineSet
8 46 m 0
 12 83 44 115 78 115 c 1
 108 115 129 90 125 58 c 0
 121 21 89 -12 55 -12 c 1
 24 -12 4 14 8 46 c 0
EndSplineSet
Validated: 33
EndChar

StartChar: ellipsis
Encoding: 8230 8230 206
Width: 700
Flags: W
HStem: -12 127<30.6392 101.92 275.936 346.92 519.042 590.92>
VStem: 8 117<11.5924 91.9544> 253 117<11.5924 91.9544> 496 118<11.5924 92.3273>
LayerCount: 2
Back
Fore
SplineSet
496 46 m 0
 500 84 533 115 567 115 c 1
 597 115 618 90 614 58 c 0
 610 21 577 -12 543 -12 c 1
 512 -12 492 14 496 46 c 0
253 46 m 0
 257 83 289 115 323 115 c 1
 353 115 374 90 370 58 c 0
 366 21 333 -12 299 -12 c 1
 268 -12 249 14 253 46 c 0
8 46 m 0
 12 83 44 115 78 115 c 1
 108 115 129 90 125 58 c 0
 121 21 89 -12 55 -12 c 1
 24 -12 4 14 8 46 c 0
EndSplineSet
Validated: 33
EndChar

StartChar: perthousand
Encoding: 8240 8240 207
Width: 982
VWidth: 512
Flags: W
HStem: -4 29<423.031 485.245 743.031 805.245> 286 28<459.697 519.511 779.697 839.511> 340 29<172.031 234.245> 630 28<208.697 268.511>
VStem: 74 77<384.486 543.854> 288 78<453.874 614.956> 325 77<40.486 199.854> 539 78<109.874 270.956> 645 77<40.486 199.854> 859 78<109.874 270.956>
LayerCount: 2
Back
Fore
SplineSet
815 286 m 1xf9c0
 756 286 719 185 722 109 c 1
 723 75 735 25 770 25 c 1
 829 25 861 128 859 202 c 1
 858 236 848 286 815 286 c 1xf9c0
823 314 m 1
 891 314 934 272 937 198 c 1
 940 102 851 -4 759 -4 c 1
 691 -4 647 44 645 110 c 1
 642 206 729 314 823 314 c 1
495 286 m 1
 436 286 399 185 402 109 c 1xfbc0
 403 75 415 25 450 25 c 1
 509 25 541 128 539 202 c 1
 538 236 528 286 495 286 c 1
503 314 m 1
 571 314 614 272 617 198 c 1
 620 102 531 -4 439 -4 c 1
 371 -4 327 44 325 110 c 1
 322 206 409 314 503 314 c 1
244 630 m 1
 185 630 148 529 151 453 c 1
 152 419 164 369 199 369 c 1
 258 369 290 472 288 546 c 1xfdc0
 287 580 277 630 244 630 c 1
252 658 m 1
 320 658 363 616 366 542 c 1
 369 446 280 340 188 340 c 1
 120 340 76 388 74 454 c 1
 71 550 158 658 252 658 c 1
620 634 m 1
 620 634 99 -7 99 -7 c 1
 97 -9 73 -10 66 -4 c 1
 62 -3 59 0 59 5 c 9
 59 5 580 648 580 648 c 1
 582 650 603 649 608 643 c 1
 614 642 618 640 620 634 c 1
EndSplineSet
Validated: 33
EndChar

StartChar: minute
Encoding: 8242 8242 208
Width: 169
Flags: W
HStem: 489 210
VStem: 140 78<617.859 688.247>
LayerCount: 2
Back
Fore
SplineSet
190 699 m 0
 204 699 220 691 218 674 c 0
 214 630 146 534 117 498 c 0
 113 492 108 489 104 489 c 0
 98 489 94 494 95 501 c 0
 96 504 122 612 140 666 c 0
 144 678 172 699 190 699 c 0
EndSplineSet
Validated: 33
EndChar

StartChar: second
Encoding: 8243 8243 209
Width: 292
Flags: W
HStem: 489 210
VStem: 140 78<617.859 688.247> 263 76<615.206 688.247>
LayerCount: 2
Back
Fore
SplineSet
313 699 m 0
 327 699 341 691 339 674 c 0
 335 630 271 536 241 498 c 0
 237 492 231 489 227 489 c 0
 221 489 217 494 218 501 c 0
 219 504 245 612 263 666 c 0
 267 678 295 699 313 699 c 0
190 699 m 0
 204 699 220 691 218 674 c 0
 214 630 146 534 117 498 c 0
 113 492 108 489 104 489 c 0
 98 489 94 494 95 501 c 0
 96 504 122 612 140 666 c 0
 144 678 172 699 190 699 c 0
EndSplineSet
Validated: 33
EndChar

StartChar: uni2038
Encoding: 8248 8248 210
Width: 363
Flags: W
HStem: -48 160
VStem: 69 226
LayerCount: 2
Back
Fore
SplineSet
280 -48 m 0
 268 -48 221 -2 194 38 c 1
 154 -3 86 -48 74 -48 c 0
 68 -48 69 -32 69 -30 c 1
 73 -17 139 17 195 102 c 1
 199 110 199 112 205 112 c 0
 224 112 212 95 246 37 c 0
 258 15 294 -23 295 -27 c 1
 294 -31 286 -48 280 -48 c 0
EndSplineSet
Validated: 1
EndChar

StartChar: guilsinglleft
Encoding: 8249 8249 211
Width: 304
VWidth: 512
Flags: W
VStem: 26 257
LayerCount: 2
Back
Fore
SplineSet
221 92 m 1
 215 82 202 75 196 73 c 1
 179 95 116 168 33 230 c 1
 29 234 26 239 26 245 c 0
 26 253 32 260 38 264 c 1
 162 335 226 393 264 423 c 1
 268 422 281 416 283 406 c 1
 278 397 142 266 122 248 c 1
 135 230 219 99 221 92 c 1
EndSplineSet
Validated: 1
EndChar

StartChar: guilsinglright
Encoding: 8250 8250 212
Width: 305
VWidth: 512
Flags: W
VStem: 14 257
LayerCount: 2
Back
Fore
SplineSet
76 404 m 1
 82 414 95 421 101 423 c 1
 118 401 181 328 264 266 c 1
 268 262 271 257 271 251 c 0
 271 243 265 236 259 232 c 1
 135 161 72 103 34 73 c 1
 30 74 16 80 14 90 c 1
 19 99 156 230 176 248 c 1
 162 266 78 397 76 404 c 1
EndSplineSet
Validated: 1
EndChar

StartChar: uni203E
Encoding: 8254 8254 213
Width: 789
Flags: W
HStem: 736 68<228 756>
LayerCount: 2
Back
Fore
SplineSet
758 804 m 2
 764 804 764 796 764 790 c 0
 764 772 750 742 742 736 c 1
 226 736 l 2
 220 736 220 744 220 750 c 0
 220 768 234 798 242 804 c 1
 758 804 l 2
EndSplineSet
Validated: 1
EndChar

StartChar: Euro
Encoding: 8364 8364 214
Width: 649
UnlinkRmOvrlpSave: 1
Flags: W
HStem: -8 39<300.755 449.156> 246 41<34.5168 384.02> 346 41<49.5168 399.169> 612 38<366.617 515.054>
VStem: 83 117<157.619 341.587> 583 32<471.004 539.648>
LayerCount: 2
Back
Fore
SplineSet
444 612 m 0
 315 612 200 476 200 268 c 0
 200 165 249 31 370 31 c 0
 421 31 461 52 491 78 c 0
 529 111 558 166 566 184 c 1
 579 184 591 178 594 174 c 1
 591 159 542 43 528 33 c 1
 476 4 423 -8 344 -8 c 0
 185 -8 83 127 83 264 c 0
 83 509 286 652 456 650 c 0
 511 649 579 635 627 623 c 1
 626 600 617 502 615 482 c 0
 614 476 607 471 600 471 c 1
 596 471 587 471 583 477 c 1
 584 535 538 612 444 612 c 0
51 346 m 2
 48 346 47 350 47 354 c 0
 47 361 53 381 60 387 c 1
 398 387 l 2
 400 387 401 382 401 378 c 0
 401 373 398 355 389 346 c 1
 51 346 l 2
36 246 m 2
 33 246 32 250 32 254 c 0
 32 261 38 281 45 287 c 1
 383 287 l 2
 385 287 386 283 386 279 c 0
 386 274 383 255 374 246 c 1
 36 246 l 2
EndSplineSet
Validated: 37
EndChar

StartChar: arrowleft
Encoding: 8592 8592 215
Width: 693
Flags: W
HStem: 213 68<142 662.745>
LayerCount: 2
Back
Fore
SplineSet
192 327 m 2
 142 281 l 1
 666 281 l 2
 671 281 672 276 672 268 c 0
 672 256 660 221 648 213 c 1
 129 213 l 1
 129 213 153 178 161 167 c 1
 198 116 210 106 210 96 c 0
 210 84 184 75 178 73 c 1
 177 75 130 132 12 227 c 0
 9 229 8 234 8 238 c 0
 8 246 12 259 21 268 c 1
 158 347 245 421 248 423 c 1
 256 421 271 412 270 402 c 1
 270 395 266 395 192 327 c 2
EndSplineSet
Validated: 1
EndChar

StartChar: arrowup
Encoding: 8593 8593 216
Width: 323
Flags: W
VStem: 8 326
LayerCount: 2
Back
Fore
SplineSet
155 566 m 1
 103 520 l 1
 40 463 29 452 22 452 c 0
 10 452 9 476 8 482 c 1
 10 483 75 541 192 688 c 0
 195 693 200 694 206 694 c 0
 215 694 223 693 229 686 c 1
 277 555 332 483 334 480 c 1
 330 470 317 452 307 452 c 0
 297 452 294 462 250 522 c 2
 218 566 l 1
 102 -26 l 2
 101 -29 99 -32 90 -32 c 0
 74 -32 43 -22 40 -18 c 1
 155 566 l 1
EndSplineSet
Validated: 1
EndChar

StartChar: arrowright
Encoding: 8594 8594 217
Width: 690
Flags: W
HStem: 213 69<21.2549 544>
LayerCount: 2
Back
Fore
SplineSet
544 213 m 1
 18 213 l 2
 13 213 12 218 12 226 c 0
 12 238 24 274 36 282 c 1
 558 282 l 1
 524 329 l 1
 480 386 475 389 476 401 c 1
 478 413 501 421 507 423 c 1
 509 420 556 355 668 268 c 1
 672 263 671 257 670 250 c 0
 670 244 667 233 660 227 c 1
 514 140 439 75 438 73 c 1
 430 75 414 84 416 94 c 1
 417 102 430 112 496 170 c 1
 544 213 l 1
EndSplineSet
Validated: 33
EndChar

StartChar: arrowdown
Encoding: 8595 8595 218
Width: 327
Flags: W
VStem: -5 325
LayerCount: 2
Back
Fore
SplineSet
110 110 m 1
 226 701 l 2
 227 705 230 707 239 707 c 0
 255 707 284 696 288 692 c 1
 174 108 l 1
 226 156 l 1
 288 213 296 223 306 223 c 0
 318 223 319 200 320 194 c 1
 318 193 253 135 136 -12 c 0
 133 -17 128 -19 122 -19 c 0
 113 -19 105 -17 99 -10 c 1
 51 121 -3 192 -5 195 c 1
 -1 205 11 224 21 224 c 0
 30 224 34 213 78 152 c 1
 110 110 l 1
EndSplineSet
Validated: 1
EndChar

StartChar: radical
Encoding: 8730 8730 219
Width: 472
Flags: W
LayerCount: 2
Back
Fore
SplineSet
-18 159 m 1
 -29 165 -36 177 -35 185 c 0
 -33 195 -18 204 -9 209 c 0
 27 231 124 296 139 308 c 0
 148 315 163 315 164 307 c 1
 166 275 170 254 173 238 c 2
 224 8 l 1
 232 30 512 791 512 791 c 1
 555 788 l 1
 555 788 233 -89 209 -153 c 1
 192 -171 172 -176 166 -176 c 0
 162 -176 158 -176 158 -172 c 2
 72 208 l 1
 -18 159 l 1
EndSplineSet
Validated: 1
EndChar

StartChar: infinity
Encoding: 8734 8734 220
Width: 827
Flags: W
HStem: 41 66<137.424 247.428 531.476 637.804> 357 67<177.709 285.603 568.964 676.31>
LayerCount: 2
Back
Fore
SplineSet
616 362 m 0
 559 362 486 277 456 246 c 0
 455 245 454 245 455 244 c 0
 479 200 517 107 581 107 c 0
 643 107 694 181 700 248 c 0
 707 312 670 362 616 362 c 0
237 357 m 0
 177 357 119 288 113 214 c 0
 106 150 142 104 194 104 c 0
 255 104 320 180 358 218 c 0
 359 219 359 219 358 220 c 0
 342 252 302 357 237 357 c 0
261 424 m 0
 351 424 401 342 430 294 c 0
 431 292 435 290 436 292 c 0
 485 345 564 424 654 424 c 0
 736 424 786 348 777 262 c 0
 767 144 657 41 549 41 c 0
 427 41 389 171 379 171 c 2
 378 171 l 1
 316 108 247 39 156 39 c 0
 75 39 28 116 37 202 c 0
 47 320 154 424 261 424 c 0
EndSplineSet
Validated: 33
EndChar

StartChar: lessequal
Encoding: 8804 8804 221
Width: 483
Flags: W
HStem: 5 62<-3.9389 364.663>
LayerCount: 2
Back
Fore
SplineSet
10 67 m 1
 366 67 l 2
 370 67 372 59 372 53 c 3
 372 39 362 20 352 5 c 1
 -6 5 l 2
 -11 5 -12 12 -12 18 c 3
 -12 32 0 54 10 67 c 1
446 529 m 17
 450 524 459 501 459 482 c 27
 459 477 458 472 454 470 c 2
 120 309 l 1
 396 146 l 1
 396 128 379 86 373 86 c 0
 371 86 368 86 366 88 c 2
 51 274 l 2
 43 279 37 292 37 302 c 0
 37 328 56 342 68 348 c 1
 138 381 372 495 446 529 c 17
EndSplineSet
Validated: 1
EndChar

StartChar: greaterequal
Encoding: 8805 8805 222
Width: 485
Flags: W
HStem: 5 62<31.5143 401.476>
LayerCount: 2
Back
Fore
SplineSet
45 67 m 1
 402 67 l 2
 406 67 408 59 408 53 c 3
 408 39 400 20 388 5 c 1
 30 5 l 2
 25 5 24 12 24 18 c 3
 24 32 35 54 45 67 c 1
52 87 m 17
 47 93 39 121 39 136 c 1
 39 140 40 144 44 146 c 2
 380 308 l 1
 108 470 l 1
 108 492 124 530 130 530 c 0
 132 530 135 530 137 528 c 2
 450 344 l 2
 458 340 465 328 465 318 c 0
 465 304 451 278 433 270 c 1
 363 237 126 121 52 87 c 17
EndSplineSet
Validated: 1
EndChar

StartChar: gravecomb
Encoding: 768 768 223
Width: 227
GlyphClass: 4
Flags: W
HStem: 530 140
VStem: 162 172
LayerCount: 2
Back
Fore
SplineSet
325 530 m 1
 309 532 162 607 162 634 c 0
 162 659 189 670 204 670 c 0
 218 670 231 666 238 660 c 0
 260 641 332 549 334 540 c 1
 334 536 328 531 325 530 c 1
EndSplineSet
Validated: 1
EndChar

StartChar: acutecomb
Encoding: 769 769 224
Width: 221
GlyphClass: 4
Flags: W
HStem: 530 140
VStem: 156 172
LayerCount: 2
Back
Fore
SplineSet
164 530 m 1
 161 531 156 536 156 540 c 1
 158 549 230 641 252 660 c 0
 259 666 272 670 286 670 c 0
 301 670 328 659 328 634 c 0
 328 607 180 532 164 530 c 1
EndSplineSet
Validated: 1
EndChar

StartChar: uni0302
Encoding: 770 770 225
Width: 369
GlyphClass: 4
Flags: W
HStem: 598 152
VStem: 181 213
LayerCount: 2
Back
Fore
SplineSet
313 750 m 0
 317 750 320 746 323 740 c 0
 351 686 376 645 394 615 c 1
 392 607 387 599 382 598 c 1
 358 617 310 658 299 670 c 1
 283 658 218 616 188 598 c 1
 184 599 179 607 181 615 c 1
 210 643 256 690 301 740 c 0
 306 745 309 750 313 750 c 0
EndSplineSet
Validated: 1
EndChar

StartChar: tildecomb
Encoding: 771 771 226
Width: 346
GlyphClass: 4
Flags: W
HStem: 622 46<324.302 424.767> 661 46<198.51 297.734>
VStem: 163 296
LayerCount: 2
Back
Fore
SplineSet
264 707 m 0x60
 288 707 305 700 321 692 c 0
 341 682 357 668 387 668 c 0xa0
 419 668 446 699 453 707 c 1x60
 456 706 460 704 459 696 c 0
 457 681 447 665 438 656 c 0
 412 630 387 622 359 622 c 0xa0
 335 622 321 627 303 636 c 0
 283 646 264 661 235 661 c 0x60
 203 661 176 630 169 622 c 1xa0
 166 623 162 625 163 633 c 0
 165 648 175 663 184 672 c 0
 210 698 237 707 264 707 c 0x60
EndSplineSet
Validated: 1
EndChar

StartChar: dotlessi
Encoding: 305 305 227
Width: 286
VWidth: 512
Flags: W
HStem: -7 70<90.5 177> 372 70<89 173>
VStem: 56 99<27.5218 177.461> 112 98<257.539 406.201>
LayerCount: 2
Back
Fore
SplineSet
108 316 m 2xe0
 109 321 112 343 112 348 c 0
 112 357 110 372 100 372 c 0
 78 372 32 316 29 312 c 1
 24 312 17 329 17 335 c 1
 31 361 108 442 158 442 c 0
 188 442 210 418 210 380 c 0xd0
 210 369 205 340 202 324 c 1
 202 324 158 119 158 119 c 2
 156 112 155 91 155 86 c 0
 155 77 156 63 166 63 c 0
 188 63 234 119 237 123 c 1
 242 123 249 106 249 100 c 1
 235 74 154 -7 104 -7 c 0
 77 -7 56 14 56 54 c 0
 56 65 61 97 64 111 c 1
 64 111 108 316 108 316 c 2xe0
EndSplineSet
Validated: 1
EndChar

StartChar: uni0304
Encoding: 772 772 230
Width: 352
GlyphClass: 4
Flags: W
HStem: 552 41<167 394.381>
VStem: 164 232<552.43 593>
LayerCount: 2
Back
Fore
SplineSet
386 552 m 1
 167 552 l 1
 167 552 164 554 164 560 c 0
 164 567 172 593 177 593 c 2
 392 593 l 2
 394 593 396 590 396 586 c 0
 396 581 394 561 386 552 c 1
EndSplineSet
Validated: 1
EndChar

StartChar: uni0305
Encoding: 773 773 231
Width: 526
GlyphClass: 4
Flags: W
HStem: 736 68<140.56 673>
LayerCount: 2
Back
Fore
SplineSet
130 746 m 0
 130 748 144 804 154 804 c 2
 696 804 l 2
 698 804 701 803 699 795 c 0
 696 777 684 748 682 744 c 0
 679 738 673 736 673 736 c 1
 134 736 l 1
 134 736 128 736 130 746 c 0
EndSplineSet
Validated: 1
EndChar

StartChar: uni0306
Encoding: 774 774 232
Width: 230
GlyphClass: 4
Flags: W
HStem: 520 51<172.611 275.357> 621 20G<150 154 321 325>
VStem: 133 23<600.595 637.994> 318 18<621 639.513>
LayerCount: 2
Back
Fore
SplineSet
224 571 m 0
 262 571 300 595 318 638 c 0
 318 640 320 641 322 641 c 0
 328 641 337 633 336 628 c 0
 336 627 334 622 334 620 c 0
 315 567 264 520 214 520 c 0
 164 520 130 564 133 621 c 0
 133 623 134 627 134 628 c 0
 135 633 147 641 153 641 c 0
 155 641 156 640 156 638 c 0
 157 595 189 571 224 571 c 0
EndSplineSet
Validated: 33
EndChar

StartChar: uni0307
Encoding: 775 775 233
Width: 250
GlyphClass: 4
Flags: W
HStem: 520 119<206.99 277.293>
VStem: 188 110<540.655 619.985>
LayerCount: 2
Back
Fore
SplineSet
188 581 m 0
 194 613 225 639 255 639 c 1
 285 639 304 613 298 581 c 0
 292 549 262 520 232 520 c 1
 201 520 182 549 188 581 c 0
EndSplineSet
Validated: 33
EndChar

StartChar: uni0308
Encoding: 776 776 234
Width: 324
GlyphClass: 4
Flags: W
HStem: 468 116<139.606 210.232 312.606 383.232>
VStem: 121 108<485.996 564.985> 294 108<485.996 564.985>
LayerCount: 2
Back
Fore
SplineSet
360 584 m 1
 390 584 408 558 402 526 c 0
 396 494 367 468 337 468 c 1
 307 468 288 494 294 526 c 0
 300 558 330 584 360 584 c 1
187 584 m 1
 217 584 235 558 229 526 c 0
 223 494 194 468 164 468 c 1
 134 468 115 494 121 526 c 0
 127 558 157 584 187 584 c 1
EndSplineSet
Validated: 33
EndChar

StartChar: hookabovecomb
Encoding: 777 777 235
Width: 164
GlyphClass: 4
Flags: W
HStem: 631 34<187.65 253.126>
VStem: 128 52<576.016 625.346>
LayerCount: 2
Back
Fore
SplineSet
235 665 m 0
 271 665 287 642 281 610 c 0
 275 575 245 550 220 540 c 0
 200 532 190 526 188 514 c 0
 187 509 188 503 189 500 c 1
 188 496 170 489 161 489 c 1
 157 491 144 502 146 514 c 0
 151 540 180 552 196 560 c 0
 218 570 231 582 235 600 c 0
 237 614 235 631 217 631 c 0
 197 631 184 618 180 595 c 0
 177 579 155 574 143 574 c 0
 135 574 127 579 128 587 c 0
 136 629 192 665 235 665 c 0
EndSplineSet
Validated: 33
EndChar

StartChar: uni030A
Encoding: 778 778 236
Width: 324
GlyphClass: 4
Flags: W
HStem: 506 40<228.691 305.495> 655 39<243.343 318.531>
VStem: 187 174
LayerCount: 2
Back
Fore
SplineSet
224 600 m 0
 218 570 235 546 263 546 c 0
 291 546 318 570 324 600 c 0
 330 630 313 655 285 655 c 0
 257 655 230 630 224 600 c 0
187 600 m 0
 197 652 246 694 293 694 c 0
 341 694 371 652 361 600 c 0
 351 548 303 506 256 506 c 0
 208 506 177 548 187 600 c 0
EndSplineSet
Validated: 33
EndChar

StartChar: uni030B
Encoding: 779 779 237
Width: 311
GlyphClass: 4
Flags: W
HStem: 518 146<272 275>
VStem: 122 316
LayerCount: 2
Back
Fore
SplineSet
272 518 m 1
 268 520 264 525 264 531 c 1
 266 540 332 627 368 657 c 0
 372 661 381 664 392 664 c 0
 416 664 438 648 438 630 c 0
 438 593 282 518 272 518 c 1
131 518 m 1
 127 520 122 525 122 531 c 1
 124 540 190 627 226 657 c 0
 230 661 240 664 251 664 c 0
 275 664 297 648 297 630 c 0
 297 593 141 518 131 518 c 1
EndSplineSet
Validated: 1
EndChar

StartChar: uni030C
Encoding: 780 780 238
Width: 371
GlyphClass: 4
Flags: W
HStem: 496 152
VStem: 168 213
LayerCount: 2
Back
Fore
SplineSet
249 496 m 0
 245 496 242 500 239 506 c 0
 211 560 186 601 168 631 c 1
 170 639 175 647 180 648 c 1
 204 628 252 588 263 576 c 1
 279 588 344 630 374 648 c 1
 378 647 383 639 381 631 c 1
 352 603 307 556 262 506 c 0
 257 501 253 496 249 496 c 0
EndSplineSet
Validated: 1
EndChar

StartChar: uni0312
Encoding: 786 786 239
Width: 139
GlyphClass: 4
Flags: W
HStem: 466 170
VStem: 110 106<477.648 549.461>
LayerCount: 2
Back
Fore
SplineSet
214 636 m 1
 215 636 235 632 235 627 c 1
 230 624 194 602 190 569 c 0
 187 543 216 536 216 510 c 0
 216 476 156 456 120 466 c 1
 114 472 110 482 110 497 c 0
 110 549 176 622 214 636 c 1
EndSplineSet
Validated: 33
EndChar

StartChar: uni0315
Encoding: 789 789 240
Width: 131
GlyphClass: 4
Flags: W
HStem: 456 225
VStem: 144 90<559.974 649.355> 165 69<539 662.669>
LayerCount: 2
Back
Fore
SplineSet
109 472 m 1xc0
 109 478 165 519 165 559 c 0xa0
 165 580 144 587 144 616 c 0
 144 675 191 681 229 681 c 1
 231 675 234 660 234 649 c 0
 234 636 233 625 230 610 c 0
 218 546 164 480 123 456 c 1
 123 456 121 456 121 456 c 2
 117 456 109 465 109 472 c 1xc0
EndSplineSet
Validated: 1
EndChar

StartChar: dotbelowcomb
Encoding: 803 803 241
Width: 258
GlyphClass: 4
Flags: W
HStem: -162 124<78.7524 151.248>
VStem: 57 116<-140.476 -59.5239>
LayerCount: 2
Back
Fore
SplineSet
57 -100 m 0
 63 -66 95 -38 127 -38 c 0
 159 -38 179 -66 173 -100 c 0
 167 -134 135 -162 103 -162 c 0
 71 -162 51 -134 57 -100 c 0
EndSplineSet
Validated: 33
EndChar

StartChar: uni0326
Encoding: 806 806 242
Width: 139
GlyphClass: 4
Flags: W
HStem: -206 171<38.6107 43.8398>
VStem: 8 112<-117.656 -52.6153>
LayerCount: 2
Back
Fore
SplineSet
8 -84 m 0
 8 -50 66 -35 108 -35 c 1
 120 -45 120 -63 120 -78 c 0
 120 -130 46 -190 8 -204 c 1
 7 -204 4 -206 2 -206 c 0
 -8 -206 -17 -200 -17 -195 c 0
 -17 -191 33 -171 37 -138 c 0
 40 -112 8 -110 8 -84 c 0
EndSplineSet
Validated: 33
EndChar

StartChar: uni0327
Encoding: 807 807 243
Width: 402
GlyphClass: 4
Flags: W
HStem: -154 28<121.81 200.735> -64 61<177.304 197.735>
VStem: 115 140
LayerCount: 2
Back
Fore
SplineSet
198 -28 m 1
 198 -28 215 -27 219 -27 c 1
 245 -27 260 -51 255 -77 c 0
 246 -124 203 -154 151 -154 c 0
 135 -154 120 -148 115 -142 c 1
 115 -138 115 -131 116 -126 c 0
 117 -119 124 -112 128 -112 c 0
 136 -112 148 -126 166 -126 c 0
 192 -126 207 -111 210 -95 c 0
 214 -76 205 -64 191 -64 c 0
 183 -64 173 -66 163 -70 c 0
 161 -70 152 -60 155 -56 c 0
 166 -41 183 -17 193 -3 c 1
 218 -3 l 1
 198 -28 l 1
EndSplineSet
Validated: 33
EndChar

StartChar: Aogonek
Encoding: 260 260 254
Width: 601
Flags: W
HStem: -224 60<287 366.194> -4 34<-57.1202 -0.419678 82.692 136.891 514.183 559.783> 238 45<197 357.999> 642 20G<384.5 392>
VStem: 248 58<-182.5 -99.3013>
LayerCount: 2
Back
Fore
SplineSet
557 -4 m 1
 520 -2 510 2 472 2 c 0
 386 2 306 -81 306 -130 c 0
 306 -150 314 -164 339 -164 c 0
 383 -164 412 -128 418 -126 c 1
 426 -127 419 -151 416 -154 c 0
 392 -188 346 -224 304 -224 c 0
 270 -224 248 -196 248 -169 c 0
 248 -109 301 -55 345 -9 c 0
 369 17 392 28 392 67 c 0
 392 91 367 234 367 234 c 1
 367 234 365 238 362 238 c 0
 332 240 294 238 271 238 c 0
 233 238 211 238 173 236 c 0
 171 236 166 233 166 232 c 1
 166 232 128 168 108 130 c 0
 92 100 80 70 78 60 c 0
 73 35 132 30 139 30 c 1
 142 25 138 1 134 -4 c 1
 100 -1 81 3 40 3 c 0
 -3 3 -22 -1 -60 -4 c 1
 -62 0 -60 19 -55 28 c 1
 -44 28 -3 40 9 54 c 0
 31 81 45 104 63 136 c 2
 348 629 l 2
 356 643 380 662 389 662 c 0
 395 662 398 660 400 658 c 1
 400 658 488 147 490 137 c 1
 496 103 499 80 501 68 c 0
 507 36 555 30 562 30 c 1
 565 22 560 0 557 -4 c 1
321 506 m 1
 197 290 l 1
 197 290 197 286 199 286 c 0
 220 284 256 283 277 283 c 0
 306 283 325 284 354 286 c 0
 356 286 358 291 358 291 c 1
 321 506 l 1
EndSplineSet
Validated: 33
EndChar

StartChar: aogonek
Encoding: 261 261 255
Width: 470
Flags: W
HStem: -224 60<215 294.633> -6 73<74.5 160.477> 394 48<224.538 330>
VStem: 15 100<74.2328 223.75> 176 58<-183.5 -101.854> 240 98<26.3359 112.789>
LayerCount: 2
Back
Fore
SplineSet
260 394 m 0
 188 394 115 268 115 152 c 0
 115 97 130 67 158 67 c 0
 200 67 260 180 280 278 c 2
 301 381 l 1
 293 390 274 394 260 394 c 0
433 100 m 1
 425 86 395 55 365 30 c 0
 316 -10 234 -77 234 -130 c 0
 234 -150 243 -164 268 -164 c 0
 312 -164 340 -128 346 -126 c 1
 354 -127 347 -151 344 -154 c 0
 320 -188 274 -224 232 -224 c 0
 198 -224 176 -197 176 -170 c 0
 176 -112 233 -52 277 -6 c 1
 255 -1 240 20 240 52 c 0
 240 58 242 74 244 88 c 0
 246 101 248 107 249 113 c 1
 229 77 161 -6 102 -6 c 0
 47 -6 15 45 15 114 c 0
 15 290 188 442 312 442 c 0
 348 442 384 433 404 426 c 1
 342 119 l 2
 341 115 338 91 338 86 c 0
 338 77 340 64 350 64 c 0
 372 64 418 119 421 123 c 1
 426 123 433 106 433 100 c 1
EndSplineSet
Validated: 1
EndChar

StartChar: Eogonek
Encoding: 280 280 271
Width: 565
Flags: W
HStem: -224 60<252.5 332.883> -3 42<185.293 334.729> -1 31<-3.89062 65.6883> 311 42<238.91 378.511> 620 44<336.357 485.921> 620 36<291.302 448.804> 628 33<118.953 174.999>
VStem: 215 58<-183.5 -99.2937> 396 29<232.106 273.831> 513 33<517.256 584.258>
LayerCount: 2
Back
Fore
SplineSet
215 -170 m 0xd9c0
 215 -114 272 -30 336 -2 c 1
 272 -2 191 -1 116 -1 c 0xb1c0
 61 -1 18 -3 -6 -3 c 1xd1c0
 -9 3 -6 24 0 30 c 1
 12 30 60 34 66 46 c 0
 76 64 81 94 88 130 c 2
 88 130 165 528 165 528 c 2
 172 564 178 594 175 612 c 0
 173 624 128 628 116 628 c 1
 113 634 117 655 123 661 c 1xb3c0
 163 659 206 656 244 656 c 0x95c0
 307 656 468 664 546 664 c 1
 543 614 546 567 546 522 c 1
 543 519 532 517 525 517 c 0
 518 517 513 519 513 524 c 0
 506 592 480 620 427 620 c 2
 427 620 348 620 348 620 c 2
 332 620 297 619 291 609 c 0
 283 595 280 571 274 543 c 2
 274 543 238 362 238 362 c 2
 237 356 257 353 277 353 c 2
 277 353 326 353 326 353 c 2
 398 353 404 362 432 424 c 0
 434 429 439 432 446 432 c 0
 453 432 459 429 461 426 c 1
 461 426 425 236 425 236 c 1
 423 234 415 232 408 232 c 0
 401 232 396 235 396 240 c 0
 394 292 387 299 379 304 c 0
 369 310 331 311 296 311 c 0
 270 311 228 310 226 300 c 2
 226 300 193 128 193 128 c 2
 191 118 181 66 185 54 c 0
 191 42 213 39 245 39 c 2
 245 39 298 39 298 39 c 2
 333 39 378 49 406 68 c 0
 428 84 454 117 479 166 c 0
 481 170 487 172 494 172 c 0
 503 172 516 169 518 166 c 1
 490 112 450 41 435 -3 c 1
 353 -3 273 -78 273 -130 c 0
 273 -150 281 -164 306 -164 c 0
 350 -164 378 -128 384 -126 c 1
 392 -127 386 -151 383 -154 c 0
 359 -188 312 -224 270 -224 c 0
 235 -224 215 -197 215 -170 c 0xd9c0
EndSplineSet
Validated: 33
EndChar

StartChar: eogonek
Encoding: 281 281 272
Width: 380
Flags: W
HStem: -224 60<79 158.883> -6 71<96.5 196.762> 190 32<126 167.895> 403 39<198.726 297.5>
VStem: 20 101<83.8092 189.208> 42 57<-183.5 -106.894> 264 96<303.926 400.573>
LayerCount: 2
Back
Fore
SplineSet
126 222 m 1xf2
 165 222 264 290 264 364 c 0
 264 391 250 403 230 403 c 0
 172 403 131 273 126 222 c 1xf2
42 -170 m 0xf6
 42 -116 112 -39 146 -5 c 1
 141 -6 137 -6 132 -6 c 0
 61 -6 20 47 20 140 c 0
 20 288 157 442 272 442 c 0
 323 442 360 415 360 365 c 0
 360 265 185 190 123 190 c 1
 122 187 121 167 121 162 c 0xfa
 121 113 136 65 186 65 c 0
 231 65 285 129 288 132 c 1
 294 132 302 113 302 107 c 1
 296 97 277 78 250 54 c 0
 189 1 99 -82 99 -130 c 0
 99 -150 107 -164 132 -164 c 0
 176 -164 204 -128 210 -126 c 1
 218 -127 212 -151 209 -154 c 0
 185 -188 138 -224 96 -224 c 0
 62 -224 42 -197 42 -170 c 0xf6
EndSplineSet
Validated: 1
EndChar

StartChar: Iogonek
Encoding: 302 302 291
Width: 333
Flags: W
HStem: -224 60<38 117.194> -4 33<-3.625 64.689 183.753 238.075> 629 33<118.953 174.875 293.311 362.031>
VStem: -0 57<-183.5 -97.1868>
LayerCount: 2
Back
Fore
SplineSet
241 29 m 1
 243 23 239 1 235 -4 c 1
 223 -4 199 -4 179 -8 c 0
 117 -22 57 -82 57 -130 c 0
 57 -150 65 -164 90 -164 c 0
 134 -164 163 -128 169 -126 c 1
 177 -127 170 -151 167 -154 c 0
 143 -188 97 -224 55 -224 c 0
 21 -224 0 -197 -0 -170 c 0
 0 -100 72 -20 119 3 c 1
 82 3 30 -1 -7 -4 c 1
 -10 2 -5 23 -0 29 c 1
 12 29 59 34 65 46 c 0
 75 64 80 94 87 130 c 2
 165 528 l 2
 172 564 178 594 175 612 c 0
 173 624 128 629 116 629 c 1
 113 635 117 656 123 662 c 1
 160 659 205 656 243 656 c 0
 280 656 326 659 364 662 c 1
 368 656 364 635 358 629 c 1
 346 629 299 624 293 612 c 0
 283 594 277 564 270 528 c 2
 193 130 l 2
 186 94 180 64 183 46 c 0
 185 34 229 29 241 29 c 1
EndSplineSet
Validated: 33
EndChar

StartChar: iogonek
Encoding: 303 303 292
Width: 287
VWidth: 512
Flags: W
HStem: -224 60<51 130.194> 372 70<89 173> 543 124<144.5 218.435>
VStem: 12 58<-183.5 -100.869> 113 98<252.734 405.805> 126 112<562.815 648.941>
LayerCount: 2
Back
Fore
SplineSet
250 100 m 1xf4
 242 86 212 56 184 32 c 0
 130 -16 70 -78 70 -130 c 0
 70 -150 78 -164 103 -164 c 0
 147 -164 176 -128 182 -126 c 1
 190 -127 183 -151 180 -154 c 0
 156 -188 110 -224 68 -224 c 0
 34 -224 12 -197 12 -170 c 0
 12 -114 68 -48 105 -7 c 1
 78 -7 56 14 56 54 c 0
 56 65 61 97 64 111 c 1
 64 111 108 316 108 316 c 2
 109 321 113 343 113 348 c 0
 113 357 110 372 100 372 c 0
 78 372 33 316 30 312 c 1
 25 312 18 329 18 335 c 1
 32 361 108 442 158 442 c 0
 188 442 211 418 211 380 c 0xf8
 211 369 207 340 204 324 c 1
 204 324 160 119 160 119 c 2
 158 112 155 91 156 86 c 0
 156 77 158 64 168 64 c 0
 190 64 235 119 238 123 c 1
 243 123 250 106 250 100 c 1xf4
190 667 m 0
 218 667 238 644 238 616 c 0
 238 578 208 543 172 543 c 0
 144 543 126 568 126 596 c 0xf4
 126 633 154 667 190 667 c 0
EndSplineSet
Validated: 33
EndChar

StartChar: Uogonek
Encoding: 370 370 339
Width: 688
Flags: W
HStem: -224 60<273 352.883> -6 65<249.782 376.831> 629 33<102.109 157.876 276.311 345.031 530.77 588.676 670.748 744.953>
VStem: 235 57<-181.5 -102.286>
LayerCount: 2
Back
Fore
SplineSet
292 -130 m 0
 292 -150 301 -164 326 -164 c 0
 370 -164 398 -128 404 -126 c 1
 412 -127 406 -151 403 -154 c 0
 379 -188 332 -224 290 -224 c 0
 256 -224 235 -195 235 -168 c 0
 235 -112 296 -45 344 -2 c 1
 325 -6 305 -6 285 -6 c 0
 209 -6 148 21 115 76 c 0
 87 122 82 187 99 276 c 2
 148 528 l 2
 155 564 161 594 158 612 c 0
 156 624 112 629 100 629 c 1
 97 635 100 656 106 662 c 1
 142 659 188 656 226 656 c 0
 264 656 309 659 347 662 c 1
 351 656 347 635 341 629 c 1
 329 629 282 624 276 612 c 0
 266 594 260 564 253 528 c 2
 212 313 l 2
 198 241 195 186 209 140 c 0
 228 73 283 59 331 59 c 0
 416 59 507 118 542 292 c 1
 585 512 l 2
 593 552 597 590 592 608 c 0
 588 622 542 630 528 630 c 1
 525 637 530 656 534 662 c 1
 574 659 600 656 642 656 c 0
 684 656 707 660 748 662 c 1
 750 656 748 639 742 630 c 1
 730 630 676 624 666 608 c 0
 655 590 644 553 636 513 c 2
 591 281 l 2
 567 161 512 82 443 38 c 0
 377 -6 292 -80 292 -130 c 0
EndSplineSet
Validated: 33
EndChar

StartChar: uogonek
Encoding: 371 371 340
Width: 512
Flags: W
HStem: -224 60<258 338.306> -7 92<94.5 194> 372 70<85 169>
VStem: 60 100<37.4777 196.722> 108 98<250.875 406.201> 220 58<-183.5 -101.854> 282 100<26.6387 192.865>
LayerCount: 2
Back
Fore
SplineSet
220 -170 m 0xf6
 220 -112 276 -52 320 -6 c 1
 298 -1 282 20 282 52 c 0
 282 60 286 84 290 106 c 0
 295 134 300 154 305 176 c 1
 273 108 171 -7 117 -7 c 1
 72 -7 60 22 60 72 c 0xf6
 60 102 71 158 77 186 c 1
 81 206 101 296 104 316 c 2
 105 321 108 343 108 348 c 0
 108 357 106 372 96 372 c 0
 74 372 28 316 25 312 c 1
 20 312 13 329 13 335 c 1
 27 361 104 442 154 442 c 0
 184 442 206 418 206 380 c 0xee
 206 369 201 340 198 324 c 1
 197 318 170 182 170 182 c 2
 168 172 160 127 160 117 c 0
 160 101 164 85 178 85 c 0
 210 85 312 222 336 346 c 1
 340 368 350 413 354 435 c 1
 364 438 387 440 397 440 c 0
 407 440 434 438 446 435 c 1
 446 435 386 119 386 119 c 2
 384 111 382 91 382 86 c 0
 382 77 384 64 394 64 c 0
 416 64 461 119 464 123 c 1
 469 123 476 106 476 100 c 1
 468 86 438 55 408 30 c 0
 359 -10 278 -77 278 -130 c 0
 278 -150 285 -164 310 -164 c 0
 354 -164 383 -128 389 -126 c 1
 397 -127 391 -151 388 -154 c 0
 364 -188 317 -224 275 -224 c 0
 241 -224 220 -197 220 -170 c 0xf6
EndSplineSet
Validated: 1
EndChar

StartChar: Hbar
Encoding: 294 294 353
Width: 696
Flags: W
HStem: -4 33<-2.625 65.689 184.124 239.891 359.969 429.688 547.125 603.047> 320 45<241 487> 474 36<95.8616 676.726> 629 33<119.953 175.875 294.311 363.031 483.109 538.876 657.311 726.188>
LayerCount: 2
Back
Fore
SplineSet
106 510 m 1
 131 510 665 510 677 510 c 0
 680 510 681 507 680 503 c 0
 679 498 674 482 669 474 c 1
 644 474 108 474 96 474 c 0
 93 474 93 482 94 486 c 0
 95 491 99 502 106 510 c 1
EndSplineSet
Refer: 39 72 N 1 0 0 1 1 0 2
Validated: 5
EndChar

StartChar: hbar
Encoding: 295 295 354
Width: 488
Flags: W
HStem: -7 70<297 384> 350 92<273 369> 524 36<65.6395 342.515> 632 25<75.6956 129.3> 670 20<224 237.5>
VStem: 135 105<580.976 675> 262 99<27.5218 181.258> 309 100<224.164 397.83>
LayerCount: 2
Back
Fore
SplineSet
74 560 m 1xfc
 100 560 330 560 342 560 c 0
 346 560 347 556 346 552 c 0
 345 547 339 532 334 524 c 1
 308 524 78 524 66 524 c 0
 62 524 63 531 64 535 c 0
 65 540 67 552 74 560 c 1xfc
EndSplineSet
Refer: 71 104 N 1 0 0 1 1 0 2
Validated: 5
EndChar

StartChar: Lslash
Encoding: 321 321 355
Width: 539
Flags: W
HStem: -1 31<-2.625 65.689> -1 40<185.293 390.585> 629 33<119.109 175.875 293.311 362.188>
LayerCount: 2
Back
Fore
SplineSet
59 208 m 2x20
 59 208 432 448 432 448 c 1
 436 443 447 419 443 416 c 2
 443 416 70 178 70 178 c 1
 66 184 55 205 59 208 c 2x20
EndSplineSet
Refer: 43 76 N 1 0 0 1 1 0 2
Validated: 37
EndChar

StartChar: lslash
Encoding: 322 322 356
Width: 262
Flags: W
HStem: -7 70<79 166> 632 25<87.6956 144.211> 670 20<236 249.5>
VStem: 37 224 44 99<27.5218 179.891> 149 105<552.133 675>
LayerCount: 2
Back
Fore
SplineSet
37 289 m 2xf0
 37 289 253 431 253 431 c 1
 256 426 266 406 261 403 c 2xf0
 261 403 44 260 44 260 c 1xe8
 40 266 32 286 37 289 c 2xf0
EndSplineSet
Refer: 75 108 N 1 0 0 1 11 0 2
Validated: 5
EndChar

StartChar: Tbar
Encoding: 358 358 357
Width: 589
Flags: W
HStem: -4 33<124.969 193.689 311.125 367.891> 306 40<145.821 481.361> 618 40<158.838 311 417 560.408>
VStem: 589 34<490.927 581.987>
LayerCount: 2
Back
Fore
SplineSet
155 346 m 1
 183 346 467 346 480 346 c 0
 484 346 485 340 484 336 c 0
 483 330 478 314 473 306 c 1
 445 306 161 306 148 306 c 0
 144 306 143 314 144 318 c 0
 145 324 148 338 155 346 c 1
EndSplineSet
Refer: 51 84 N 1 0 0 1 1 0 3
Validated: 5
EndChar

StartChar: tbar
Encoding: 359 359 358
Width: 317
VWidth: 512
Flags: W
HStem: -7 70<96.5 184> 277 40<27.5482 289.047> 377 42<59.2066 121 223 308.023>
VStem: 61 99<27.877 182.578>
LayerCount: 2
Back
Fore
SplineSet
36 317 m 1
 64 317 275 317 288 317 c 0
 292 317 293 312 292 308 c 0
 291 302 286 285 281 277 c 1
 254 277 42 277 29 277 c 0
 25 277 25 285 26 289 c 0
 27 295 29 309 36 317 c 1
EndSplineSet
Refer: 83 116 N 1 0 0 1 13 0 2
Validated: 5
EndChar

StartChar: dcroat
Encoding: 273 273 359
Width: 464
Flags: W
HStem: -6 73<72.5 159.52 277 361> 394 48<224.723 289.507> 524 36<221.639 497.883> 632 25<284.696 341.211> 670 20<433 446.5>
VStem: 15 100<75.0665 220.816> 345 105<550.109 675>
LayerCount: 2
Back
Fore
SplineSet
230 560 m 1
 256 560 485 560 497 560 c 0
 501 560 502 556 501 552 c 0
 500 547 495 532 490 524 c 1
 464 524 234 524 222 524 c 0
 218 524 219 531 220 535 c 0
 221 540 223 552 230 560 c 1
EndSplineSet
Refer: 67 100 N 1 0 0 1 0 0 2
Validated: 5
EndChar

StartChar: kgreenlandic
Encoding: 312 312 362
Width: 510
VWidth: 512
Flags: W
HStem: -4 70<307.96 405.736> 372 70<89 173> 381 61<302.68 402>
VStem: 112 93<332 371.989> 354 104<312.568 379.932>
LayerCount: 2
Back
Fore
SplineSet
108 316 m 2xd8
 109 321 112 343 112 348 c 0
 112 357 110 372 100 372 c 0
 78 372 32 316 29 312 c 1
 24 312 17 329 17 335 c 1
 31 361 108 442 158 442 c 0xd8
 188 442 210 418 210 380 c 0
 210 370 208 355 206 339 c 1
 206 338 205 333 205 332 c 1
 213 347 293 442 378 442 c 1xb8
 426 442 458 414 458 372 c 0
 458 294 359 242 266 220 c 1
 318 130 354 66 396 66 c 0
 416 66 454 110 464 122 c 1
 470 122 476 105 476 100 c 1
 467 80 392 -4 340 -4 c 0
 262 -4 210 128 178 200 c 1
 170 162 140 0 140 0 c 1
 130 -3 105 -6 94 -6 c 0
 83 -6 58 -3 46 0 c 1
 49 16 108 316 108 316 c 2xd8
323 381 m 1xb8
 265 381 192 281 186 239 c 1
 250 239 354 280 354 348 c 1
 354 362 349 381 323 381 c 1xb8
EndSplineSet
Validated: 1
EndChar

StartChar: Eng
Encoding: 330 330 363
Width: 724
Flags: W
HStem: -226 22<290.46 306.749> -4 33<-10.6848 61.2905 147.954 207.609> 630 33<113.358 171.954 550.56 613.42 691.896 769.149>
LayerCount: 2
Back
Fore
SplineSet
288 -204 m 1
 338 -187 459 -66 494 56 c 1
 226 544 l 1
 147 136 l 2
 140 100 136 68 140 53 c 0
 144 39 199 30 210 30 c 1
 214 22 208 2 205 -4 c 1
 168 -2 135 3 94 3 c 0
 51 3 28 -2 -15 -4 c 1
 -17 3 -12 23 -8 29 c 1
 3 29 59 37 69 52 c 0
 79 67 89 99 96 137 c 1
 108 203 161 465 173 531 c 1
 179 564 181 593 175 610 c 0
 170 622 123 630 112 630 c 1
 108 636 112 658 117 663 c 1
 152 661 180 658 217 658 c 0
 247 658 282 660 304 662 c 1
 330 583 467 361 547 207 c 1
 549 211 552 232 554 239 c 1
 607 510 l 1
 614 547 622 593 617 609 c 0
 613 623 561 630 548 630 c 1
 546 634 549 655 553 663 c 1
 593 661 620 656 662 656 c 0
 704 656 733 661 773 663 c 1
 775 657 773 640 765 630 c 1
 756 630 696 624 686 608 c 0
 677 594 665 548 658 512 c 2
 658 512 614 280 584 130 c 0
 535 -116 365 -217 295 -226 c 1
 291 -223 287 -212 288 -204 c 1
EndSplineSet
Validated: 33
EndChar

StartChar: OE
Encoding: 338 338 364
Width: 992
VWidth: 512
Flags: W
HStem: -10 42<250.059 429.928> 0 32<297.021 418.911 618.912 786.838> 311 42<666.694 805.51> 620 44<758.584 910.8> 620 36<715.851 860.365> 628 40<344.423 522.171>
VStem: 53 120<143.973 392.804> 822 29<232.006 272.809> 859 29<393.682 431.922> 940 32<517.218 580.433>
LayerCount: 2
Back
Fore
SplineSet
415 628 m 3xa7c0
 269 628 173 423 173 255 c 1
 173 133 217 32 320 32 c 1
 414 32 460 58 495 114 c 0
 516 133 552 322 571 422 c 0
 581 475 586 544 561 578 c 0
 533 619 459 628 415 628 c 3xa7c0
552 0 m 0x73c0
 532 0 487 1 437 -2 c 0
 389 -5 338 -10 295 -10 c 1
 153 -10 53 112 53 260 c 1
 53 492 237 668 436 668 c 1xa7c0
 522 668 592 656 658 656 c 0x2bc0
 720 656 894 664 972 664 c 1
 971 648 971 634 971 618 c 0
 971 585 972 553 972 522 c 1
 969 519 959 517 952 517 c 0
 946 517 940 519 940 524 c 0
 932 592 906 620 844 620 c 2
 844 620 779 620 779 620 c 1
 751 620 724 620 718 608 c 0
 710 588 706 570 700 542 c 2
 700 542 666 362 666 362 c 2
 665 356 683 353 703 353 c 2
 703 353 750 353 750 353 c 2
 822 353 831 360 859 424 c 0
 861 429 866 432 872 432 c 0
 878 432 886 429 888 426 c 1
 888 426 851 236 851 236 c 1
 849 234 842 232 836 232 c 0
 829 232 822 234 822 240 c 0
 820 292 814 299 806 304 c 0
 796 310 757 311 722 311 c 0
 696 311 655 310 653 300 c 2
 653 300 623 146 623 146 c 2
 619 126 610 80 612 58 c 0
 614 44 636 39 672 39 c 1
 672 39 726 39 726 39 c 2
 761 39 804 49 832 68 c 0
 854 84 880 117 906 166 c 0
 908 170 913 172 920 172 c 0
 929 172 942 169 944 166 c 1
 916 112 877 41 862 -3 c 1
 800 -3 657 0 552 0 c 0x73c0
EndSplineSet
Validated: 33
EndChar

StartChar: oe
Encoding: 339 339 365
Width: 635
VWidth: 512
Flags: W
HStem: -6 71<364 452.705> -6 36<141.252 208.069> 190 32<382 423.895> 403 39<201.773 278.466 453.645 553.5>
VStem: 20 102<50.5312 248.426> 294 84<223.261 295.224> 520 96<304.23 400.293>
LayerCount: 2
Back
Fore
SplineSet
382 222 m 1x3e
 424 223 520 291 520 364 c 0
 520 386 506 403 486 403 c 0
 432 403 389 284 382 222 c 1x3e
250 406 m 0
 170 406 122 247 122 142 c 0
 122 90 132 30 167 30 c 0x7e
 237 30 294 172 294 292 c 0
 294 348 285 406 250 406 c 0
528 442 m 0
 579 442 616 415 616 365 c 0
 616 265 441 190 379 190 c 1
 378 187 378 167 378 162 c 0
 378 113 392 65 442 65 c 0
 487 65 541 129 544 132 c 1
 550 132 558 113 558 107 c 1
 545 85 451 -6 388 -6 c 0xbe
 340 -6 306 18 289 62 c 1
 247 21 198 -6 150 -6 c 0
 68 -6 20 49 20 140 c 0
 20 282 144 442 262 442 c 0
 319 442 361 418 381 370 c 1
 425 414 479 442 528 442 c 0
EndSplineSet
Validated: 1
EndChar

StartChar: eng
Encoding: 331 331 366
Width: 489
VWidth: 512
Flags: W
HStem: -226 21G<144 162> -5 21G<86 98> 350 92<303.594 379.269> 372 70<89 173>
VStem: 112 98<243.81 406.201> 338 100<222.969 397.484>
LayerCount: 2
Back
Fore
SplineSet
388 82 m 1xec
 376 22 351 -44 309 -100 c 0
 267 -156 178 -215 146 -226 c 1
 142 -224 136 -213 136 -205 c 1
 222 -145 263 -69 289 61 c 1
 289 61 328 253 328 253 c 2
 330 263 338 308 338 318 c 0
 338 336 334 350 320 350 c 0xec
 287 350 186 232 160 106 c 1
 156 82 143 24 138 0 c 1
 126 -2 104 -5 92 -5 c 0
 80 -5 58 -2 45 0 c 1
 45 0 108 316 108 316 c 2
 109 321 112 343 112 348 c 0
 112 357 110 372 100 372 c 0
 78 372 32 316 29 312 c 1
 24 312 17 329 17 335 c 1
 31 361 108 442 158 442 c 0xdc
 188 442 210 418 210 380 c 0
 210 369 206 340 202 324 c 1
 200 317 190 270 188 260 c 1
 210 306 312 442 370 442 c 1
 421 442 438 415 438 366 c 0
 438 334 426 276 420 246 c 2
 420 246 388 82 388 82 c 1xec
EndSplineSet
Validated: 1
EndChar

StartChar: uni0237
Encoding: 567 567 367
Width: 268
VWidth: 512
Flags: W
HStem: -226 21G<-80 -62> 372 70<97 181>
VStem: 120 98<284.52 406.201>
LayerCount: 2
Back
Fore
SplineSet
116 316 m 2
 117 321 120 343 120 348 c 0
 120 357 118 372 108 372 c 0
 86 372 41 316 38 312 c 1
 33 312 26 329 26 335 c 1
 40 361 116 442 166 442 c 0
 196 442 218 418 218 380 c 0
 218 369 214 340 211 324 c 1
 211 324 172 120 164 82 c 1
 152 22 128 -44 86 -100 c 0
 44 -156 -46 -215 -78 -226 c 1
 -82 -224 -87 -213 -87 -205 c 1
 -1 -145 40 -69 66 61 c 1
 116 316 l 2
EndSplineSet
Validated: 1
EndChar

StartChar: mu
Encoding: 956 956 372
Width: 488
Flags: W
HStem: -9 86<126.313 193.727 312.5 381.366> 422 20G<137 148 356 374>
VStem: 2 60<-195.529 50.0234> 330 82<333.2 431.891>
LayerCount: 2
Back
Fore
SplineSet
143 442 m 0
 153 442 192 417 189 404 c 0
 187 390 176 345 141 256 c 0
 139 250 129 223 129 223 c 0
 113 144 118 77 150 77 c 0
 206 77 250 148 279 213 c 1
 291 256 321 394 330 429 c 1
 338 437 351 442 361 442 c 0
 387 440 415 417 412 404 c 0
 409 386 394 335 359 246 c 0
 357 240 350 223 350 223 c 1
 332 141 326 72 368 72 c 0
 391 72 419 94 427 103 c 1
 430 103 434 95 435 90 c 0
 435 86 435 79 434 76 c 0
 414 32 370 -4 334 -4 c 0
 291 -3 283 64 288 128 c 1
 246 58 195 -9 133 -9 c 0
 95 -9 94 42 90 76 c 1
 88 55 40 -73 62 -145 c 1
 59 -167 53 -187 39 -197 c 1
 18 -196 11 -194 2 -174 c 0
 -4 -156 6 -55 21 29 c 1
 23 75 60 209 72 251 c 1
 76 269 87 332 93 362 c 1
 97 372 98 385 105 422 c 1
 111 430 131 442 143 442 c 0
EndSplineSet
Validated: 33
EndChar

StartChar: acutecomb.cap
Encoding: 65536 -1 373
Width: 225
GlyphClass: 4
Flags: W
HStem: 712 113
VStem: 154 194
LayerCount: 2
Back
Fore
SplineSet
162 712 m 1
 160 714 154 720 154 724 c 1
 156 732 226 799 260 819 c 0
 266 823 286 825 296 825 c 0
 322 825 348 816 348 798 c 0
 348 766 177 713 162 712 c 1
EndSplineSet
Validated: 1
EndChar

StartChar: gravecomb.cap
Encoding: 65537 -1 374
Width: 246
GlyphClass: 4
Flags: W
HStem: 712 113
VStem: 182 194
LayerCount: 2
Back
Fore
SplineSet
369 712 m 1
 354 713 182 766 182 798 c 0
 182 816 208 825 234 825 c 0
 244 825 264 823 270 819 c 0
 304 799 374 732 376 724 c 1
 376 720 371 714 369 712 c 1
EndSplineSet
Validated: 1
EndChar

StartChar: uni0302.cap
Encoding: 65538 -1 375
Width: 323
GlyphClass: 4
Flags: W
HStem: 708 132
VStem: 177 246
LayerCount: 2
Back
Fore
SplineSet
326 840 m 0
 330 840 334 837 337 832 c 0
 361 795 395 753 423 720 c 1
 422 713 416 709 410 708 c 1
 386 722 325 757 311 767 c 1
 294 757 216 722 186 708 c 1
 181 709 176 714 177 720 c 1
 231 762 279 801 312 832 c 0
 318 837 322 840 326 840 c 0
EndSplineSet
Validated: 1
EndChar

StartChar: uni030A.cap
Encoding: 65539 -1 376
Width: 335
GlyphClass: 4
Flags: W
HStem: 581 40<248.19 324.445> 730 39<262.122 337.531>
VStem: 206 174
LayerCount: 2
Back
Fore
SplineSet
243 676 m 0
 237 646 255 621 283 621 c 0
 311 621 337 646 343 676 c 0
 349 706 332 730 304 730 c 0
 276 730 249 706 243 676 c 0
206 676 m 0
 216 728 264 769 312 769 c 0
 360 769 390 728 380 676 c 0
 370 624 323 581 275 581 c 0
 227 581 196 624 206 676 c 0
EndSplineSet
Validated: 33
EndChar

StartChar: tildecomb.cap
Encoding: 65540 -1 377
Width: 328
GlyphClass: 4
Flags: W
HStem: 726 46<346.769 453.235> 766 46<212.444 324.662>
VStem: 180 308
LayerCount: 2
Back
Fore
SplineSet
278 812 m 0x60
 302 812 318 810 340 798 c 0
 362 786 382 772 414 772 c 0xa0
 448 772 474 804 480 812 c 1x60
 483 811 488 808 488 800 c 0
 488 786 478 772 469 762 c 0
 443 736 420 726 390 726 c 0xa0
 366 726 350 730 328 742 c 0
 306 754 286 766 254 766 c 0x60
 220 766 194 734 188 726 c 1xa0
 185 727 180 730 180 738 c 0
 180 752 190 768 199 778 c 0
 225 804 248 812 278 812 c 0x60
EndSplineSet
Validated: 1
EndChar

StartChar: uni0304.cap
Encoding: 65541 -1 378
Width: 352
GlyphClass: 4
Flags: W
HStem: 654 41<191 438.963>
VStem: 188 253<654.43 695>
LayerCount: 2
Back
Fore
SplineSet
430 654 m 1
 191 654 l 1
 191 654 188 656 188 662 c 0
 188 669 196 695 201 695 c 2
 436 695 l 2
 438 695 441 692 441 688 c 0
 441 683 438 663 430 654 c 1
EndSplineSet
Validated: 1
EndChar

StartChar: uni0306.cap
Encoding: 65542 -1 379
Width: 231
GlyphClass: 4
Flags: W
HStem: 615 52<194.666 302.968>
VStem: 158 23<693.751 727.053> 343 18<711.312 728.532>
LayerCount: 2
Back
Fore
SplineSet
251 667 m 0
 287 667 326 687 343 727 c 0
 343 729 345 730 347 730 c 0
 353 730 362 722 361 718 c 0
 361 717 359 712 359 710 c 0
 341 660 290 615 240 615 c 0
 190 615 156 657 158 711 c 0
 158 713 159 717 159 718 c 0
 160 722 172 730 178 730 c 0
 180 730 181 729 181 727 c 0
 183 687 211 667 251 667 c 0
EndSplineSet
Validated: 33
EndChar

StartChar: uni0327.cap
Encoding: 65543 -1 380
Width: 283
VWidth: 512
GlyphClass: 4
Flags: W
HStem: -158 24<109.976 170.543> -63 35<165 181.469>
VStem: 184 44<-120.814 -64.0433>
LayerCount: 2
Back
Fore
SplineSet
162 -4 m 1
 186 -4 l 9
 165 -28 l 25
 184 -28 l 2
 207 -28 228 -46 228 -70 c 0
 228 -114 180 -158 116 -158 c 3
 104 -158 86 -152 80 -148 c 1
 79 -146 78 -142 78 -139 c 0
 78 -123 89 -116 95 -116 c 3
 110 -116 116 -134 138 -134 c 3
 164 -134 184 -118 184 -94 c 0
 184 -73 169 -63 157 -63 c 0
 147 -63 140 -66 130 -70 c 0
 128 -70 119 -63 119 -59 c 0
 119 -55 137 -38 162 -4 c 1
EndSplineSet
Validated: 1
EndChar

StartChar: uni0307.cap
Encoding: 65544 -1 381
Width: 219
GlyphClass: 4
Flags: W
HStem: 720 119<254.053 324.354>
VStem: 234 110<740.109 819.438>
LayerCount: 2
Back
Fore
SplineSet
234 780 m 0
 240 812 271 839 301 839 c 1
 331 839 350 812 344 780 c 0
 338 748 308 720 278 720 c 1
 247 720 228 748 234 780 c 0
EndSplineSet
Validated: 33
EndChar

StartChar: uni0323.cap
Encoding: 65545 -1 382
Width: 259
GlyphClass: 4
Flags: W
HStem: -158 124<81.1591 152.648>
VStem: 59 115<-137.591 -55.5239>
LayerCount: 2
Back
Fore
SplineSet
59 -96 m 0
 66 -62 97 -34 129 -34 c 0
 161 -34 180 -62 174 -96 c 0
 168 -130 137 -158 105 -158 c 0
 73 -158 53 -130 59 -96 c 0
EndSplineSet
Validated: 33
EndChar

StartChar: uni0305.cap
Encoding: 65546 -1 383
Width: 526
GlyphClass: 4
Flags: W
HStem: 736 68<140.56 673>
LayerCount: 2
Back
Fore
SplineSet
130 746 m 0
 130 748 144 804 154 804 c 2
 696 804 l 2
 698 804 701 803 699 795 c 0
 696 777 684 748 682 744 c 0
 679 738 673 736 673 736 c 1
 134 736 l 1
 134 736 128 736 130 746 c 0
EndSplineSet
Validated: 1
EndChar

StartChar: hookabovecomb.cap
Encoding: 65547 -1 384
Width: 164
GlyphClass: 4
Flags: W
HStem: 626 3<195.725 217.69>
VStem: 161 7<500.574 519.22>
LayerCount: 2
Back
Fore
SplineSet
205 629 m 0
 233 629 252 613 249 588 c 0
 245 564 226 547 204 539 c 0
 186 531 170 524 168 512 c 0
 168 502 175 496 177 494 c 1
 179 492 171 492 167 494 c 1
 164 497 161 506 161 510 c 0
 163 527 182 536 196 542 c 0
 218 550 243 563 245 589 c 0
 246 605 234 626 206 626 c 0
 181 626 157 605 155 588 c 0
 153 577 142 572 137 572 c 1
 135 575 173 629 205 629 c 0
EndSplineSet
Validated: 33
EndChar

StartChar: uni030B.cap
Encoding: 65548 -1 385
Width: 395
GlyphClass: 4
Flags: W
HStem: 712 113
LayerCount: 2
Back
Fore
SplineSet
329 712 m 1
 327 714 322 720 322 724 c 1
 324 732 394 799 428 819 c 0
 434 823 454 825 464 825 c 0
 490 825 516 816 516 798 c 0
 516 766 344 713 329 712 c 1
162 712 m 1
 160 714 154 720 154 724 c 1
 156 732 226 799 260 819 c 0
 266 823 286 825 296 825 c 0
 322 825 348 816 348 798 c 0
 348 766 177 713 162 712 c 1
EndSplineSet
Validated: 1
EndChar

StartChar: uni0308.cap
Encoding: 65549 -1 386
Width: 362
GlyphClass: 4
Flags: W
HStem: 714 119<203.85 274.293 394.85 465.293>
VStem: 185 110<734.655 813.985> 376 110<734.655 813.985>
LayerCount: 2
Back
Fore
SplineSet
376 775 m 0
 382 807 412 833 442 833 c 1
 472 833 492 807 486 775 c 0
 480 743 450 714 420 714 c 1
 389 714 370 743 376 775 c 0
185 775 m 0
 191 807 221 833 251 833 c 1
 281 833 301 807 295 775 c 0
 289 743 259 714 229 714 c 1
 198 714 179 743 185 775 c 0
EndSplineSet
Validated: 33
EndChar

StartChar: uni0308.narrow
Encoding: 65550 -1 387
Width: 345
VWidth: 512
GlyphClass: 4
Flags: W
HStem: 462 116<92.4922 162.166 256.663 326.166>
VStem: 76 104<479.585 561.912> 240 104<480.047 561.912>
LayerCount: 2
Back
Fore
SplineSet
240 517 m 1
 243 550 270 578 302 578 c 27
 329 578 347 553 344 525 c 1
 341 492 313 462 281 462 c 27
 253 462 237 488 240 517 c 1
76 517 m 1
 79 550 106 578 138 578 c 27
 165 578 183 553 180 525 c 1
 177 492 150 462 118 462 c 27
 90 462 73 488 76 517 c 1
EndSplineSet
Validated: 33
EndChar

StartChar: uni030C.cap
Encoding: 65551 -1 388
Width: 349
GlyphClass: 4
Flags: W
HStem: 720 132
VStem: 226 246
LayerCount: 2
Back
Fore
SplineSet
324 720 m 0
 320 720 316 724 313 729 c 0
 289 766 254 807 226 840 c 1
 227 847 234 851 240 852 c 1
 264 838 324 804 338 794 c 1
 355 804 434 838 464 852 c 1
 469 851 473 846 472 840 c 1
 418 798 371 760 338 729 c 0
 332 724 328 720 324 720 c 0
EndSplineSet
Validated: 1
EndChar

StartChar: uni02BE
Encoding: 702 702 394
Width: 189
Flags: W
HStem: 443 29<19.0554 59.8956> 672 28<63.9421 95.8285>
VStem: 15 154
LayerCount: 2
Back
Fore
SplineSet
66 700 m 1
 142 700 181 636 169 574 c 0
 155 502 92 443 15 443 c 1
 16 453 18 462 21 472 c 1
 67 472 109 531 117 574 c 0
 127 626 107 672 61 672 c 1
 60 682 63 690 66 700 c 1
EndSplineSet
Validated: 33
EndChar

StartChar: uni02BF
Encoding: 703 703 395
Width: 189
Flags: W
HStem: 443 29<96.8496 125.945> 672 28<125.505 170.63>
VStem: 20 153
LayerCount: 2
Back
Fore
SplineSet
173 700 m 1
 172 690 173 682 168 672 c 1
 122 672 82 626 72 574 c 0
 64 531 84 472 130 472 c 1
 129 462 127 453 124 443 c 1
 47 443 6 502 20 574 c 0
 32 636 97 700 173 700 c 1
EndSplineSet
Validated: 33
EndChar

StartChar: quotereversed
Encoding: 8219 8219 396
Width: 195
Flags: W
HStem: 479 228<159 172>
LayerCount: 2
Back
Fore
SplineSet
106 630 m 0
 114 658 126 687 138 700 c 1
 147 704 159 707 166 707 c 0
 196 707 217 684 211 660 c 0
 208 647 197 638 184 626 c 0
 171 614 157 600 152 580 c 0
 150 571 143 533 189 497 c 1
 182 486 172 479 165 479 c 0
 157 479 80 536 106 630 c 0
EndSplineSet
Validated: 33
EndChar

StartChar: uni201F
Encoding: 8223 8223 397
Width: 332
Flags: W
HStem: 478 228<159 173 295 308>
LayerCount: 2
Back
Fore
SplineSet
241 629 m 0
 249 657 262 686 274 699 c 1
 283 703 295 706 302 706 c 0
 332 706 354 684 348 660 c 0
 344 646 330 634 316 622 c 0
 304 611 291 597 286 578 c 0
 284 569 279 532 325 496 c 1
 318 485 308 478 301 478 c 0
 293 478 215 535 241 629 c 0
105 629 m 0
 113 657 126 686 138 699 c 1
 147 703 159 706 166 706 c 0
 196 706 219 684 213 660 c 0
 209 646 197 636 184 624 c 0
 171 612 156 598 151 578 c 0
 149 569 144 532 190 496 c 1
 183 485 173 478 166 478 c 0
 158 478 79 535 105 629 c 0
EndSplineSet
Validated: 33
EndChar

StartChar: fraction
Encoding: 8260 8260 409
Width: 516
Flags: W
HStem: -2 21G<43.5 58.5>
LayerCount: 2
Back
Fore
SplineSet
493 721 m 1
 74 14 l 2
 70 7 63 -2 54 -2 c 0
 33 -2 23 10 23 10 c 1
 442 717 l 2
 445 723 452 731 458 731 c 0
 474 731 489 724 493 721 c 1
EndSplineSet
Validated: 1
EndChar

